<?xml version="1.0" encoding="UTF-8"?>
<!DOCTYPE svg PUBLIC "-//W3C//DTD SVG 1.1//EN" "http://www.w3.org/Graphics/SVG/1.1/DTD/svg11.dtd">
<!-- Creator: CorelDRAW 2017 -->
<svg xmlns="http://www.w3.org/2000/svg" xml:space="preserve" width="50.7998mm" height="33.8666mm" version="1.1" style="shape-rendering:geometricPrecision; text-rendering:geometricPrecision; image-rendering:optimizeQuality; fill-rule:evenodd; clip-rule:evenodd"
viewBox="0 0 5079.98 3386.66"
 xmlns:xlink="http://www.w3.org/1999/xlink">
 <defs>
  <style type="text/css">
   <![CDATA[
    .fil1 {fill:#0B6B64}
    .fil0 {fill:#2B8583}
   ]]>
  </style>
 </defs>
 <g id="Capa_x0020_1">
  <metadata id="CorelCorpID_0Corel-Layer"/>
  <g id="_1232044429648">
   <path class="fil0" d="M514.8 1255.67l5.07 86.08 -41.81 83.94c-15.38,37.96 -28.13,58.45 -42.91,96.22 -14.07,6.05 -110.37,80.93 -126.46,99.95l140.75 50.06c27.01,36.36 26.4,27.59 66.53,54.91 32.97,22.46 32.8,23.53 61.33,51.82 26.29,26.06 77.88,88.03 118.14,110.67 12.64,38.62 33.98,98.2 73.21,128.32 -1.94,43.55 12.84,117.05 36.13,155.39 219.19,-50.77 407.83,-363.79 304,-661.56 -36.13,-147.78 -185.02,-267.92 -325.34,-320.48 -117.34,-18.96 -138.04,-33 -269.32,-15.95l0.68 80.63zm-47.77 65.63c6.84,-74.16 27.9,-143.38 -59.57,-114.53 -144.03,47.5 -309.21,243.38 -311.13,396.07 90.11,20.67 163.66,-10.5 219.82,-49.51 72.86,-33.33 131.5,-121.08 150.88,-232.03zm-126.05 363.98c-98.29,-19.57 -140.33,-31.39 -255.59,-26.45 -10.09,200.11 85.67,355.83 188.27,436.91 107.23,84.73 298.21,161.34 459.77,103.25l-40.31 -198.07c-56.74,-145.64 -197.64,-255.24 -352.14,-315.64z"/>
   <path class="fil1" d="M1381.22 1685.34c270.42,-47.28 312.38,154.9 225.39,224.84 -34.83,27.99 -182.62,56.59 -217.78,25.43 -32.34,-28.66 -18.76,-194.1 -7.61,-250.27zm-1.17 -273.3c301.39,-49.72 316.36,236.82 -5.5,229l5.5 -229zm-90.36 581.99c205.96,26.11 511.29,6.69 443.95,-229.99 -21.54,-75.7 -67.55,-79.93 -131.55,-113.64 31.72,-38.79 67.9,-34.64 85.1,-104.23 54.5,-220.51 -242.1,-209.47 -392.42,-190.94 -22.38,81.08 -14.16,535.09 -5.08,638.8z"/>
   <path class="fil1" d="M3301.86 1994.6c67.31,-112.02 -72.85,-419.36 128.22,-418.41 185.88,0.88 26.61,408.26 128.62,423.59 73.67,-13.08 33.4,21.55 49.77,-48.01l-1.24 -231.22c1.27,-104.73 49.85,-157.58 165.84,-138.07 66.3,36.56 37.74,256.04 40.4,340.84 2.52,79.99 -10.99,62.36 44.88,76.98 41.99,-3.84 38.4,-56.11 38.77,-91.8 2.35,-231.2 30.35,-407.23 -152.69,-391.42 -80.55,6.96 -82.65,44.74 -142.93,69.05 -90.92,-96.33 -177.31,-94.78 -279.38,-1.78 -16.68,-62.52 -5.6,-58.97 -77.34,-46.05 -16.23,41.34 -15.3,411.08 -0.16,457.42l57.24 -1.12z"/>
   <path class="fil1" d="M1919.52 1708.28c-33.46,-64.72 59.96,-133.1 126.72,-134.29 48.67,-0.87 78.97,20.2 101.17,47.18 66.19,80.42 13.87,92.66 13.2,93.91l-241.09 -6.8zm325.84 158.11c-66.62,29.89 -89.44,115.36 -223.2,80.28 -78.04,-20.47 -114.53,-83.41 -115.17,-180.73l350.78 -4.28c38.31,-304.39 -391.34,-331.48 -437.5,-50.95 -60.56,367.96 409.1,385.52 425.09,155.68z"/>
   <path class="fil1" d="M4883.23 1954.13c8.62,-123.84 99.19,-320.72 80.96,-384.01 -54.26,-188.4 -288.7,129.66 -306.29,141.4l50.78 -191.32c-58.28,4.54 -128.73,14.18 -170.92,36.49l62.35 36.63c-10.66,103.34 -116.33,332.35 -85.39,403.09 84.28,2.01 76.86,-40.02 97.11,-106.64 29.31,-96.44 140.89,-327.32 259.62,-308.34 36.8,103.64 -122.96,335.34 -52.31,405.86 69.82,75.31 158.16,-61.78 176.18,-104.63 -72.87,26.73 -17.49,54.08 -112.09,71.47z"/>
   <path class="fil1" d="M4106.47 1713.51c-18.78,-75.49 56.97,-143.2 136.8,-138.64 76.28,4.36 123.67,60.48 120.15,140.49l-256.95 -1.85zm329.43 158.29c-50.46,9.99 -65.34,75.01 -164.03,81.01 -78.47,4.77 -129.01,-31.47 -158.31,-87.23 -71.3,-135.65 47.69,-99.93 334.72,-99.97 21.08,-328.89 -405.84,-327.58 -439.55,-40.04 -42.04,358.55 407.44,361.5 427.17,146.23z"/>
   <path class="fil1" d="M2734.17 1567.52c46.02,103.19 -119.57,316.44 -45.45,436.42 123.39,24.66 210.7,-114.46 255.47,-194.32l42.59 -45.49 -25.17 68.33c-4.29,27.82 -14.22,52.28 -17.32,76.62 -23.24,182.35 165.95,71.55 186.72,-27.13 -40.58,30.13 -42.92,55.85 -103.88,71.98 4.12,-78.24 36.54,-172.45 57.58,-250.25 46.35,-171.36 66.32,-176.82 -23.05,-175.55 -48.48,56.62 -76,177.12 -121.59,245.97 -41.94,63.34 -93.94,168.72 -183.04,177.6 -19.08,-102.96 82.78,-305.74 83.49,-428.91l-107.84 5.08c-83,12.22 -27.62,5.17 -46.14,22.65l47.63 17z"/>
   <path class="fil1" d="M2435.66 1998.41c6.83,-102.09 -3.22,-205.31 2.01,-305.04 7.71,-147.16 146.56,-84.97 158.9,-110.24 2.26,-4.63 8.23,-1.9 11.77,-4.07 -13.57,-113.24 -117.59,-44.63 -147.21,0.18l-20.47 -24.83c-43.85,-37.21 -48.43,-23 -86.66,-16.23l5.74 455.67 75.92 4.56z"/>
  </g>
 </g>
</svg>
