<?xml version="1.0" encoding="UTF-8"?>
<!DOCTYPE svg PUBLIC "-//W3C//DTD SVG 1.1//EN" "http://www.w3.org/Graphics/SVG/1.1/DTD/svg11.dtd">
<!-- Creator: CorelDRAW 2017 -->
<svg xmlns="http://www.w3.org/2000/svg" xml:space="preserve" width="50.7998mm" height="33.8666mm" version="1.1" style="shape-rendering:geometricPrecision; text-rendering:geometricPrecision; image-rendering:optimizeQuality; fill-rule:evenodd; clip-rule:evenodd"
viewBox="0 0 5079.98 3386.66"
 xmlns:xlink="http://www.w3.org/1999/xlink">
 <defs>
  <style type="text/css">
   <![CDATA[
    .fil2 {fill:#FEFEFE}
    .fil1 {fill:#DAE5EF}
    .fil0 {fill:#292929}
   ]]>
  </style>
 </defs>
 <g id="Capa_x0020_1">
  <metadata id="CorelCorpID_0Corel-Layer"/>
  <g id="_1231852723088">
  </g>
  <g id="_1231852723600">
  </g>
  <g id="_1231852723536">
  </g>
  <g id="_1231852724368">
  </g>
  <g id="_1231852724784">
  </g>
  <polygon class="fil0" points="5079.99,1296.51 -0.01,1296.51 0.27,2085.98 5074.39,2090.15 "/>
  <path class="fil0" d="M1353.43 1864.33l-39.11 1.7c-20.07,-57.66 -12.5,-123.63 -12.13,-185.62 0.41,-69.52 -12.21,-91.76 -15.12,-143.56l76.17 3.36 -9.81 324.12z"/>
  <path class="fil0" d="M3495.66 1813.85c-10.1,47.72 -4.58,42.65 -72.23,48.95 -137.1,12.75 -196.17,-20.08 -196.51,-167.19 -0.18,-82.6 9.62,-138.05 80.95,-156.65 62.84,-16.38 167.2,-23.71 189.2,38.4 -68.45,32.15 -103.12,-45.56 -198.05,38.65 -11.67,96.65 -14.77,132.14 23.82,193.22 97.59,24.78 128.67,-13.72 172.82,4.62z"/>
  <path class="fil0" d="M3838.78 1813.85c-10.94,49.81 -3.13,44.53 -75.63,49.76 -124.21,8.96 -190.58,-17.4 -190.86,-168 -0.47,-249.2 247.9,-156.61 268.57,-133.04 -77.84,65.77 -219.81,-67.51 -202.01,163.58 1.74,22.62 3.08,32.78 11.51,50.27 39.27,81.49 148.09,21.06 188.42,37.43z"/>
  <path class="fil0" d="M1148.47 1769.51c-34.25,-66.95 -64.02,-33.55 -147.98,-48.69 -137.18,-24.75 -84.03,-234.39 129.15,-184.26 74.41,17.5 35.12,7.33 43.91,40.8 -80.51,34.07 -193.86,-46.76 -183.88,84.47 90.23,49.18 118.13,-9.97 207.51,54.98 12.75,19.71 47.17,180.52 -182.21,152.45 -56.33,-6.89 -57.21,-2.79 -70.35,-40.62 70.97,-43.15 159.3,48.63 203.85,-59.13z"/>
  <path class="fil0" d="M1971.85 1596.35l-7.56 269.61 -57.25 -2 -15.55 -325.58c62.59,-6.02 34.56,5.88 70.51,7.98 56.43,3.32 25.27,-2.31 73.55,-10.05 60.79,-9.74 91.58,-5.59 143.03,13.91l16.08 256.64c0.4,18.06 -0.12,18.81 -3.29,36.55 -0.56,3.09 -4.24,14.39 -4.76,12.23 -0.56,-2.23 -3.31,8.54 -5.76,12.36 -70.75,-20.19 -58.83,-28.3 -57.55,-112.37 0.87,-57.46 2.67,-104.93 -4.42,-169.41l-147.03 10.13z"/>
  <path class="fil0" d="M2692.57 1794.75c24.73,-140.16 -231.47,7.21 -213.99,-171.31 5.71,-58.28 46.45,-81.3 103.37,-88.06 18.67,-2.22 81.79,-2.51 98.77,1.56 72.38,17.36 34.37,6.09 43.6,40.42 -52.49,22.15 -213.32,-25.56 -186.17,69.76 20.33,71.36 142.65,8.28 194.76,57.08 137.35,128.61 -194.02,242.55 -239.35,124.44 65.28,-35.56 111.7,27.79 199.01,-33.89z"/>
  <path class="fil0" d="M3020.61 1857.13c-59.3,10.6 -80.8,9.43 -140.26,-5.19 -29.85,-46.54 -44.14,-273.72 -43.75,-313.61 135.04,-7.29 46.11,148.75 89.82,268.57 110.33,29.18 139.51,22.7 138.98,-80.33 -0.9,-177.5 -23.86,-170.16 31.55,-192.49 41.76,19.63 28.01,-1.17 30.59,71.13 0.92,25.92 -1.42,63.11 -1.73,90.5 -0.89,80.21 3.8,98.09 16.18,163.73 -93.31,-0.06 -27.77,-19.03 -121.38,-2.31z"/>
  <path class="fil0" d="M4329.67 1581.52c34.93,-29.06 57.34,-45.97 126.64,-47.94 145.99,-4.15 109.39,31.31 112.11,43.78 -89.64,37.75 -196.58,-53.59 -183.98,88.43 77.48,34.55 120.94,-0.02 203.9,44.78 57.85,229.55 -240.74,170.14 -256.51,118.07 39.9,-23.67 127.76,4.44 202.95,-23.72 -0.83,-151.81 -68.38,-22.11 -208.43,-114.98l3.32 -108.42z"/>
  <path class="fil0" d="M4664.63 1575.62c31.29,-23.23 60.08,-38.85 117.26,-41.87 118.88,-6.3 110.57,17.89 117.17,43.61 -69.86,25.84 -107.68,-18.86 -181.57,29.73l6.67 58.95c70.42,39.01 127.64,-1.48 198.75,49.29 12.3,19.18 49.23,182.96 -184.28,153.67 -55.99,-7.03 -56.96,-2.93 -71.49,-40.36 55.77,-31.18 111.97,17.31 201.89,-28.62 1.12,-128.61 -62.06,-34.3 -208.25,-104.79l3.85 -119.61z"/>
  <polygon class="fil0" points="2309.44,1541.92 2382.75,1543.01 2382.19,1618.54 2301.72,1614.57 "/>
  <path class="fil0" d="M817.37 1828.64c-27.46,72.4 -195.47,35.6 -223.48,20.3 -68.83,-37.6 -168.25,-338.74 139.23,-316.29 106.58,7.78 129.67,57.01 118.02,162.95 -70.65,33.26 -170.64,30.93 -253.8,25.16 29.11,175.89 126.2,54.75 220.03,107.88z"/>
  <polygon class="fil0" points="2303.05,1784.89 2385.88,1787.84 2385.66,1858.86 2301.04,1854.09 "/>
  <path class="fil1" d="M3981.64 1683.9c5.47,-76.18 12.09,-99.27 90.6,-103.66 78.21,-4.37 98.08,3.62 102.11,71.02 -47.9,29.4 -128.22,35.46 -192.71,32.64zm217.88 144.74c-83.34,-48.58 -198.64,66.11 -218.32,-108.35 78.93,6.84 183.76,9.26 253.29,-24.69 25.09,-246.21 -285.7,-183.65 -314.49,-79.37 -84.29,305.29 254.49,284.89 279.52,212.41z"/>
  <path class="fil1" d="M598.27 1684.11c6.02,-75.2 3.46,-97.31 89.64,-102.79 85.13,-5.41 98.43,1.24 106.11,69.94 -47.47,32.49 -128.37,38.66 -195.75,32.85zm219.1 144.53c-93.83,-53.13 -190.92,68.01 -220.03,-107.88 83.16,5.77 183.15,8.1 253.8,-25.16 11.65,-105.94 -11.44,-155.17 -118.02,-162.95 -307.48,-22.45 -208.06,278.69 -139.23,316.29 28.01,15.3 196.02,52.1 223.48,-20.3z"/>
  <path class="fil1" d="M1907.04 1863.96l57.25 2 7.56 -269.61 147.03 -10.13c7.09,64.48 5.29,111.95 4.42,169.41 -1.28,84.07 -13.2,92.18 57.55,112.37 2.45,-3.82 5.2,-14.59 5.76,-12.36 0.52,2.16 4.2,-9.14 4.76,-12.23 3.17,-17.74 3.69,-18.49 3.29,-36.55l-16.08 -256.64c-51.45,-19.5 -82.24,-23.65 -143.03,-13.91 -48.28,7.74 -17.12,13.37 -73.55,10.05 -35.95,-2.1 -7.92,-14 -70.51,-7.98l15.55 325.58z"/>
  <polygon class="fil1" points="2301.04,1854.09 2385.66,1858.86 2385.88,1787.84 2303.05,1784.89 "/>
  <polygon class="fil1" points="2301.72,1614.57 2382.19,1618.54 2382.75,1543.01 2309.44,1541.92 "/>
  <path class="fil2" d="M1532.53 1727.03c-1.76,-58.73 -14.91,-110.71 31.73,-133.9 38.08,-18.93 122.85,-16.71 147.18,9.85 19.16,20.92 84.05,157.67 -178.91,124.05zm-63.06 -16.64c0.29,245.7 136.42,105.26 272.09,177.37 -19.3,44.59 -7.26,25.33 -53.54,54.12l-71.25 53.77c91.33,20.54 208.53,-34.08 189.79,-149.08 -113.88,-55.56 -207,22.74 -270.94,-62.28 36.09,-20.24 55.11,-9.9 113.3,-9.9 139.79,0 175.23,-98.64 94.33,-182.26 62.18,-39.14 26.49,16.01 56.55,-44.34 -44.46,-24.99 -60.12,-14.8 -150.88,-14.81 -157.91,-0.02 -179.63,21.68 -179.45,177.41z"/>
  <path class="fil2" d="M219.1 1795.53c-29.45,-32.7 -42.1,-133.24 -11.21,-180.77 29.86,-45.94 106.79,-32.23 172.21,-25.35 1.88,101.93 8.9,117.58 -9.84,216.89 -47.47,19.52 -109.82,28.84 -151.16,-10.77zm157.51 -235.72c-160.53,-51.66 -265.59,-28 -247.52,179.7 15.97,183.69 174.63,119.43 213.36,111.12 74.48,-15.99 28.79,4.01 115.43,13.76l-14.99 -420.74c-11.26,-47.36 7.64,-29.3 -35.14,-47.37 -56.29,34.86 -12.31,2.82 -31.14,163.53z"/>
  <path class="fil2" d="M2880.35 1851.94c59.46,14.62 80.96,15.79 140.26,5.19 93.61,-16.72 28.07,2.25 121.38,2.31 -12.38,-65.64 -17.07,-83.52 -16.18,-163.73 0.31,-27.39 2.65,-64.58 1.73,-90.5 -2.58,-72.3 11.17,-51.5 -30.59,-71.13 -55.41,22.33 -32.45,14.99 -31.55,192.49 0.53,103.03 -28.65,109.51 -138.98,80.33 -43.71,-119.82 45.22,-275.86 -89.82,-268.57 -0.39,39.89 13.9,267.07 43.75,313.61z"/>
  <path class="fil2" d="M2692.57 1794.75c-87.31,61.68 -133.73,-1.67 -199.01,33.89 45.33,118.11 376.7,4.17 239.35,-124.44 -52.11,-48.8 -174.43,14.28 -194.76,-57.08 -27.15,-95.32 133.68,-47.61 186.17,-69.76 -9.23,-34.33 28.78,-23.06 -43.6,-40.42 -16.98,-4.07 -80.1,-3.78 -98.77,-1.56 -56.92,6.76 -97.66,29.78 -103.37,88.06 -17.48,178.52 238.72,31.15 213.99,171.31z"/>
  <path class="fil2" d="M1148.47 1769.51c-44.55,107.76 -132.88,15.98 -203.85,59.13 13.14,37.83 14.02,33.73 70.35,40.62 229.38,28.07 194.96,-132.74 182.21,-152.45 -89.38,-64.95 -117.28,-5.8 -207.51,-54.98 -9.98,-131.23 103.37,-50.4 183.88,-84.47 -8.79,-33.47 30.5,-23.3 -43.91,-40.8 -213.18,-50.13 -266.33,159.51 -129.15,184.26 83.96,15.14 113.73,-18.26 147.98,48.69z"/>
  <path class="fil2" d="M4329.67 1581.52l-3.32 108.42c140.05,92.87 207.6,-36.83 208.43,114.98 -75.19,28.16 -163.05,0.05 -202.95,23.72 15.77,52.07 314.36,111.48 256.51,-118.07 -82.96,-44.8 -126.42,-10.23 -203.9,-44.78 -12.6,-142.02 94.34,-50.68 183.98,-88.43 -2.72,-12.47 33.88,-47.93 -112.11,-43.78 -69.3,1.97 -91.71,18.88 -126.64,47.94z"/>
  <path class="fil2" d="M4664.63 1575.62l-3.85 119.61c146.19,70.49 209.37,-23.82 208.25,104.79 -89.92,45.93 -146.12,-2.56 -201.89,28.62 14.53,37.43 15.5,33.33 71.49,40.36 233.51,29.29 196.58,-134.49 184.28,-153.67 -71.11,-50.77 -128.33,-10.28 -198.75,-49.29l-6.67 -58.95c73.89,-48.59 111.71,-3.89 181.57,-29.73 -6.6,-25.72 1.71,-49.91 -117.17,-43.61 -57.18,3.02 -85.97,18.64 -117.26,41.87z"/>
  <path class="fil2" d="M3495.66 1813.85c-44.15,-18.34 -75.23,20.16 -172.82,-4.62 -38.59,-61.08 -35.49,-96.57 -23.82,-193.22 94.93,-84.21 129.6,-6.5 198.05,-38.65 -22,-62.11 -126.36,-54.78 -189.2,-38.4 -71.33,18.6 -81.13,74.05 -80.95,156.65 0.34,147.11 59.41,179.94 196.51,167.19 67.65,-6.3 62.13,-1.23 72.23,-48.95z"/>
  <path class="fil2" d="M3838.78 1813.85c-40.33,-16.37 -149.15,44.06 -188.42,-37.43 -8.43,-17.49 -9.77,-27.65 -11.51,-50.27 -17.8,-231.09 124.17,-97.81 202.01,-163.58 -20.67,-23.57 -269.04,-116.16 -268.57,133.04 0.28,150.6 66.65,176.96 190.86,168 72.5,-5.23 64.69,0.05 75.63,-49.76z"/>
  <path class="fil2" d="M1314.32 1866.03l39.11 -1.7 9.81 -324.12 -76.17 -3.36c2.91,51.8 15.53,74.04 15.12,143.56 -0.37,61.99 -7.94,127.96 12.13,185.62z"/>
 </g>
</svg>
