<?xml version="1.0" encoding="UTF-8"?>
<!DOCTYPE svg PUBLIC "-//W3C//DTD SVG 1.1//EN" "http://www.w3.org/Graphics/SVG/1.1/DTD/svg11.dtd">
<!-- Creator: CorelDRAW 2017 -->
<svg xmlns="http://www.w3.org/2000/svg" xml:space="preserve" width="50.7998mm" height="33.8666mm" version="1.1" style="shape-rendering:geometricPrecision; text-rendering:geometricPrecision; image-rendering:optimizeQuality; fill-rule:evenodd; clip-rule:evenodd"
viewBox="0 0 5079.98 3386.66"
 xmlns:xlink="http://www.w3.org/1999/xlink">
 <defs>
  <style type="text/css">
   <![CDATA[
    .fil3 {fill:black}
    .fil4 {fill:#333333}
    .fil1 {fill:#555555}
    .fil2 {fill:#888888}
    .fil0 {fill:#B5B5B5}
   ]]>
  </style>
 </defs>
 <g id="Capa_x0020_1">
  <metadata id="CorelCorpID_0Corel-Layer"/>
  <g id="_2192693664176">
   <g>
    <path class="fil0" d="M2474.16 2514.85l4.71 -25.23c5.29,-131.55 0.99,-346.6 0.99,-479.74l0 -1529.52 569.21 0 -4.7 1887.99c0,45.44 -0.24,89.54 1.96,135 1.58,32.83 -0.31,106.92 5.6,128.51 0.25,0.89 0.9,2.36 1.43,3.51 4.15,-83.58 -2.02,-181.3 -2.02,-267.02 0,-89.99 -0.28,-180.03 0.19,-270.01l2.81 -1350.05c0,-86.04 4.68,-186.14 -0.9,-270.45l-578.43 -1.16 -0.85 2038.17z"/>
    <path class="fil0" d="M3748.91 2684.42l-3.33 -1960.49c70.93,0 991.22,-6.06 1035.62,2.49 -5.35,-11.84 2.95,-3.51 -9.58,-7.82l-50.83 -1.34c-170.17,0.18 -948.75,-5.73 -977.47,4.05 -10.25,27.87 0.7,1453.29 0.9,1721.52 0.02,19.64 -5.85,224.74 4.69,241.59z"/>
    <path class="fil0" d="M772.89 2319.75l-168.62 -2.58 -3.8 -1249.6c53.15,0 106.31,0 159.47,0 24.24,0 142.6,6.16 151.51,4.42 -15.2,-15.91 -288.32,-11.03 -314.35,-7.76 -6.72,97.83 -0.62,217.01 -0.54,317.19 0.08,102.36 -3.94,913.68 3.87,941.39 26.37,2.43 62.71,3.24 89.61,3.4 21.25,0.13 68.14,3.2 82.85,-6.46z"/>
    <path class="fil0" d="M3533.54 2850.27c3.27,7.03 -6.26,7.24 31.51,6.77l265.71 0.39c51.25,0.56 102.53,-0.19 153.78,0.39 42.69,0.49 113.14,4.1 152.95,-1.51l3.64 -901.44c-12.31,11.25 -7.71,25.5 -7.68,55.01l0 843.16 -599.91 -2.77z"/>
   </g>
   <g>
    <path class="fil1" d="M3004.73 2767.42l-469.38 4.14c-8.72,-86.9 -3.59,-986.38 -3.59,-1096.86 0,-367.06 0,-734.13 0,-1101.19l466.94 0.04 6.03 2193.87zm0 0c10.34,-5.68 4.66,-47.44 4.66,-59.23l-5.85 -1862.14c0,-66.33 9.14,-221.09 -0.41,-276.49l-474.69 -1.67c-8,38.22 -2.21,1035.57 -2.21,1102.15l0.35 824c0.48,89.78 -3.16,188.77 1.67,277.34 29.04,9.55 196.37,2.19 240.07,2.06l181.73 -1.21c9.5,-0.1 18.82,-0.02 28.26,-0.05 26.57,-0.08 20.91,0.37 26.42,-4.76z"/>
    <path class="fil1" d="M3533.54 2850.27l-2.54 -2333.84 1054.66 0c65.72,0 306.61,-8.54 352.49,2.78 -4.92,-14.21 -51.15,-8.07 -82.23,-8.07 -158.44,0 -1288.36,-5 -1325.98,2.01 -12.59,25.4 -2.54,1052.41 -2.09,1170.86l1.54 1136.09c-0.16,24.71 -1.92,24.31 4.15,30.17z"/>
    <path class="fil1" d="M840.97 2798.61l-736.78 -1.97c-5.33,-15.42 -1.77,-1995.5 -1.78,-2192.68 57.04,-8.1 335.62,-0.22 373.39,-5.55 11.67,-1.66 10.35,-2.6 12.15,-3.27l-388.08 1.75c-6.6,17.06 -6.64,2185.75 1.41,2205.78 59.17,4.16 736.36,4.35 739.69,-4.06z"/>
    <path class="fil1" d="M4004.66 1493.16l5.25 2 -0.96 -529.66 758.44 0c23.72,0.1 34.67,3.57 45.64,-5.89 -108.22,10.91 -756.41,-8.07 -808.34,3.84l-0.03 529.71z"/>
   </g>
   <g>
    <path class="fil2" d="M4099.9 1471.21c1.08,0.62 2.79,0.1 3.43,1.53 3.39,7.5 796.46,1.95 800.86,1.95l1.25 457.86 -792.94 -1.08c-9.03,32.83 0.81,784.01 -0.21,889.87l-478.74 -0.1 -0.12 -2216.79c-6.42,7.11 -3.97,1.46 -6.37,13.64l0.69 1652.5c0.01,100.24 -4.88,483.37 1.15,550.81 20.46,9.86 441.68,9.17 486.82,2.97 8.82,-37.19 2.13,-175.57 1.86,-223.25l-3.09 -665.09 794.79 0.91c6.97,-40.56 6.06,-440.19 -3.41,-467.13l-805.97 1.4z"/>
    <path class="fil2" d="M834.19 2822.74c-240.51,6.09 -507.97,4.49 -750.74,2.74l5.01 -2309.97c112.19,-0.48 223.79,-1.43 335.97,-3.32 57.44,-0.98 114.96,-1.39 172.42,-1.98l168.16 2.04c-4.36,-2.47 2.99,-1.01 -10.14,-4.05l-32.2 -3.24c-61.68,-4.91 -460.14,3.46 -559.19,4.13 -98.61,0.66 -81.23,-32.25 -81.49,146.08l-1.43 1014.87c-0.09,79.82 -7.95,1108.37 0.37,1158.24 38.53,7.86 143.57,2.25 189.72,2.79l382.11 1.03c31.07,0 62.13,-0.02 93.2,-0.01 15.19,0 31.56,0.57 46.62,-0.11l38.71 -7.38c0.54,-1.37 1.97,-1.19 2.9,-1.86z"/>
    <path class="fil2" d="M4240.66 1722.69c37.36,5.21 414.21,3.63 435.6,-3.75l1.16 -88.07c-30.33,-8.39 -706.56,-2.89 -797.83,-2.89l2 -781.6c79.42,-1.99 753.47,7.09 796.44,-0.95l1.19 -86.07c-46.04,-6.49 -705.76,-1.06 -839.15,-1.63 -50.4,-0.22 -41.38,-4.81 -50.19,8 31.22,-8.39 830.66,-3.21 885.1,-3.21l0.37 80.53 -597.62 -1.34c-46.12,0.03 -160.05,-6.48 -198.12,1.74 -8.68,31.74 -8.09,768.43 -0.86,787.89l794.09 1.24 0.05 84.73 -422.28 1.88c-14.78,2.49 -4.72,0.77 -9.95,3.5z"/>
    <path class="fil2" d="M279 2577.75l-6.85 -1821.54 578.71 1.43 -7.45 -3.6c-16.29,-4.97 -47.43,-2.74 -64.83,-2.74 -118.82,0.02 -435.81,-5.48 -509.02,1.33 -9.24,43.26 1.3,1266.89 1.57,1373.64l0.88 344.49c0.05,18.63 0.14,37.25 0.15,55.87 0.02,34.56 -5.55,43.73 6.84,51.12z"/>
    <path class="fil2" d="M2869.89 2652.35l-215.98 2.38c-5.82,-75.55 0,-166.7 -1.16,-244.49l1.8 -1721.56c-7.35,7.51 -7.11,-15.22 -6.65,40.97 0.12,13.96 0.02,27.95 0.02,41.91 0,249.99 -8.49,1843.56 2.5,1886.82 24.55,5.8 84.64,1.5 113.24,1.17 18.64,-0.21 37.28,-0.45 55.92,-0.63 14.52,-0.15 44.1,4.8 50.31,-6.57z"/>
    <path class="fil2" d="M4012.13 1848.92c33.88,-10.62 337.38,-4.5 396.45,-3.54l398.98 -0.44c8.02,-21.91 8.01,-318.28 0.95,-346.12l-798.6 -3.66 -5.25 -2c6.98,9.3 -9.7,6.35 16.78,9.41l784.85 -0.52 0 339.17 -747.2 -1.47c-6.78,-0.05 -17.46,-0.8 -23.6,-0.51 -24.12,1.11 -19.67,4.71 -23.36,9.68z"/>
    <path class="fil2" d="M733.06 2197.59l-0.33 -1008.86 91.12 -0.34c-11.79,-10.93 -78.1,-5.93 -93.53,-4.16 -10.18,29.46 -3.52,441.61 -3.52,509.09l1.35 493.42c1.63,8.14 2.76,7.25 4.91,10.85z"/>
    <path class="fil2" d="M3985.13 2242.82l-1.6 -420.55 695.32 -4.16c22.92,-0.16 80.39,4.92 99.24,-4.63l-795.35 2.97c-8.33,23.9 -4.84,408.77 2.39,426.37z"/>
    <path class="fil2" d="M947.68 613.86c-3,-1.89 0.45,-2.16 -10.92,-5.8 -5.89,-1.88 -10.79,-2.34 -16.45,-2.96 -9.62,-1.06 -20.87,-1.93 -30.55,-2.34 4.78,3.02 -4,1.15 10.47,5.17 6.36,1.77 9.67,1.69 16.1,2.45 10.59,1.26 20.88,2.54 31.35,3.48z"/>
   </g>
   <g>
    <path class="fil3" d="M4141.13 1954.87l-3.64 901.44c-39.81,5.61 -110.26,2 -152.95,1.51 -51.25,-0.58 -102.53,0.17 -153.78,-0.39l-265.71 -0.39c-37.77,0.47 -28.24,0.26 -31.51,-6.77 -6.07,-5.86 -4.31,-5.46 -4.15,-30.17l-1.54 -1136.09c-0.45,-118.45 -10.5,-1145.46 2.09,-1170.86 37.62,-7.01 1167.54,-2.01 1325.98,-2.01 31.08,0 77.31,-6.14 82.23,8.07l1.04 578.46 -811.99 0.02 2.1 283.75 799.89 1.66 -0.66 570.4 -787.4 1.37zm-631.9 -1485.91l0 2425.45c0,23.39 4.19,20.84 4.66,41.89l717.62 0 0 -870.55 787.5 0c19.66,0 14.48,-21.01 14.15,-41.73 -0.31,-19.69 1.21,-40.14 -1.43,-59.42 -7.46,-54.29 -3.4,-538.6 -3.4,-620.43l-801.48 0 0 -148.97 810.81 0 0 -730.89 -1528.43 4.65z"/>
    <path class="fil3" d="M2474.16 2514.85l0.85 -2038.17 578.43 1.16c5.58,84.31 0.9,184.41 0.9,270.45l-2.81 1350.05c-0.47,89.98 -0.19,180.02 -0.19,270.01 0,85.72 6.17,183.44 2.02,267.02l1.39 184.54 -581.56 0.14 0.97 -305.2zm-78.62 -2017.95l0 912.44c0,106.18 -4.66,200.34 -4.66,302.61 0,203.28 0,406.56 0,609.84 0,206.85 4.66,401.79 4.66,605.2l778.19 -4.66 4.66 -2471.99 -782.85 0 0 46.56z"/>
    <path class="fil3" d="M4009.91 1495.16l798.6 3.66c7.06,27.84 7.07,324.21 -0.95,346.12l-398.98 0.44c-59.07,-0.96 -362.57,-7.08 -396.45,3.54l-2.38 870.57 -343 0.82 -1.82 -2079.57 1149.27 0.79 -1.17 318.08c-10.97,9.46 -21.92,5.99 -45.64,5.89l-758.44 0 0.96 529.66zm89.99 -23.95l3.21 -405.06 814.47 -0.02 -0.38 -463.14 -1283.77 1.46 0.12 2216.79 478.74 0.1c1.02,-105.86 -8.82,-857.04 0.21,-889.87l792.94 1.08 -1.25 -457.86c-4.4,0 -797.47,5.55 -800.86,-1.95 -0.64,-1.43 -2.35,-0.91 -3.43,-1.53z"/>
    <path class="fil3" d="M834.19 2822.74c-0.93,0.67 -2.36,0.49 -2.9,1.86l-38.71 7.38c-15.06,0.68 -31.43,0.11 -46.62,0.11 -31.07,-0.01 -62.13,0.01 -93.2,0.01l-382.11 -1.03c-46.15,-0.54 -151.19,5.07 -189.72,-2.79 -8.32,-49.87 -0.46,-1078.42 -0.37,-1158.24l1.43 -1014.87c0.26,-178.33 -17.12,-145.42 81.49,-146.08 99.05,-0.67 497.51,-9.04 559.19,-4.13l32.2 3.24c13.13,3.04 5.78,1.58 10.14,4.05 128.15,-16.13 357.22,45.33 476.6,99.35 107.7,48.75 265.05,140.41 350.49,227.12 104.29,105.86 177.85,189.12 247.99,329.44 298.14,596.51 9.63,1249.36 -555.29,1524.37 -78.87,38.4 -353.58,137.87 -450.61,130.21zm29.71 113.56l-25.75 0c-265.12,-1.44 -530.67,0 -795.83,0l0 -2471.99c236.35,0 685.79,-10.49 894.98,18.32 87.31,12.02 199.95,45.2 279.94,74.14l106.53 47.2c89.75,44.84 228.43,133.9 304.11,203.62l117.24 134.26c9.01,11.51 13.77,16.6 22.69,28.55 29.69,39.76 56.83,73.62 84.45,115.8 111.65,170.48 194.79,405.29 193.82,616.4 -0.79,174.62 -41.62,341.87 -113.4,496.63 -44.09,95.07 -93.66,166.93 -157.51,247.66 -30.52,38.6 -61.23,69.35 -96.08,104.18 -105.81,105.71 -283.04,229.67 -426.54,286.14 -129.6,51.01 -234.31,97.06 -388.65,99.09z"/>
    <path class="fil3" d="M4240.66 1722.69l-350.59 -0.83 -0.45 869.93 -102.11 0.34 2.37 -1826.4c8.81,-12.81 -0.21,-8.22 50.19,-8 133.39,0.57 793.11,-4.86 839.15,1.63l-1.19 86.07c-42.97,8.04 -717.02,-1.04 -796.44,0.95l-2 781.6c91.27,0 767.5,-5.5 797.83,2.89l-1.16 88.07c-21.39,7.38 -398.24,8.96 -435.6,3.75zm-491.75 961.73l235.9 1.84 0.32 -443.44c-7.23,-17.6 -10.72,-402.47 -2.39,-426.37l795.35 -2.97 2.13 -216.8 -799.8 -1.31c-4.72,-50.61 -5.03,-625.89 1.23,-654.29l798.36 -0.14 1.19 -214.52c-44.4,-8.55 -964.69,-2.49 -1035.62,-2.49l3.33 1960.49z"/>
    <path class="fil3" d="M149.45 632.32c113.03,-1.42 227.1,-0.71 340.22,-0.68 358,0.11 532.26,-24.61 851.34,169.21 34.21,20.79 73.91,45.51 103.34,69.09 36.4,29.17 56.71,51.8 86.61,81.02 54.89,53.65 108.06,122.56 149.55,190.48 370.92,607.28 18.14,1289.76 -582.89,1489.85 -143.12,47.65 -133.35,40.29 -276.25,63.96 -70.23,11.62 -566.46,6.66 -673.42,5.16l1.5 -2068.09zm691.52 2166.29c85.48,6.71 335.82,-85.58 407.78,-118.9 156.37,-72.4 270.19,-155.6 386.73,-274.66 154.73,-158.04 260.12,-419.5 269.11,-646.46 6.34,-160.12 -25.28,-314.37 -81.65,-442.92 -99.36,-226.62 -282.44,-435.6 -489.65,-562.92 -79.51,-48.86 -268.92,-134.42 -385.61,-138.89 -10.47,-0.94 -20.76,-2.22 -31.35,-3.48 -6.43,-0.76 -9.74,-0.68 -16.1,-2.45 -14.47,-4.02 -5.69,-2.15 -10.47,-5.17 -53.16,3.3 -138.11,-8.05 -199.72,-7.68 -62.85,0.39 -141.16,4.61 -202.09,0.06 -1.8,0.67 -0.48,1.61 -12.15,3.27 -37.77,5.33 -316.35,-2.55 -373.39,5.55 0.01,197.18 -3.55,2177.26 1.78,2192.68l736.78 1.97z"/>
    <path class="fil3" d="M477.45 2445.38c-8.63,-31.92 -3.87,-662.22 -4.02,-752.06 -0.11,-63.51 -4.76,-703.95 0.3,-749.73 325.95,0 547.69,-30.64 790.52,134.11 418.87,284.21 391.43,918.25 -33.09,1207.43 -264.53,180.2 -456.09,160.25 -753.71,160.25zm-113.91 38.94c100.68,0 431.56,5.51 507.1,-6.01 371.77,-56.67 739.21,-385.35 734.28,-817.58 -3.57,-312.68 -194.88,-554.24 -365.51,-665.19 -107.35,-69.81 -219.05,-120.05 -371.15,-146.95 -89.55,-15.85 -398.84,-8.2 -510.31,-8.2 9,133.63 4.34,270.98 4.34,406.01l0 1028.84c0,63.62 -4.69,147.97 1.25,209.08z"/>
    <path class="fil3" d="M2563.96 601.68l334.18 1.23 2.32 173.3 -0.76 595.89 -2.45 1316.02 -332.97 0 -1.55 -17.18 0.02 -1047.45 1.97 -465.54 -0.76 -556.27zm440.77 2165.74l-6.03 -2193.87 -466.94 -0.04c0,367.06 0,734.13 0,1101.19 0,110.48 -5.13,1009.96 3.59,1096.86l469.38 -4.14z"/>
    <path class="fil3" d="M279 2577.75c-12.39,-7.39 -6.82,-16.56 -6.84,-51.12 -0.01,-18.62 -0.1,-37.24 -0.15,-55.87l-0.88 -344.49c-0.27,-106.75 -10.81,-1330.38 -1.57,-1373.64 73.21,-6.81 390.2,-1.31 509.02,-1.33 17.4,0 48.54,-2.23 64.83,2.74l7.45 3.6c112.57,-0.25 304.59,80.65 383.45,126.53 111.2,64.71 205.46,150.63 273.96,238.43 361.24,463.06 185.29,1078.45 -320.62,1342.62 -246.96,128.95 -393.54,111.79 -656.04,113.56 -62.5,0.42 -198.74,7.51 -252.61,-1.03zm580.98 73.59c71.17,18.05 303.91,-68.71 360.71,-97.31 327.49,-164.9 559.12,-454.58 556.28,-842.08 -2.05,-279.77 -111.52,-466.52 -275.63,-656.89 -98.41,-114.17 -257.42,-230.11 -413.87,-285.02 -29.78,-10.46 -158.79,-48.71 -186.77,-43.72 -52.63,6.74 -113.73,-0.91 -168.72,0.45l-499.14 2.89 0 1923.94 627.14 -2.26z"/>
    <path class="fil3" d="M772.89 2319.75c-14.71,9.66 -61.6,6.59 -82.85,6.46 -26.9,-0.16 -63.24,-0.97 -89.61,-3.4 -7.81,-27.71 -3.79,-839.03 -3.87,-941.39 -0.08,-100.18 -6.18,-219.36 0.54,-317.19 26.03,-3.27 299.15,-8.15 314.35,7.76 65.79,-4.85 182.17,52.96 228.09,79.14 64.05,36.51 131.81,87.22 169.26,133.46 93.63,115.59 151.55,280.11 119.35,475.46 -30.48,184.81 -123.38,301.24 -220.74,389.61 -92.76,84.18 -316.13,186.73 -434.52,170.09zm-279.48 44.58c299.82,7.41 495.15,3.2 697.14,-147.67 376.14,-280.94 385.65,-815.43 -2.21,-1109.58 -228.53,-173.32 -389.78,-150.42 -694.39,-142.55l-0.54 1399.8z"/>
    <path class="fil3" d="M2681.71 720.91l91.16 0.01 1.43 1811.69 -95.29 -0.53 2.7 -1811.17zm188.18 1931.44c9.46,-23.38 3.11,-876.43 3.11,-982.31 0,-57.2 5.02,-949.59 -1.32,-980.75l-217.13 -0.61 -1.8 1721.56c1.16,77.79 -4.66,168.94 1.16,244.49l215.98 -2.38z"/>
    <path class="fil3" d="M733.06 2197.59c-2.15,-3.6 -3.28,-2.71 -4.91,-10.85l-1.35 -493.42c0,-67.48 -6.66,-479.63 3.52,-509.09 15.43,-1.77 81.74,-6.77 93.53,4.16 105.38,-10.13 287.92,72.44 365.85,154.71 190.71,201.35 139.12,543.7 -79.77,723.16 -46.33,37.99 -99.31,71.17 -165.24,95.67 -46.64,17.33 -161.47,50.11 -211.63,35.66zm-103.8 41.5c66.18,15.87 223.61,-6.45 287.45,-26.17 338.2,-104.45 539.11,-474.8 362.91,-806.06 -76.21,-143.32 -199.24,-237.51 -351.75,-295.84 -88.51,-33.86 -201.62,-23.98 -303.22,-23.41 -4.9,92.04 -0.53,195.84 -0.43,289.15l1.08 847.18c4.17,33.49 -4.64,-19.68 1.55,7.97 0.25,1.12 0.91,2.77 1.15,3.65 0.22,0.87 0.7,2.42 1.26,3.53z"/>
   </g>
   <path class="fil4" d="M859.98 2651.34l-627.14 2.26 0 -1923.94 499.14 -2.89c54.99,-1.36 116.09,6.29 168.72,-0.45 -3.86,-2.48 -2.57,-2.96 -10.58,-4.95l-74.27 -1.11c-27.93,0 -55.94,-0.18 -83.87,0.04 -147.24,1.13 -375.96,-5.98 -503.79,1.63l0.73 1935.85 596.31 0.24c4.44,-0.2 14.81,-0.58 18.8,-1.24l15.95 -5.44z"/>
  </g>
 </g>
</svg>
