<?xml version="1.0" encoding="UTF-8"?>
<!DOCTYPE svg PUBLIC "-//W3C//DTD SVG 1.1//EN" "http://www.w3.org/Graphics/SVG/1.1/DTD/svg11.dtd">
<!-- Creator: CorelDRAW 2017 -->
<svg xmlns="http://www.w3.org/2000/svg" xml:space="preserve" width="50.7998mm" height="33.8666mm" version="1.1" style="shape-rendering:geometricPrecision; text-rendering:geometricPrecision; image-rendering:optimizeQuality; fill-rule:evenodd; clip-rule:evenodd"
viewBox="0 0 5079.98 3386.66"
 xmlns:xlink="http://www.w3.org/1999/xlink">
 <defs>
  <style type="text/css">
   <![CDATA[
    .fil2 {fill:#1A3879}
    .fil3 {fill:#469939}
    .fil0 {fill:#D62824}
    .fil1 {fill:#F9BA1A}
    .fil4 {fill:#373435;fill-rule:nonzero}
    .fil5 {fill:#6C6C6C;fill-rule:nonzero}
   ]]>
  </style>
 </defs>
 <g id="Capa_x0020_1">
  <metadata id="CorelCorpID_0Corel-Layer"/>
  <g id="_1231956526544">
   <path class="fil0" d="M3401.3 459.49c-182.23,137.09 -782.97,797.62 -871.37,842.07 -35.57,86.79 -110.44,175.81 -200.79,240.06l-33.54 109.18c77.58,98.11 260.79,265.7 356.53,359.07 108.59,-40.96 87.2,-66.49 180.45,-122.22 111.37,-117.42 212.58,-242.36 363.75,-327.25 21.21,-79.27 532.93,-574.14 620.72,-630l46.22 -108.39 -18.27 -361.72c-141.6,-22.8 -332.73,-42.72 -443.7,-0.8z"/>
   <path class="fil1" d="M3863.27 822.01l-46.22 108.39 8.38 -6.05c5.42,6.41 11.61,8.92 13.24,21.43l28.68 72.15c30.57,152.62 -48.22,859.01 -27.52,984.48 175.56,4.57 158.57,-45.55 347.96,-53.26l111.57 -408.84c97.08,-332.8 8.69,-895.38 -95.33,-1153.66 -19.04,130.47 -75.42,130.95 -159.84,238.41 -60.85,77.45 -105.85,138.27 -180.92,196.95z"/>
   <path class="fil2" d="M2426.15 139.2l-114.04 352.66 188.66 -9.95 846.78 -46.91 53.88 6.64c83.21,-58.75 125.64,-108.79 218.83,-181.59 46.92,-36.66 57.78,-38.75 107.24,-71.87 106.27,-71.14 71.87,-17.9 104.05,-114.71 -322.63,-81.25 -1168.22,-136.48 -1405.4,65.73z"/>
   <path class="fil3" d="M3401.43 441.64l-0.13 17.85c110.97,-41.92 302.1,-22 443.7,0.8l18.27 361.72c75.07,-58.68 120.07,-119.5 180.92,-196.95 84.42,-107.46 140.8,-107.94 159.84,-238.41 -86.81,-201.73 -146.66,-243.17 -372.48,-313.18 -32.18,96.81 2.22,43.57 -104.05,114.71 -49.46,33.12 -60.32,35.21 -107.24,71.87 -93.19,72.8 -135.62,122.84 -218.83,181.59z"/>
   <path class="fil4" d="M1077.79 2434.9c-7.96,100.87 -42.76,181 -104.43,240.24 -61.51,59.24 -140.78,88.8 -237.96,88.8 -83.4,0 -150.31,-25.15 -200.76,-75.59 -50.28,-50.29 -75.43,-117.21 -75.43,-200.75 0,-41.34 5.25,-79.85 15.62,-115.78 10.38,-35.95 25.72,-68.63 45.89,-98.04 31.12,-44.89 70.76,-79.56 118.78,-103.99 48.16,-24.44 100.72,-36.66 157.98,-36.66 70.61,0 129.43,17.05 176.31,51.14 46.89,34.24 78,82.12 93.2,144.07l-130.42 0c-10.8,-25.86 -29.12,-46.17 -54.7,-60.81 -25.71,-14.63 -55.97,-21.88 -91.07,-21.88 -61.52,0 -112.23,21.74 -151.87,65.22 -39.64,43.47 -59.53,99.58 -59.53,168.49 0,52.14 15.2,93.77 45.74,124.74 30.55,30.97 71.33,46.46 122.47,46.46 39.36,0 75.3,-9.8 107.84,-29.55 32.39,-19.75 57.82,-47.17 76.15,-82.12l-245.65 0 20.46 -103.99 371.38 0zm284.86 -193.51l-50.02 0 -81.12 413.44 64.93 0c72.74,0 132.27,-22.03 178.58,-66.07 46.31,-44.19 69.48,-100.87 69.48,-170.2 0,-55.98 -15.78,-99.46 -47.46,-130.14 -31.68,-30.83 -76.43,-46.46 -134.39,-47.03zm25.71 -96.33c88.79,0 157.7,23.02 206.43,69.06 48.87,46.17 73.31,110.95 73.31,194.49 0,103.43 -31.54,186.4 -94.77,248.92 -63.07,62.36 -146.9,93.62 -251.6,93.62l-227.32 0 116.78 -606.09 177.17 0zm421.96 606.09l-98.89 -606.09 119.34 0 74.87 465.44 244.79 -465.44 121.05 0 -318.81 606.09 -142.35 0z"/>
   <path class="fil5" d="M2777.12 2344.54c-13.08,-48.74 -37.37,-86.52 -73.03,-113.38 -35.8,-26.71 -79.57,-40.06 -131.42,-40.06 -41.06,0 -79.27,7.24 -114.37,21.59 -35.09,14.49 -66.06,35.38 -93.05,62.94 -25.29,26.29 -44.62,57.26 -58.11,92.78 -13.5,35.51 -20.18,73.73 -20.18,114.5 0,67.35 20.04,121.47 60.1,162.11 40.21,40.63 93.34,60.95 159.69,60.95 60.81,0 115.07,-16.91 162.81,-50.86 47.74,-33.82 80.42,-78.85 98.18,-134.97l-308.02 0 12.08 -55.41 370.1 0c-1.71,26.85 -6.96,53.56 -15.77,80.13 -8.95,26.43 -20.46,50.01 -34.53,70.46 -32.25,47.46 -73.02,84.11 -122.46,109.97 -49.3,25.71 -103.15,38.65 -161.4,38.65 -86.51,0 -155.28,-25.01 -206,-75.16 -50.72,-50.01 -76.15,-117.64 -76.15,-202.74 0,-50.3 7.96,-96.75 23.72,-139.66 15.77,-42.9 38.51,-79.56 68.2,-110.1 33.1,-33.53 70.18,-58.97 111.39,-76.3 41.2,-17.33 85.66,-25.99 133.4,-25.99 75.15,0 136.1,17.75 182.99,53.27 46.88,35.52 78.56,87.94 94.9,157.28l-63.07 0zm144.2 406.61l-53.71 0 88.66 -457.76 53.7 0 -7.81 37.22c17.9,-17.04 38.21,-29.83 60.66,-38.22 22.45,-8.37 48.02,-12.64 76.57,-12.64l12.93 0 -11.22 56.26 -2.55 0c-45.19,0 -81.7,11.93 -109.41,35.95 -27.7,24.01 -46.31,59.81 -55.83,107.26l-51.99 271.93zm466.84 -421.11c-54.13,0 -99.31,20.47 -135.68,61.52 -36.37,41.06 -54.55,92.64 -54.55,154.86 0,47.17 15.05,86.67 45.18,118.49 30.11,31.96 67.33,47.88 111.66,47.88 23.87,0 46.46,-3.84 67.77,-11.51 21.17,-7.53 40.07,-18.89 56.69,-33.81 23.44,-20.32 41.48,-45.32 54.56,-75.16 13.07,-29.84 19.6,-60.95 19.6,-93.34 0,-50.15 -15.2,-90.79 -45.6,-121.76 -30.41,-30.83 -70.19,-46.6 -119.63,-47.17zm-250.75 211.4c0,-40.2 7.52,-77.42 22.72,-111.52 15.06,-34.1 37.09,-63.65 65.93,-88.65 23.3,-20.18 49.15,-35.66 77.42,-46.31 28.28,-10.66 57.83,-16.06 88.66,-16.06 64.36,0 117.35,20.88 159.12,62.79 41.77,41.92 62.65,94.91 62.65,158.98 0,35.66 -6.53,69.76 -19.6,102.3 -12.93,32.39 -31.69,61.37 -56.12,86.94 -23.59,24.15 -51,42.48 -82.26,55.13 -31.12,12.64 -65.21,18.9 -102.15,18.9 -62.37,0 -114.09,-21.03 -155,-63.23 -40.92,-42.19 -61.37,-95.33 -61.37,-159.27zm824.29 209.71l9.53 -43.47c-21.88,18.32 -44.48,32.1 -67.48,41.48 -23.02,9.23 -46.61,13.92 -70.76,13.92 -49.44,0 -89.51,-13.92 -120.19,-41.63 -30.69,-27.7 -46.04,-63.92 -46.04,-108.54 0,-17.19 1,-35.09 2.99,-53.42 1.85,-18.47 4.83,-37.08 8.66,-55.55l43.77 -210.55 55.4 0 -47.88 237.97c-2.55,12.5 -4.4,24.15 -5.68,35.09 -1.28,10.94 -1.84,21.59 -1.84,31.83 0,34.95 9.66,62.08 28.97,81.41 19.33,19.17 46.32,28.83 80.99,28.83 46.32,0 83.26,-13.63 110.82,-40.77 27.41,-27.14 47.16,-69.62 59.1,-127.3l50.01 -247.06 53.7 0 -88.23 457.76 -55.84 0zm242.94 -209.71c0,51.01 14.78,92.07 44.33,123.05 29.7,31.11 68.34,46.59 116.08,46.59 22.45,0 44.04,-3.83 64.64,-11.51 20.74,-7.52 39.5,-18.61 56.4,-32.96 23.16,-19.74 41.2,-44.46 54.42,-74.01 13.21,-29.7 19.74,-60.95 19.74,-93.63 0,-49.87 -15.05,-90.22 -45.31,-121.05 -30.26,-30.83 -70.05,-46.17 -119.2,-46.17 -53.28,0 -98.46,20.17 -135.4,60.52 -37.08,40.35 -55.7,90.07 -55.7,149.17zm-5.82 -248.05l59.53 0 -10.65 46.31c20.17,-19.88 42.9,-34.66 68.19,-44.46 25.29,-9.81 53,-14.63 83.11,-14.63 64.93,0 118.06,20.6 159.55,61.8 41.49,41.2 62.22,94.19 62.22,158.83 0,36.66 -6.67,71.32 -20.02,104 -13.22,32.82 -32.54,61.8 -57.83,87.09 -23.01,23.02 -49.16,40.35 -78.42,52.14 -29.27,11.8 -60.95,17.76 -95.05,17.76 -43.47,0 -80.69,-7.95 -111.66,-23.87 -30.98,-16.05 -56.55,-40.49 -76.73,-73.45l-46.31 234.56 -55.27 0 119.34 -606.08z"/>
   <path class="fil4" d="M1297.17 3299.25l50.6 -269.25 -69.18 0 5.04 -25.27 165.63 0 -4.63 25.27 -67.58 0 -51.71 269.25 -28.17 0zm207.12 -294.52l-18.57 93.21c11.32,-8.5 22.51,-14.85 33.56,-18.99 11.04,-4.22 22.02,-6.29 32.92,-6.29 24.03,0 43.5,6.77 58.49,20.23 14.97,13.46 22.43,31 22.43,52.61 0,8.22 -0.48,16.85 -1.52,25.83 -1.03,8.89 -2.48,17.87 -4.34,26.78l-20.23 101.14 -27.56 0 22.86 -113.92c1.24,-6.07 2.14,-11.8 2.76,-17.18 0.62,-5.39 0.97,-10.57 1.1,-15.61 0,-16.98 -4.69,-30.16 -14.15,-39.63 -9.46,-9.45 -22.57,-14.15 -39.42,-14.15 -22.37,0 -40.25,6.63 -53.64,19.96 -13.47,13.25 -23,33.89 -28.65,61.99l-24.03 118.54 -26.1 0 57.64 -294.52 26.45 0zm358.81 167.35c-2.14,-23.75 -10.29,-42.46 -24.51,-56.12 -14.16,-13.68 -32.31,-20.51 -54.61,-20.51 -21.82,0 -40.87,6.9 -57.24,20.71 -16.29,13.8 -27.27,32.45 -32.93,55.92l169.29 0zm21.13 53.02c-10.78,26.65 -25.82,46.61 -45.08,59.93 -19.27,13.32 -42.95,20.03 -70.99,20.03 -31.41,0 -57.16,-10.08 -77.18,-30.18 -20.02,-20.09 -30.03,-45.84 -30.03,-77.25 0,-18.99 3.73,-36.94 11.12,-53.79 7.45,-16.91 18.08,-31.48 31.96,-43.91 10.91,-9.74 23.2,-17.05 36.86,-21.95 13.75,-4.91 28.31,-7.39 43.85,-7.39 32.03,0 57.92,10.35 77.53,31 19.61,20.64 29.41,48.06 29.41,82.16 0,3.38 0,5.94 -0.07,7.73 -0.07,1.73 -0.27,3.45 -0.55,5.04l-200.7 0c0,25.07 7.18,45.29 21.54,60.62 14.36,15.39 33,23.06 55.92,23.06 19.13,0 35.7,-4.55 49.71,-13.74 14.02,-9.12 25.48,-22.92 34.39,-41.36l32.31 0zm133.04 74.15l57.09 -294.52 69.52 0c37.84,0 65.94,7.18 84.38,21.54 18.43,14.36 27.62,36.17 27.62,65.45 0,26.71 -8.91,48.74 -26.66,66 -17.74,17.26 -42.39,27.69 -74.01,31.34l60.55 110.19 -34.38 0 -69.18 -133.8 9.46 0c32.79,0 58.41,-6.62 76.77,-19.95 18.43,-13.26 27.61,-31.76 27.61,-55.37 0,-9.6 -1.72,-18.16 -5.17,-25.69 -3.45,-7.58 -8.42,-13.94 -15.05,-19.05 -7.05,-5.39 -15.6,-9.18 -25.75,-11.32 -10.22,-2.14 -28.03,-3.25 -53.51,-3.25l-28.51 0 -51.78 268.43 -29 0zm299.01 -244.4l9.53 -50.12 26.51 0 -9.53 50.12 -26.51 0zm22.09 21.95l-43.14 222.45 -26.59 0 43.57 -222.45 26.16 0zm267.95 2.08l-36.45 186.34c-0.21,1.52 -0.69,3.72 -1.38,6.7 -7.04,36.45 -15.12,61.72 -24.3,75.87 -8.22,12.56 -19.75,22.16 -34.59,28.86 -14.85,6.69 -32.17,10.01 -51.99,10.01 -28.58,0 -51.85,-6.49 -69.66,-19.54 -17.89,-13.04 -28.52,-31.13 -31.9,-54.19l24.93 0c4.55,15.67 12.91,27.68 24.92,35.97 12.08,8.35 27.34,12.49 45.84,12.49 25.89,0 45.7,-6.42 59.51,-19.33 13.75,-12.91 22.51,-33.28 26.31,-61.03 -10.57,7.8 -21.96,13.66 -34.18,17.68 -12.29,3.93 -25.27,5.93 -39.07,5.93 -31.01,0 -56.48,-10.08 -76.5,-30.17 -20.03,-20.09 -30.03,-45.71 -30.03,-76.84 0,-17.95 3.17,-34.87 9.59,-50.74 6.42,-15.96 15.67,-29.97 27.83,-42.12 11.18,-11.19 23.95,-19.68 38.39,-25.48 14.42,-5.8 29.89,-8.7 46.32,-8.7 21.47,0 39.63,3.93 54.61,11.87 14.99,7.95 26.86,19.89 35.77,35.84l7.93 -39.42 28.1 0zm-46.73 99.42c0,-24.79 -7.12,-44.81 -21.34,-60 -14.22,-15.26 -32.94,-22.85 -56.13,-22.85 -10.98,0 -21.47,1.86 -31.48,5.59 -10.08,3.66 -19.2,9.04 -27.41,16.01 -11.19,9.6 -20.02,21.61 -26.45,36.11 -6.42,14.51 -9.59,29.62 -9.59,45.37 0,24.23 7.31,43.84 22.02,58.81 14.71,14.99 34.04,22.45 57.93,22.45 25.89,0 47.78,-9.74 65.66,-29.21 17.88,-19.47 26.79,-43.57 26.79,-72.28zm130.41 -173.57l-18.57 93.21c11.32,-8.5 22.51,-14.85 33.56,-18.99 11.04,-4.22 22.02,-6.29 32.92,-6.29 24.03,0 43.5,6.77 58.49,20.23 14.97,13.46 22.43,31 22.43,52.61 0,8.22 -0.48,16.85 -1.52,25.83 -1.03,8.89 -2.48,17.87 -4.34,26.78l-20.23 101.14 -27.56 0 22.86 -113.92c1.24,-6.07 2.14,-11.8 2.76,-17.18 0.62,-5.39 0.97,-10.57 1.1,-15.61 0,-16.98 -4.68,-30.16 -14.15,-39.63 -9.45,-9.45 -22.57,-14.15 -39.42,-14.15 -22.37,0 -40.25,6.63 -53.64,19.96 -13.47,13.25 -22.99,33.89 -28.65,61.99l-24.03 118.54 -26.1 0 57.65 -294.52 26.44 0zm166.6 294.52l38.6 -197.59 -46.89 0 4.63 -24.86 46.74 0 14.08 -72.07 26.93 0 -14.15 72.07 46.88 0 -5.04 24.86 -46.68 0 -38.24 197.59 -26.86 0zm233.22 -294.52l27.69 0 19.19 263.39 120.96 -263.39 24.85 0 17.82 263.8 123.02 -263.8 29.35 0 -139.19 294.52 -35.62 0 -16.99 -243.57 -111.84 243.57 -35.63 0 -23.61 -294.52zm530.86 173.57c0,-24.79 -7.12,-44.81 -21.34,-60 -14.22,-15.26 -32.94,-22.85 -56.13,-22.85 -10.98,0 -21.47,1.86 -31.48,5.59 -10.08,3.66 -19.2,9.04 -27.41,16.01 -11.19,9.6 -20.02,21.61 -26.44,36.11 -6.43,14.51 -9.6,29.62 -9.6,45.37 0,24.23 7.32,43.84 22.03,58.81 14.7,14.99 34.03,22.45 57.92,22.45 25.89,0 47.78,-9.74 65.66,-29.21 17.88,-19.47 26.79,-43.57 26.79,-72.28zm4.48 120.95l-29.34 0 3.59 -17.05c-11.46,7.38 -23.34,12.98 -35.7,16.78 -12.28,3.8 -25.05,5.66 -38.31,5.66 -31.14,0 -56.69,-10.01 -76.64,-30.03 -19.95,-20.03 -29.89,-45.71 -29.89,-76.98 0,-17.95 3.17,-34.87 9.59,-50.74 6.42,-15.96 15.67,-29.97 27.83,-42.12 11.18,-11.19 23.95,-19.68 38.39,-25.48 14.43,-5.8 29.89,-8.7 46.32,-8.7 21.47,0 39.63,3.93 54.61,11.87 14.99,7.95 26.93,19.89 35.77,35.84l8.35 -41.5 28.1 0 -42.67 222.45zm33.97 72.08l56.06 -92.24 -38.25 -202.29 25.68 0 31.97 171.09 102.73 -171.09 29.35 0 -178.2 294.53 -29.34 0z"/>
  </g>
 </g>
</svg>
