<?xml version="1.0" encoding="UTF-8"?>
<!DOCTYPE svg PUBLIC "-//W3C//DTD SVG 1.1//EN" "http://www.w3.org/Graphics/SVG/1.1/DTD/svg11.dtd">
<!-- Creator: CorelDRAW 2017 -->
<svg xmlns="http://www.w3.org/2000/svg" xml:space="preserve" width="50.7998mm" height="33.8666mm" version="1.1" style="shape-rendering:geometricPrecision; text-rendering:geometricPrecision; image-rendering:optimizeQuality; fill-rule:evenodd; clip-rule:evenodd"
viewBox="0 0 5079.98 3386.66"
 xmlns:xlink="http://www.w3.org/1999/xlink">
 <defs>
  <style type="text/css">
   <![CDATA[
    .fil0 {fill:#093071}
    .fil1 {fill:#37588C}
   ]]>
  </style>
 </defs>
 <g id="Capa_x0020_1">
  <metadata id="CorelCorpID_0Corel-Layer"/>
  <g id="_1231842809280">
   <path class="fil0" d="M794.92 2036.42c96.11,-173.13 299.66,-167.97 374.46,5.67l-374.46 -5.67zm506.46 298.35c-46.16,-11.88 -110,-47.27 -141.95,-44.81 -19.35,1.48 -317.08,181.32 -376.72,-110.47l568.64 -0.08c26.95,-500.57 -586.37,-542.99 -717.93,-188.23 -181.01,488.12 505.29,679.48 667.96,343.59z"/>
   <path class="fil0" d="M1974.64 2043.72c61.22,-180.83 319.55,-173.71 373.01,-1.67l-373.01 1.67zm504.91 310.19c-128.76,-122.32 -144.8,-36.49 -268.51,-14.06 -147.39,26.73 -222.93,-43.83 -248.97,-157.27l567.87 -3.17c26.68,-497.52 -587,-546.58 -719.42,-184.5 -160.1,437.74 421.6,685.72 669.03,359z"/>
   <path class="fil0" d="M4597.55 2188.93c297.27,311.31 205.82,293.85 482.44,294.01 -76.87,-104.34 -286.75,-295.1 -323.99,-382.94 45.83,-42.95 259.12,-257.42 288.94,-321.49 -227.29,1.23 -166.38,-63.72 -446.78,261.16l-33.95 29.07 -5.26 -552.61 -158.25 0.84 0.73 953.59 159.39 -1.44 -0.89 -306.64 37.62 26.45z"/>
   <path class="fil0" d="M3780.15 1834.71c-17.74,1.49 6.87,7.62 -28.61,-21.02 -33.79,-27.28 9.56,-19.18 -51.71,-29.48l-113.76 18.31 1.38 674.16 177.95 7.49c-1.78,-262.62 -71.66,-623 238.18,-544.09l23.09 96.22c41.77,22.26 24.58,365.69 24.58,434.26l162.81 0c30.85,-377.49 56.13,-904.38 -433.91,-635.85z"/>
   <path class="fil0" d="M175.95 1718.21l-0.91 764.78 186.22 -0.09 0 -766.86 170.52 -8.78 5.72 -176.68 -519.41 -0.81 0 163.23c21.81,-1.34 63.65,-6.76 84.54,-5.09 89.37,7.09 48.95,2.34 73.32,30.3z"/>
   <path class="fil0" d="M2701.05 2468.63l439.46 0.43 -0.81 -147.51 -202.45 1.06c-109.72,-4.57 -26.6,1.48 -58.07,-27.56l1.38 -763.93 -183.45 -0.59 3.94 938.1z"/>
   <polygon class="fil0" points="1491.63,2470.56 1650.67,2469.17 1649.88,1516.13 1491.62,1517 "/>
   <polygon class="fil0" points="3245.67,2482.98 3426.5,2482.04 3425.43,1779.22 3254.61,1778.66 "/>
   <path class="fil0" d="M3274.62 1519.02c-22.96,18.39 -33.54,7.76 -46.08,60.79 -27.38,115.78 99.32,173.1 179.47,115.43 105.94,-76.25 -6.67,-277.67 -133.39,-176.22z"/>
   <path class="fil1" d="M175.95 1718.21c-24.37,-27.96 16.05,-23.21 -73.32,-30.3 -20.89,-1.67 -62.73,3.75 -84.54,5.09l0 -163.23c-26.68,59.79 -17.48,113.78 -12.11,179.65l169.97 8.79z"/>
   <path class="fil0" d="M429.63 1089.13c-64.48,-4.12 -142.5,-14.81 -196.18,17.22 13.39,52.12 2.55,22.91 32,43.28 33.08,22.87 37.22,3.88 70.98,37.31 -296.86,156.87 -313.68,-301.42 -55.45,-220.37 36.52,11.46 145.3,81.44 101.54,-21.58 -46.77,-110.1 -267.62,-57.95 -328.98,35.87 -176.6,270.03 351.02,485.36 376.09,108.27z"/>
   <path class="fil0" d="M1211.85 1087.46c29.36,187.52 -111.64,150.2 -139.94,84.47 -43.86,-101.89 56.35,-138.3 139.94,-84.47zm-217.79 -59.35l0 360.54c147.14,-17.43 31.52,-5.24 84.83,-121.75l140.57 21.23c215.3,-306.05 -97.14,-342.14 -225.4,-260.02z"/>
   <path class="fil0" d="M1545.85 1071.11c22.8,45.96 24.31,85.24 8.96,138.66 -117.33,26.42 -181.36,-32.37 -114.25,-132.98 65.46,-27.41 27.46,-22.88 105.29,-5.68zm-121.99 209.66c288.14,34.39 258.4,-226.37 130.22,-278.39 -156.04,-63.31 -301.92,104.4 -130.22,278.39z"/>
   <path class="fil0" d="M750.63 1178.23l-19.36 -52.31 0.01 -123.54 -68.28 2.33c6.02,144.37 -27.07,294.99 141.71,283.61 174.05,-11.73 112.34,-269.51 98.13,-291.49l-39.12 -0.43c-50.87,91.41 33.84,156.9 -58.69,225.15 -82.95,-15.35 -29.67,10.71 -54.4,-43.32z"/>
   <path class="fil0" d="M492.04 1281.66l39.13 0.22c49.46,-100.35 -31.91,-135.69 50.08,-222.91 45.82,-48.74 9.26,32.38 42.3,-50.43 -41.38,-26.4 -5.54,-11.61 -59.94,-9.34 -53.97,2.25 -21.41,0.21 -82.78,-1.57 -10.33,84.07 -21.49,223.64 11.21,284.03z"/>
  </g>
 </g>
</svg>
