<?xml version="1.0" encoding="UTF-8"?>
<!DOCTYPE svg PUBLIC "-//W3C//DTD SVG 1.1//EN" "http://www.w3.org/Graphics/SVG/1.1/DTD/svg11.dtd">
<!-- Creator: CorelDRAW 2017 -->
<svg xmlns="http://www.w3.org/2000/svg" xml:space="preserve" width="50.7998mm" height="33.8666mm" version="1.1" style="shape-rendering:geometricPrecision; text-rendering:geometricPrecision; image-rendering:optimizeQuality; fill-rule:evenodd; clip-rule:evenodd"
viewBox="0 0 5079.98 3386.66"
 xmlns:xlink="http://www.w3.org/1999/xlink">
 <defs>
  <style type="text/css">
   <![CDATA[
    .fil0 {fill:#019C9C}
    .fil1 {fill:#2C459B}
    .fil2 {fill:#B4BCD7}
   ]]>
  </style>
 </defs>
 <g id="Capa_x0020_1">
  <metadata id="CorelCorpID_0Corel-Layer"/>
  <path class="fil0" d="M2711.29 2576.81c-49.83,-429.61 606.93,-460.7 630.8,-66.51 25.55,421.84 -586.36,449.73 -630.8,66.51zm258.17 -207.46c-48.96,17.83 -65.79,33.28 -85,81.33 -49.78,124.48 27.53,321 198.12,263.36 165.93,-56.05 128.34,-432.58 -113.12,-344.69zm467.13 452.52l-0.01 -123.92c45.06,9.89 274.15,86.53 264.29,-24.63 -4.59,-51.78 -143.78,-89.65 -208.05,-151.54 -73.41,-70.7 -101.76,-172.17 -5.97,-241.9 78.59,-57.22 206.88,-46.91 312.51,-36.5l0.75 115.42c-56.4,-4.53 -109.46,-21.12 -166.38,-5.82 -84.82,22.79 -34.53,71.73 5.03,96.6 83.32,52.38 165.12,72.61 208.08,152.56 56.21,104.61 -23.7,195.51 -101.25,224 -105.65,38.8 -204.37,15.31 -309,-4.27zm-848.66 -578.07l-21.61 111.41 -32.74 156.05c51.33,47.12 126.46,77.26 104.83,194.14 -7.64,41.3 -37.76,75.77 -60.56,92.85 -33.94,25.42 -73.76,36.15 -123.94,43.8 -29.08,11.54 -7.26,-3.45 -18.42,25.95l-33.55 107.57c-46.54,145.99 -106.86,288.85 -145.42,411.09l1708.94 0c15.2,-55.69 51.78,-138.15 68.14,-183.27 62.68,-172.75 125.47,-385.03 172.9,-557.46 142.41,-517.77 224.62,-1195.7 199.09,-1748.81 -1.91,-41.39 -1.72,-82.74 -3.55,-124.08l-45.88 -557.71c-8.28,-71.44 -23.29,-145.65 -27.71,-215.33l-1710.74 0c11.14,68.19 15.53,107.59 23.47,170.16 4.3,33.91 7.97,62.15 10.53,94.48 3.19,40.23 8.42,28.85 34.22,51.93 6.86,43.72 -17.15,45.03 0.03,71.4 28.81,-44.41 -19.84,-72.96 53.21,-90.54 1.04,2 1.74,4.77 2.07,6.43l2.79 19.01c1.29,40.96 -16.79,25.23 14.24,42.27 1.46,-30.18 -3.73,-54.47 7.82,-80.51 25.2,5.4 21.78,36.93 23.2,29.28 0.18,-0.97 0.68,2.86 1.37,4.14l28.17 -27.99c19.63,28.89 -15.55,45.24 -26.05,68.9 17.17,9.71 7.5,8.29 30.37,4.46 10.03,-35.1 -22.16,-44.19 59.95,-64.2 -10.54,81.99 -51.81,24.54 -37.1,94.83 18.01,-26.68 10.68,-46.71 63.79,-83.45 43.29,59.39 -17.82,-6.75 -14.71,55.72 58.68,-15.43 10.28,-16.36 50.04,-44.51 32.02,13.5 20.6,18.16 7.5,39.19l36.73 -4.9 -9.17 35.31c43.1,-20.63 6.78,-9.68 31.29,-4.49 24.44,5.17 -3.48,-0.12 26.78,-8.61 17.23,20.45 17.64,16.05 6.95,45.19 33.36,-14.07 14.42,-17.77 47.07,-17.26l9.12 39.18 32.61 -10.73 -1.42 25.56c32.07,-1.71 43.38,-6.65 41.33,39.54 47.19,-6.22 31.79,-9.67 41.19,20.73 16.31,52.76 8.28,-4.41 20.78,63.56 7.32,39.81 16.82,6.88 14.97,59.72 -1.42,40.27 5.31,25.78 3.67,55.7 -2.95,53.63 -14.32,-3.36 -9.45,46.63 4.38,44.99 10.05,62.76 6.61,111.85 -5.38,76.52 -10.69,54.69 -39.07,94.42 -26.97,37.75 -9.76,71.12 9.26,95.88 23.72,30.88 106.43,121.85 97.31,151.77 -32.31,48.04 -61.69,24.63 -80.72,60.72 -2.8,9.32 25.12,52.7 28.41,85.92 -38.14,35.85 -62.03,19.1 -90.26,40.22 22.18,33.79 40.76,6.09 72.83,41.38 -14.01,35.87 -28.54,20.88 -33.48,59.39 -5.41,42.26 8.21,39.02 21.12,68.57 57.14,130.8 -348.89,69.14 -373.04,93.41 -17.9,40.28 -15.96,134.36 -5.68,182.18 6.76,31.41 53.64,107.76 70.82,128.03 91,107.32 276.99,10.81 293.78,101.58 -75.58,26.17 -232.84,14.2 -314.7,5.05 -214.71,-24 -149.89,4.71 -290.55,4.88 -0.83,52.15 -20.13,119.05 -29.78,172.42z"/>
  <path class="fil0" d="M2362.66 1449.16c-29.02,-9.33 -62.53,-21.21 -51.01,-57.41 3.06,-1.45 -10.3,-13.96 25.13,-2.49 31.08,10.06 35.75,32.66 25.88,59.9zm-224.4 -153.84c7.85,-15.12 14.45,-22.58 29.51,-34.1 43.26,-33.1 45.39,-12.75 46.06,-12.6 -1.59,30.81 -33.59,52.62 -75.57,46.7zm-168.06 -132.08c20.43,-26.47 32.37,-37.57 79.69,-44.17 -10.79,26.09 -27.81,42.84 -44.5,60.99l-35.19 -16.82zm24.29 -162.24c-7.4,-34.91 34.71,-48.39 65.42,-55.62 7.25,28.3 -0.56,38.51 -17.26,51.12 -44.19,33.39 -48.05,4.57 -48.16,4.5zm55.1 -154.88c36.55,-36.56 22.44,-48.72 88.46,-61.49 -5.03,36.66 -31.3,67.57 -68.22,67.57 -12.97,0 -12.29,-1.78 -20.24,-6.08zm225.92 -308.6c31.94,11.41 24.61,13.83 24.7,43.39 -34.39,10.71 -75.93,-0.87 -83,-44.41 21.4,-4.38 37.27,-6.5 58.3,1.02zm162.09 2.45c-25.6,-33.41 -33.83,-52.16 -3.65,-87.16 19.36,10.99 40.23,7.93 38.53,39.56 -1.43,26.5 -16.75,38.88 -34.88,47.6zm29.42 1153.38c32.62,-3.32 25.36,-9.38 48.32,-26.3 -9.45,34.88 -1.45,62.79 -3.86,100.45 -4.07,63.77 -16.97,15.2 -31.13,71.11 -19.23,75.89 -15.46,81.96 -76.49,129.8 -73.6,57.7 -262.77,26.15 -303.66,91.59 30.41,8.44 92.06,7.98 128.99,4.25l252.81 7.23c42.73,2.42 92.51,0.17 136.01,0.17 14.65,-48.27 25.46,-158.19 32.81,-217.29 45.93,-369.12 52.11,-719.02 40.75,-1103.61 -2.97,-100.72 -37.45,-393.57 -33.34,-448.24 -42.69,14.65 -40.38,39.12 -17.92,71.27 -40.12,2.82 -19.86,-17.84 -30.64,-46.76 -9.73,-26.11 -33,-11.91 -42.68,-3.08 1.85,22.19 12.7,33.87 22.58,57.07 -18.09,11.28 -23.04,6.29 -41.28,-5.2 -25.51,-16.07 -25.34,-34.33 -44.49,-43.96 -14.63,35.96 -11.27,40.52 -3.78,68.79 -40.33,4.72 -21.91,-7.08 -24.68,-17.77l-8.32 -39.63c-55.99,29.71 7.2,69.93 -51.49,85.12 -7.68,-16.18 8.61,-57.47 3.24,-70.95 -64.27,-21.28 -43.35,79.09 -57.63,103.94 -12.71,22.13 -32.25,22.99 -34.86,4.92l-1.43 -8.65c2.46,-33.22 15.13,-6.69 10.89,-45.71 -43.08,4.87 -24.63,18.05 -43.26,49.31 -18.98,-18.84 -15.52,-28.78 -38.76,-41.88 -34.86,35.99 -6.29,40.98 7.55,74.98 -16.43,-6.62 -34.54,-17 -47.87,-19.32 -11.24,-1.97 -17.98,-2.28 -27.24,2.42 -17.62,8.93 -6.13,0.45 -14.3,15.85l36.49 28.04c1.08,-1.68 4.18,2.08 4.51,0.26l-47.41 21.56c-16.72,-12.8 -25.78,-24.47 -50.6,-29.64l-49.72 0.42c-0.66,-1.54 -3.3,0.71 -4.8,1.45 54.71,94.77 125.37,17.58 134.1,82.43 -25.68,4.69 -72.58,6.37 -98.06,-5.15 -32.41,-14.64 -27.27,-34.14 -78.45,-11.02 9.88,43.27 30.8,43.35 63.84,46.42 29.96,2.78 7.08,-7.75 31.92,19.63 8.46,9.33 20.31,20.3 28.66,28.34 -98.32,38.21 -57.81,-43.97 -185,-43.97 6.24,44 37.2,60.81 78.38,67.98 -16.82,31.5 -7.03,1.96 -24.8,31.57l50.88 27.4 -39.85 5.94c-0.81,-1.72 -3.73,0.48 -5.33,1.39 0.05,11.7 6.4,19.47 13.43,33.16 -35.46,-5.76 -29.76,-29.97 -55.84,-53.19 -9.97,10.26 -6.6,9.7 -9.96,15.18l-11.33 18.9c-23.71,-34.84 -69.87,-60.8 -40.72,5.67 -28.99,8.88 -35.98,5.29 -52.95,23.81 44.66,46.8 110.13,9.4 163.21,24.99 -41.05,36.57 -117.01,30.66 -121.37,101.34l43.46 11.96 29.66 -26.64c18.29,5.19 16.49,2.28 33.94,14.02 -26.6,25.96 -47.26,27.54 -76.72,44.57 4.23,30.1 21.09,35.24 35.56,57.28 -33.82,-9.07 -33.69,-15.91 -70.05,-3.01 1.54,30.55 4.21,28.09 25.62,40.42l34.66 16.7c0.99,0.53 3.87,4.13 4.57,2.74 0.7,-1.39 3.15,1.67 4.54,2.76 -66.86,22.69 -41.82,7.42 -46.97,27.03 -8.67,33 18.75,1.89 -22.82,35.99 26.99,17.26 18.39,3.08 54.68,6.48l-42.97 31.68c17.43,21.43 27.46,3.64 48.92,16.62 -5.43,25.51 -13.1,20.58 -13.39,28.23l12.96 2.92c27.37,-0.85 28.08,-18.03 51.41,-0.42 -24.69,27.4 -24.43,4.17 -43.79,35.53 15.15,15.97 37.78,20.11 59.98,23.35l-10.49 47.41c40.24,3.49 14.64,-5.88 50.82,-22.19 11.14,46.33 21.33,17.66 24.3,58.58 2.46,34 -5.45,25.6 15.75,51.25 38.21,-22.2 39.1,-30.96 39.1,-85.35 25.39,0.38 33.81,6.6 48.93,16.82 -15.09,37.06 -29.47,22.44 -32.13,70.85 72.38,13.19 45.11,-34.5 117.83,-45.86 -12.32,92.91 -86.06,36.57 -115.58,106.01 42.3,23.65 63.75,0.17 92.04,-17.13l9.74 47.68 30.03 -12.65c0.77,26.59 -16.62,44 -2.05,49.48 21.12,7.94 -0.3,0.31 10.99,-1.45 1.11,-0.17 3.31,-1.02 4.52,-1.21l9.96 -1.54c2.71,-0.16 20.72,2.4 30.97,2.31 5.86,-31.61 -1.26,-39.84 -7.69,-64.04 52.39,15.05 38.19,36.75 36.9,86.93 40.61,-5.23 28.7,-22.81 64.18,-41.71 4.89,70.51 12.01,34.8 -13.09,78.49 15.05,24.78 12.88,8.88 24.08,28.55l11.5 32.3c0.29,-1.03 0.95,3.85 2.07,5.43z"/>
  <path class="fil0" d="M2942.12 1020.35c7.84,10.19 7.12,15.26 38.89,26.02 176.7,59.87 172.64,-134.93 -38.89,-26.02z"/>
  <path class="fil1" d="M1572.5 3077.03c-21.23,8.99 -62.04,10.49 -91.16,9.82l8.66 -39.3c-3.48,-46.89 10.1,-138.17 13.93,-190.87l-3.57 -411.13c-5.94,-63.59 -22.86,-125 -27.53,-186.13l148.08 -10.08 21.14 77.53c29.78,-17.58 134.59,-150.89 313.82,-69.95 210.55,95.08 229.22,432.28 42.22,549.84 -122.48,77.01 -226.32,31.97 -329.22,-12.53l5.59 280.85 -101.96 1.95zm204.87 -715.69c-106.96,20.88 -131.65,127.76 -120.89,222.96 11.26,99.75 82.42,157.64 195.91,134.66 183.46,-37.13 136.05,-398.84 -75.02,-357.62zm-648.8 -339.13l207.95 -1.1c0.61,137.17 -6.24,277.29 -6.24,415.81 0,206.89 14.84,229.4 22.66,387.98l-206.4 3.29c3.9,-236.32 27.62,-586.17 -17.97,-805.98zm1813.55 -1001.86c211.53,-108.91 215.59,85.89 38.89,26.02 -31.77,-10.76 -31.05,-15.83 -38.89,-26.02zm-375.13 -696.41c9.68,-8.83 32.95,-23.03 42.68,3.08 10.78,28.92 -9.48,49.58 30.64,46.76 -22.46,-32.15 -24.77,-56.62 17.92,-71.27 -4.11,54.67 30.37,347.52 33.34,448.24 11.36,384.59 5.18,734.49 -40.75,1103.61 -7.35,59.1 -18.16,169.02 -32.81,217.29 -43.5,0 -93.28,2.25 -136.01,-0.17l-252.81 -7.23c-36.93,3.73 -98.58,4.19 -128.99,-4.25 40.89,-65.44 230.06,-33.89 303.66,-91.59 61.03,-47.84 57.26,-53.91 76.49,-129.8 14.16,-55.91 27.06,-7.34 31.13,-71.11 2.41,-37.66 -5.59,-65.57 3.86,-100.45 -22.96,16.92 -15.7,22.98 -48.32,26.3 -1.12,-1.58 -1.78,-6.46 -2.07,-5.43l-11.5 -32.3c-11.2,-19.67 -9.03,-3.77 -24.08,-28.55 25.1,-43.69 17.98,-7.98 13.09,-78.49 -35.48,18.9 -23.57,36.48 -64.18,41.71 1.29,-50.18 15.49,-71.88 -36.9,-86.93 6.43,24.2 13.55,32.43 7.69,64.04 -10.25,0.09 -28.26,-2.47 -30.97,-2.31l-9.96 1.54c-1.21,0.19 -3.41,1.04 -4.52,1.21 -11.29,1.76 10.13,9.39 -10.99,1.45 -14.57,-5.48 2.82,-22.89 2.05,-49.48l-30.03 12.65 -9.74 -47.68c-28.29,17.3 -49.74,40.78 -92.04,17.13 29.52,-69.44 103.26,-13.1 115.58,-106.01 -72.72,11.36 -45.45,59.05 -117.83,45.86 2.66,-48.41 17.04,-33.79 32.13,-70.85 -15.12,-10.22 -23.54,-16.44 -48.93,-16.82 0,54.39 -0.89,63.15 -39.1,85.35 -21.2,-25.65 -13.29,-17.25 -15.75,-51.25 -2.97,-40.92 -13.16,-12.25 -24.3,-58.58 -36.18,16.31 -10.58,25.68 -50.82,22.19l10.49 -47.41c-22.2,-3.24 -44.83,-7.38 -59.98,-23.35 19.36,-31.36 19.1,-8.13 43.79,-35.53 -23.33,-17.61 -24.04,-0.43 -51.41,0.42l-12.96 -2.92c0.29,-7.65 7.96,-2.72 13.39,-28.23 -21.46,-12.98 -31.49,4.81 -48.92,-16.62l42.97 -31.68c-36.29,-3.4 -27.69,10.78 -54.68,-6.48 41.57,-34.1 14.15,-2.99 22.82,-35.99 5.15,-19.61 -19.89,-4.34 46.97,-27.03 -1.39,-1.09 -3.84,-4.15 -4.54,-2.76 -0.7,1.39 -3.58,-2.21 -4.57,-2.74l-34.66 -16.7c-21.41,-12.33 -24.08,-9.87 -25.62,-40.42 36.36,-12.9 36.23,-6.06 70.05,3.01 -14.47,-22.04 -31.33,-27.18 -35.56,-57.28 29.46,-17.03 50.12,-18.61 76.72,-44.57 -17.45,-11.74 -15.65,-8.83 -33.94,-14.02l-29.66 26.64 -43.46 -11.96c4.36,-70.68 80.32,-64.77 121.37,-101.34 -53.08,-15.59 -118.55,21.81 -163.21,-24.99 16.97,-18.52 23.96,-14.93 52.95,-23.81 -29.15,-66.47 17.01,-40.51 40.72,-5.67l11.33 -18.9c3.36,-5.48 -0.01,-4.92 9.96,-15.18 26.08,23.22 20.38,47.43 55.84,53.19 -7.03,-13.69 -13.38,-21.46 -13.43,-33.16 1.6,-0.91 4.52,-3.11 5.33,-1.39l39.85 -5.94 -50.88 -27.4c17.77,-29.61 7.98,-0.07 24.8,-31.57 -41.18,-7.17 -72.14,-23.98 -78.38,-67.98 127.19,0 86.68,82.18 185,43.97 -8.35,-8.04 -20.2,-19.01 -28.66,-28.34 -24.84,-27.38 -1.96,-16.85 -31.92,-19.63 -33.04,-3.07 -53.96,-3.15 -63.84,-46.42 51.18,-23.12 46.04,-3.62 78.45,11.02 25.48,11.52 72.38,9.84 98.06,5.15 -8.73,-64.85 -79.39,12.34 -134.1,-82.43 1.5,-0.74 4.14,-2.99 4.8,-1.45l49.72 -0.42c24.82,5.17 33.88,16.84 50.6,29.64l47.41 -21.56c-0.33,1.82 -3.43,-1.94 -4.51,-0.26l-36.49 -28.04c8.17,-15.4 -3.32,-6.92 14.3,-15.85 9.26,-4.7 16,-4.39 27.24,-2.42 13.33,2.32 31.44,12.7 47.87,19.32 -13.84,-34 -42.41,-38.99 -7.55,-74.98 23.24,13.1 19.78,23.04 38.76,41.88 18.63,-31.26 0.18,-44.44 43.26,-49.31 4.24,39.02 -8.43,12.49 -10.89,45.71l1.43 8.65c2.61,18.07 22.15,17.21 34.86,-4.92 14.28,-24.85 -6.64,-125.22 57.63,-103.94 5.37,13.48 -10.92,54.77 -3.24,70.95 58.69,-15.19 -4.5,-55.41 51.49,-85.12l8.32 39.63c2.77,10.69 -15.65,22.49 24.68,17.77 -7.49,-28.27 -10.85,-32.83 3.78,-68.79 19.15,9.63 18.98,27.89 44.49,43.96 18.24,11.49 23.19,16.48 41.28,5.2 -9.88,-23.2 -20.73,-34.88 -22.58,-57.07zm-1897.22 3062.72l1586.75 0c38.56,-122.24 98.88,-265.1 145.42,-411.09l33.55 -107.57c11.16,-29.4 -10.66,-14.41 18.42,-25.95 -86.65,17.07 -158.88,-8.97 -236.74,-19.95l-0.03 -123.63c27.95,6.95 287.72,89.58 262.35,-30.59 -13.66,-64.68 -264.01,-108.79 -273.45,-267.65 -11.99,-201.97 301.96,-159.06 381.89,-156.43 9.65,-53.37 28.95,-120.27 29.78,-172.42 140.66,-0.17 75.84,-28.88 290.55,-4.88 81.86,9.15 239.12,21.12 314.7,-5.05 -16.79,-90.77 -202.78,5.74 -293.78,-101.58 -17.18,-20.27 -64.06,-96.62 -70.82,-128.03 -10.28,-47.82 -12.22,-141.9 5.68,-182.18 24.15,-24.27 430.18,37.39 373.04,-93.41 -12.91,-29.55 -26.53,-26.31 -21.12,-68.57 4.94,-38.51 19.47,-23.52 33.48,-59.39 -32.07,-35.29 -50.65,-7.59 -72.83,-41.38 28.23,-21.12 52.12,-4.37 90.26,-40.22 -3.29,-33.22 -31.21,-76.6 -28.41,-85.92 19.03,-36.09 48.41,-12.68 80.72,-60.72 9.12,-29.92 -73.59,-120.89 -97.31,-151.77 -19.02,-24.76 -36.23,-58.13 -9.26,-95.88 28.38,-39.73 33.69,-17.9 39.07,-94.42 3.44,-49.09 -2.23,-66.86 -6.61,-111.85 -4.87,-49.99 6.5,7 9.45,-46.63 1.64,-29.92 -5.09,-15.43 -3.67,-55.7 1.85,-52.84 -7.65,-19.91 -14.97,-59.72 -12.5,-67.97 -4.47,-10.8 -20.78,-63.56 -9.4,-30.4 6,-26.95 -41.19,-20.73 2.05,-46.19 -9.26,-41.25 -41.33,-39.54l1.42 -25.56 -32.61 10.73 -9.12 -39.18c-32.65,-0.51 -13.71,3.19 -47.07,17.26 10.69,-29.14 10.28,-24.74 -6.95,-45.19 -30.26,8.49 -2.34,13.78 -26.78,8.61 -24.51,-5.19 11.81,-16.14 -31.29,4.49l9.17 -35.31 -36.73 4.9c13.1,-21.03 24.52,-25.69 -7.5,-39.19 -39.76,28.15 8.64,29.08 -50.04,44.51 -3.11,-62.47 58,3.67 14.71,-55.72 -53.11,36.74 -45.78,56.77 -63.79,83.45 -14.71,-70.29 26.56,-12.84 37.1,-94.83 -82.11,20.01 -49.92,29.1 -59.95,64.2 -22.87,3.83 -13.2,5.25 -30.37,-4.46 10.5,-23.66 45.68,-40.01 26.05,-68.9l-28.17 27.99c-0.69,-1.28 -1.19,-5.11 -1.37,-4.14 -1.42,7.65 2,-23.88 -23.2,-29.28 -11.55,26.04 -6.36,50.33 -7.82,80.51 -31.03,-17.04 -12.95,-1.31 -14.24,-42.27l-2.79 -19.01c-0.33,-1.66 -1.03,-4.43 -2.07,-6.43 -73.05,17.58 -24.4,46.13 -53.21,90.54 -17.18,-26.37 6.83,-27.68 -0.03,-71.4 -25.8,-23.08 -31.03,-11.7 -34.22,-51.93 -2.56,-32.33 -6.23,-60.57 -10.53,-94.48 -7.94,-62.57 -12.33,-101.97 -23.47,-170.16l-1947.94 0 0 3386.66z"/>
  <path class="fil1" d="M2533.58 2511.26l32.74 -156.05c-70.29,2.7 -155.95,-35.5 -199.38,30.18 6.02,46.28 31.28,53.77 69.11,75.42 32.32,18.5 65.4,37.79 97.53,50.45z"/>
  <path class="fil1" d="M2437.6 539.97c18.13,-8.72 33.45,-21.1 34.88,-47.6 1.7,-31.63 -19.17,-28.57 -38.53,-39.56 -30.18,35 -21.95,53.75 3.65,87.16z"/>
  <path class="fil1" d="M2217.21 536.5c7.07,43.54 48.61,55.12 83,44.41 -0.09,-29.56 7.24,-31.98 -24.7,-43.39 -21.03,-7.52 -36.9,-5.4 -58.3,-1.02z"/>
  <path class="fil1" d="M2049.59 846.12c7.95,4.3 7.27,6.08 20.24,6.08 36.92,0 63.19,-30.91 68.22,-67.57 -66.02,12.77 -51.91,24.93 -88.46,61.49z"/>
  <path class="fil1" d="M1994.49 1001c0.11,0.07 3.97,28.89 48.16,-4.5 16.7,-12.61 24.51,-22.82 17.26,-51.12 -30.71,7.23 -72.82,20.71 -65.42,55.62z"/>
  <path class="fil1" d="M2311.65 1391.75c-11.52,36.2 21.99,48.08 51.01,57.41 9.87,-27.24 5.2,-49.84 -25.88,-59.9 -35.43,-11.47 -22.07,1.04 -25.13,2.49z"/>
  <path class="fil1" d="M1970.2 1163.24l35.19 16.82c16.69,-18.15 33.71,-34.9 44.5,-60.99 -47.32,6.6 -59.26,17.7 -79.69,44.17z"/>
  <path class="fil1" d="M2138.26 1295.32c41.98,5.92 73.98,-15.89 75.57,-46.7 -0.67,-0.15 -2.8,-20.5 -46.06,12.6 -15.06,11.52 -21.66,18.98 -29.51,34.1z"/>
  <path class="fil2" d="M1572.5 3077.03l-85.43 4.83 2.93 -34.31 -8.66 39.3c29.12,0.67 69.93,-0.83 91.16,-9.82z"/>
 </g>
</svg>
