<?xml version="1.0" encoding="UTF-8"?>
<!DOCTYPE svg PUBLIC "-//W3C//DTD SVG 1.1//EN" "http://www.w3.org/Graphics/SVG/1.1/DTD/svg11.dtd">
<!-- Creator: CorelDRAW 2017 -->
<svg xmlns="http://www.w3.org/2000/svg" xml:space="preserve" width="37.17mm" height="8.34mm" version="1.1" style="shape-rendering:geometricPrecision; text-rendering:geometricPrecision; image-rendering:optimizeQuality; fill-rule:evenodd; clip-rule:evenodd"
viewBox="0 0 3717 834"
 xmlns:xlink="http://www.w3.org/1999/xlink">
 <defs>
  <style type="text/css">
   <![CDATA[
    .str0 {stroke:#06A7F8;stroke-width:7.62;stroke-miterlimit:22.9256}
    .fil2 {fill:#013D79}
    .fil1 {fill:#06A7F8}
    .fil0 {fill:#24ABE2}
   ]]>
  </style>
 </defs>
 <g id="Capa_x0020_1">
  <metadata id="CorelCorpID_0Corel-Layer"/>
  <g id="_2568048393712">
   <path class="fil0" d="M2258.64 204.96c174.67,0 316.26,140.82 316.26,314.51 0,173.71 -141.59,314.52 -316.26,314.52 -174.65,0 -316.23,-140.81 -316.23,-314.52 0,-173.69 141.58,-314.51 316.23,-314.51zm0.02 157.25c87.33,0 158.12,70.41 158.12,157.26 0,86.85 -70.79,157.26 -158.12,157.26 -87.33,0 -158.12,-70.41 -158.12,-157.26 0,-86.85 70.79,-157.26 158.12,-157.26z"/>
   <polygon class="fil1 str0" points="1865.37,455.14 1860.01,455.14 1860.01,460.51 1865.37,460.51 "/>
   <polygon class="fil2" points="1062.68,0.01 1526.79,0.01 1526.79,207.23 1396.12,207.23 1400.59,316.07 1259.76,581.29 1180.59,581.27 1181.41,207.23 1062.68,207.23 "/>
   <polygon class="fil0" points="1949.87,236.14 1754.9,236.14 1706.15,536.41 1647.65,236.14 1491.66,236.14 1440.97,540.31 1417.58,433.07 1299.59,625.38 1333.73,774.28 1515.06,774.28 1573.56,520.81 1622.31,774.28 1809.49,774.28 "/>
   <path class="fil2" d="M582.67 0.15l-202.01 0 -4.97 308.65 -1.85 0 -144.18 -308.65 -229.66 0 0 581.2 202 0 -4.6 -271.45 167.59 271.45 217.68 0 0 -581.2zm469.73 433.09l-195.43 0 0 -50.77 169.61 0 0 -155.26 -169.61 0 0 -41.36 181.59 0 0 -185.7 -381.39 0 0 581.2 395.23 0 0 -148.11z"/>
   <polygon class="fil0" points="3538.67,477.54 3710.89,221.46 3472.28,221.46 3371.84,434.89 3369.21,453.69 3369.21,221.46 3159.52,221.46 3159.52,749.43 3369.21,749.43 3369.21,580.72 3479.14,749.43 3717.01,749.43 "/>
   <path class="fil0" d="M2620.03 231.13l309.69 0c187.71,63.05 185.88,244.25 53.7,325.79l125.31 209.44 -214.82 0 -85.92 -164.68 -1.79 164.68 -186.17 0 0 -535.23zm180.8 139.63c67.53,-2.91 156.38,92.87 0,114.56l0 -114.56z"/>
  </g>
 </g>
</svg>
