<?xml version="1.0" encoding="UTF-8"?>
<!DOCTYPE svg PUBLIC "-//W3C//DTD SVG 1.1//EN" "http://www.w3.org/Graphics/SVG/1.1/DTD/svg11.dtd">
<!-- Creator: CorelDRAW 2017 -->
<svg xmlns="http://www.w3.org/2000/svg" xml:space="preserve" width="18mm" height="18mm" version="1.1" style="shape-rendering:geometricPrecision; text-rendering:geometricPrecision; image-rendering:optimizeQuality; fill-rule:evenodd; clip-rule:evenodd"
viewBox="0 0 1800 1800"
 xmlns:xlink="http://www.w3.org/1999/xlink">
 <defs>
  <style type="text/css">
   <![CDATA[
    .str0 {stroke:#24ABE2;stroke-width:79.37;stroke-miterlimit:22.9256}
    .str2 {stroke:#64CDF4;stroke-width:79.37;stroke-miterlimit:22.9256}
    .str1 {stroke:#24ABE2;stroke-width:105.83;stroke-miterlimit:22.9256}
    .fil0 {fill:#013D79}
    .fil7 {fill:#0174B2}
    .fil4 {fill:#033955}
    .fil3 {fill:#31C5EA}
    .fil9 {fill:#80D4F8}
    .fil6 {fill:#83D3F5}
    .fil10 {fill:#89D8F9}
    .fil8 {fill:#CBECFC}
    .fil5 {fill:#CDEDFC}
    .fil2 {fill:#F9F9F9}
    .fil1 {fill:#FEFEFE}
    .fil11 {fill:#FEFEFE;fill-opacity:0.501961}
   ]]>
  </style>
 </defs>
 <g id="Capa_x0020_1">
  <metadata id="CorelCorpID_0Corel-Layer"/>
  <g id="_2192627287408">
   <path class="fil0" d="M900.01 25.71c485.5,0 879.08,391.43 879.08,874.29 0,482.86 -393.58,874.29 -879.08,874.29 -485.51,0 -879.09,-391.43 -879.09,-874.29 0,-482.86 393.58,-874.29 879.09,-874.29z"/>
   <path class="fil1 str0" d="M900.01 82.33c453.03,0 820.29,366.08 820.29,817.67 0,451.58 -367.26,817.66 -820.29,817.66 -453.04,0 -820.31,-366.08 -820.31,-817.66 0,-451.59 367.27,-817.67 820.31,-817.67z"/>
   <path class="fil2" d="M284.03 1248.46l6.9 18.7c58.77,102.58 140.64,202.99 243.2,266.66 243.56,151.2 549.79,162.6 787.21,1.18 90.74,-61.69 202.6,-162.8 243.88,-269.22l-6.93 -30.24c-38.16,54.46 -35.23,76.65 -102.78,152.66 -233.78,263.05 -611.19,320.64 -908.25,126.64 -45.62,-29.8 -70.76,-49.3 -105.11,-85.9 -45.03,-47.97 -91.11,-85.45 -133.29,-179.69 -13.58,-7.55 -2.71,7.1 -14.22,-19.51 -3.59,-8.32 -6.4,-15.35 -9.95,-21.07l-20.5 -1.29 19.84 41.08z"/>
   <path class="fil2" d="M1490.79 1266.39c-15.66,15.09 -67.58,93.1 -98.55,124.42 -113.14,114.4 -279.92,189.31 -458.96,191.31 -179.15,2 -279.23,-51.32 -408.26,-140.49 -41.21,-28.49 -135.36,-130.4 -149.33,-174.6l-27.41 4.38c33.95,80.53 154.71,190.56 230.57,235.54 231.23,137.09 487.87,130.65 716.94,-9.81 75.13,-46.06 183.61,-153.89 221.23,-237.58 -14.72,-5.54 -8.45,-2.04 -26.23,6.83z"/>
   <path class="fil1 str1" d="M900.01 132.64c425.16,0 769.83,343.56 769.83,767.36 0,423.8 -344.67,767.36 -769.83,767.36 -425.17,0 -769.84,-343.56 -769.84,-767.36 0,-423.8 344.67,-767.36 769.84,-767.36z"/>
   <path class="fil1 str2" d="M900.01 187.77c394.61,0 714.51,318.87 714.51,712.22 0,393.35 -319.9,712.22 -714.51,712.22 -394.62,0 -714.52,-318.87 -714.52,-712.22 0,-393.35 319.9,-712.22 714.52,-712.22z"/>
   <path class="fil3" d="M900.01 241.24c364.98,0 660.87,294.94 660.87,658.76 0,363.82 -295.89,658.75 -660.87,658.75 -365,0 -660.88,-294.93 -660.88,-658.75 0,-363.82 295.88,-658.76 660.88,-658.76z"/>
   <path class="fil4" d="M900.01 678.81c-122.16,0 -221.19,99.03 -221.19,221.19 0,122.15 99.03,221.19 221.19,221.19 122.14,0 221.18,-99.04 221.18,-221.19 0,-122.16 -99.04,-221.19 -221.18,-221.19z"/>
   <path class="fil5" d="M581.55 569.4l-95.26 -100.17c107.19,-100.86 248.15,-158.37 395.49,-161.38l2.85 139.43c-101.03,8.97 -202.05,35.81 -303.08,122.12z"/>
   <path class="fil5" d="M1210.12 573.18l95.25 -100.17c-107.19,-100.86 -248.14,-158.37 -395.47,-161.38l-2.86 139.43c101.02,8.97 202.04,35.81 303.08,122.12z"/>
   <path class="fil6" d="M1280.89 1163.27l99.91 69.2c-108.2,162.43 -288.25,259.67 -480.79,259.67 -263.25,0 -493.64,-180.43 -561.55,-439.8l117.32 -31.95c215.93,396.41 491.28,428.01 825.11,142.88z"/>
   <path class="fil7" d="M458.47 991.04l-128.02 26.56c-7.76,-38.89 -11.67,-78.48 -11.67,-118.17 0,-146.04 52.87,-286.93 148.47,-395.67l98.23 89.81c-94.17,95.27 -147.67,216.41 -107.01,397.47z"/>
   <path class="fil7" d="M1246.93 595.65l91.21 -81.08c92.25,107.94 143.08,241.69 143.08,384.86 0,105.86 -27.8,209.8 -80.52,301l-111.87 -66.23c101.06,-217.86 77.59,-394.21 -41.9,-538.55z"/>
   <path class="fil8" d="M701.92 680.01l-84.32 -86.18c72.08,-67.61 165.68,-107.17 264.04,-111.56l5.22 118.92c-70.59,2.12 -128.18,25.98 -184.94,78.82z"/>
   <path class="fil9" d="M598.7 885.09l-112.81 -5.43c4.73,-98.44 43.79,-191.99 110.28,-264.2l79.22 74.18c-46.37,59.07 -76.42,122.53 -76.69,195.45z"/>
   <path class="fil9" d="M635.53 1033.99l-105.94 53.71c-25.84,-51.82 -40.71,-108.49 -43.65,-166.41l118.02 -6.09c-3.17,44.15 7.08,83.84 31.57,118.79z"/>
   <path class="fil6" d="M741.75 1152.19l-63.36 101.02c-56.69,-36.13 -103.83,-85.61 -137.39,-144.18l103.39 -60.23c20.2,40.59 49.5,76.63 97.36,103.39z"/>
   <path class="fil6" d="M886.25 1317.73c-61.22,-2.05 -121.23,-17.76 -175.71,-45.98l55.02 -108c38.99,28.03 81.32,35.98 124.92,36.35l-4.23 117.63z"/>
   <path class="fil5" d="M1098.09 680.01l84.32 -86.18c-72.08,-67.61 -165.68,-107.17 -264.03,-111.56l-5.22 118.92c70.58,2.12 128.17,25.98 184.93,78.82z"/>
   <path class="fil9" d="M1201.31 885.09l112.81 -5.43c-4.73,-98.44 -43.79,-191.99 -110.28,-264.2l-79.22 74.18c46.37,59.07 76.42,122.53 76.69,195.45z"/>
   <path class="fil9" d="M1164.48 1033.99l105.94 53.71c25.84,-51.82 40.71,-108.49 43.65,-166.41l-118.02 -6.09c3.17,44.15 -7.08,83.84 -31.57,118.79z"/>
   <path class="fil10" d="M1058.26 1152.19l63.36 101.02c56.69,-36.13 103.83,-85.61 137.39,-144.18l-103.39 -60.23c-20.2,40.59 -49.5,76.63 -97.36,103.39z"/>
   <path class="fil6" d="M913.77 1317.73c61.21,-2.05 121.22,-17.76 175.7,-45.98l-55.02 -108c-38.99,28.03 -81.32,35.98 -124.91,36.35l4.23 117.63z"/>
   <path class="fil11" d="M749.96 681.73c47.69,0 86.34,37.61 86.34,84.01 0,46.4 -38.65,84.01 -86.34,84.01 -47.68,0 -86.34,-37.61 -86.34,-84.01 0,-46.4 38.66,-84.01 86.34,-84.01z"/>
   <path class="fil1" d="M1026.68 925.91c28.33,0 51.3,22.35 51.3,49.91 0,27.57 -22.97,49.92 -51.3,49.92 -28.33,0 -51.29,-22.35 -51.29,-49.92 0,-27.56 22.96,-49.91 51.29,-49.91z"/>
   <path class="fil3" d="M777.27 1091.8l10.26 6.92c0.53,13.22 -1.79,3.8 7.26,7.14 -4.21,-30.59 0.76,-14.58 21.29,-20.06l29.72 -5.78 9.1 19.85c11.63,-10.3 0.82,-7.8 20.72,-10.78 10.19,16.45 13.09,19.13 21.92,33.52l-0.08 -0.62 3.97 0.03c-2.42,-12.38 -5.89,-34.61 -6.71,-49.22l-1.48 -34.1 -13.32 32.93c-0.4,1.37 -1.76,5.73 -2.07,4.91 -0.31,-0.79 -1.32,3.25 -2.23,4.74 -19.85,-22.04 -3.63,-12.86 -6.71,-42.69 -2.17,-21.05 6.25,-0.4 -5.22,-11.63 -21.82,58.59 4.55,36.07 -23.86,46.83 -8.45,-20.92 -2.45,-7.53 0.86,-23.55 5.75,-27.8 3.61,-19.79 -0.86,-27.72 -6.39,12.06 -10.38,27.06 -17.04,39.5 -11.33,21.16 -10.98,17.83 -29.39,18.3 6.94,-13.3 32.54,-52.21 28.54,-70 -26.21,24.19 -32.81,69.56 -44.67,81.48z"/>
   <path class="fil3" d="M1026.95 1095.76l-10.26 6.92c-0.53,13.22 1.79,3.79 -7.26,7.13 4.2,-30.59 -0.76,-14.57 -21.29,-20.06l-29.72 -5.78 -9.11 19.85c-11.61,-10.3 -0.81,-7.79 -20.7,-10.78 -10.19,16.45 -13.09,19.13 -21.92,33.53l0.08 -0.63 -3.98 0.03c2.43,-12.38 5.9,-34.61 6.72,-49.21l1.48 -34.11 13.31 32.94c0.4,1.36 1.76,5.72 2.08,4.91 0.31,-0.8 1.31,3.25 2.23,4.73 19.84,-22.04 3.63,-12.86 6.7,-42.68 2.17,-21.06 -6.24,-0.41 5.23,-11.63 21.81,58.58 -4.56,36.07 23.85,46.83 8.44,-20.93 2.45,-7.54 -0.86,-23.55 -5.75,-27.81 -3.61,-19.8 0.86,-27.73 6.39,12.06 10.38,27.06 17.04,39.51 11.33,21.15 10.98,17.82 29.39,18.29 -6.95,-13.29 -32.54,-52.21 -28.54,-70 26.21,24.19 32.81,69.56 44.67,81.49z"/>
   <path class="fil7" d="M1238.73 1197.12l113.31 75.49c-7.42,12.05 -6.66,13.35 -18.17,23.35l-120.24 -79.58c13.55,-8.72 13.6,-8.49 25.1,-19.26z"/>
   <path class="fil7" d="M1195.14 1229.12l121.42 82.04c-7.43,12.05 -18.05,21.27 -29.57,31.27l-109.07 -99.59c13.54,-8.73 5.72,-2.95 17.22,-13.72z"/>
  </g>
 </g>
</svg>
