<?xml version="1.0" encoding="UTF-8"?>
<!DOCTYPE svg PUBLIC "-//W3C//DTD SVG 1.1//EN" "http://www.w3.org/Graphics/SVG/1.1/DTD/svg11.dtd">
<!-- Creator: CorelDRAW 2017 -->
<svg xmlns="http://www.w3.org/2000/svg" xml:space="preserve" width="50.7998mm" height="33.8666mm" version="1.1" style="shape-rendering:geometricPrecision; text-rendering:geometricPrecision; image-rendering:optimizeQuality; fill-rule:evenodd; clip-rule:evenodd"
viewBox="0 0 5079.98 3386.66"
 xmlns:xlink="http://www.w3.org/1999/xlink">
 <defs>
  <style type="text/css">
   <![CDATA[
    .fil0 {fill:#004885}
    .fil1 {fill:#0092AC}
    .fil3 {fill:#373435;fill-rule:nonzero}
    .fil2 {fill:#373435;fill-rule:nonzero}
   ]]>
  </style>
 </defs>
 <g id="Capa_x0020_1">
  <metadata id="CorelCorpID_0Corel-Layer"/>
  <path class="fil0" d="M1580.75 1591.12l160.99 -0.21 -0.88 -481.17 128.22 475.93c168.03,2.87 130.9,37.7 198.66,-221.15 20.93,-79.94 35.47,-170.09 65.16,-240.63l4.82 466.93 161.44 -3.55 -0.75 -697.8 -259.73 -4.03c-53.07,182.46 -66.6,341.34 -102.02,393.21l-93.43 -394.36 -256.14 0.57 -6.34 706.26z"/>
  <path class="fil1" d="M3351.76 1019.14c82.93,2.29 133.18,-9.41 172.42,43.89 59.08,80.25 59.08,256.46 -2.4,336.71 -43.35,56.59 -88.68,41.22 -172.59,42.15l2.57 -422.75zm-191.66 562.36c225.89,13.63 549.23,41.34 601.38,-279.91 19.84,-122.21 -26.35,-232.18 -84.56,-298.45 -118.31,-134.68 -326.44,-108.84 -516.69,-108.01l-0.13 686.37z"/>
  <path class="fil1" d="M4208.88 1450.93c-123.69,7.24 -151.42,-96 -151.2,-217.67 0.21,-119.47 28.46,-222.77 149.28,-217.67 97.29,118.22 99.43,317.76 1.92,435.34zm-94.5 -560.12c-418.31,119.41 -259.54,788.61 127.39,690.15 146.87,-37.38 264.51,-220.06 228.04,-416.73 -28.15,-151.84 -167.74,-327 -355.43,-273.42z"/>
  <path class="fil0" d="M1459.6 1556.46l1.55 -369.43 -242.63 2.13 -0.04 117.66c90.97,19.02 87.5,-37.07 84.45,153.91 -385.76,-28.26 -290.34,-567.23 140.12,-397.82l-0.57 -150.69c-142.43,-20.05 -271.6,-42.72 -381.98,30.01 -298.03,196.35 -195.18,779.94 399.1,614.23z"/>
  <path class="fil0" d="M2738 1050.41l37.89 113.62c11.26,46.85 22.48,88.27 31.5,136.1l-135.79 -0.27 66.4 -249.45zm-316.7 536.84l174.06 -1.57 35.58 -154.29 214.96 0.93 41.95 152.21 169.8 1.67 -213.9 -702.09 -205.34 1.54 -217.11 701.6z"/>
  <path class="fil1" d="M4606.54 1423.18c-10.98,56.95 -22.56,104.31 -3.9,152.14 195.99,42.87 408.88,13.07 428.39,-175.26 28.84,-278.49 -343.21,-185.32 -263.87,-356.71 66.83,-51.7 128.9,-20.18 208.39,1.44l1.64 -135.17c-208.62,-92.81 -496.85,55.8 -372.53,275.6 52.28,92.42 202.24,96.49 236.6,151.78 95.88,154.29 -169.41,112.74 -234.72,86.18z"/>
  <path class="fil0" d="M310.09 1439.79c-102.28,27.61 -137.96,12.97 -233.38,-16.92l-11.79 148.98c432.51,115.28 556.85,-240.01 333.77,-373.08 -97.34,-58.06 -178.82,-17.83 -171.13,-152.05 94.87,-59.37 120.73,-23.58 224.06,-4.03 2.13,-82.07 42.26,-183.8 -176.42,-160.41 -256.69,27.46 -300.05,273.46 -106.13,377.18 105.96,56.68 196.59,34.38 141.02,180.33z"/>
  <polygon class="fil0" points="612.36,1593.47 796.06,1594.68 794.64,886.57 619.67,886.6 "/>
  <g id="_1231850140928">
   <path class="fil2" d="M60.6 2109.78l0 -380.64 115.45 0 68.22 259.61 67.43 -259.61 115.71 0 0 380.64 -71.23 0 -0.27 -299.66 -75.05 299.66 -74.07 0 -74.69 -299.66 -0.27 299.66 -71.23 0zm443.9 0l0 -380.64 281.76 0 0 64.33 -204.68 0 0 84.52 190.32 0 0 64.33 -190.32 0 0 103.13 212.12 0 0 64.33 -289.2 0zm104.73 -415.2l36.15 -77.61 81.34 0 -71.77 77.61 -45.72 0zm211.32 415.2l131.39 -198.47 -119.17 -182.17 89.76 0 74.96 113.32 74.96 -113.32 89.93 0 -119.44 182.26 131.13 198.38 -92.32 0 -84.35 -128.92 -84.44 128.92 -92.41 0zm390.47 0l0 -380.64 77.09 0 0 380.64 -77.09 0zm393.84 -140.35l74.43 22.86c-11.43,41.91 -30.48,73.01 -57.06,93.39 -26.58,20.29 -60.25,30.48 -101.1,30.48 -50.59,0 -92.15,-17.28 -124.75,-51.83 -32.52,-34.56 -48.82,-81.78 -48.82,-141.77 0,-63.35 16.39,-112.61 49.08,-147.7 32.7,-35.09 75.76,-52.63 129.1,-52.63 46.6,0 84.44,13.82 113.5,41.38 17.36,16.3 30.3,39.69 38.98,70.26l-76.02 18.07c-4.52,-19.67 -13.91,-35.26 -28.17,-46.69 -14.36,-11.43 -31.72,-17.1 -52.1,-17.1 -28.27,0 -51.22,10.1 -68.76,30.39 -17.63,20.2 -26.4,52.99 -26.4,98.35 0,48.02 8.68,82.31 25.96,102.69 17.36,20.47 39.87,30.66 67.6,30.66 20.47,0 38.1,-6.47 52.81,-19.49 14.71,-13.03 25.34,-33.41 31.72,-61.32zm124.49 -47.67c0,-38.8 5.85,-71.41 17.45,-97.81 8.6,-19.41 20.47,-36.86 35.45,-52.28 14.97,-15.42 31.36,-26.85 49.17,-34.38 23.75,-10.01 51.12,-15.06 82.14,-15.06 56.17,0 101,17.45 134.76,52.27 33.67,34.91 50.51,83.38 50.51,145.49 0,61.58 -16.75,109.78 -50.15,144.51 -33.41,34.82 -78.15,52.19 -134.06,52.19 -56.62,0 -101.72,-17.28 -135.12,-51.92 -33.4,-34.56 -50.15,-82.22 -50.15,-143.01zm79.21 -2.57c0,43.15 10.01,75.85 29.95,98.18 19.93,22.24 45.28,33.4 75.93,33.4 30.75,0 55.91,-11.08 75.67,-33.14 19.67,-22.15 29.5,-55.29 29.5,-99.5 0,-43.68 -9.56,-76.29 -28.79,-97.73 -19.14,-21.53 -44.57,-32.25 -76.38,-32.25 -31.72,0 -57.32,10.9 -76.73,32.61 -19.4,21.79 -29.15,54.58 -29.15,98.43z"/>
   <path class="fil3" d="M45.49 2503.14l0 -222.04 94.43 0c23.72,0 40.98,2.02 51.73,6 10.81,3.98 19.39,11.06 25.85,21.24 6.46,10.23 9.71,21.86 9.71,34.99 0,16.69 -4.86,30.44 -14.62,41.3 -9.77,10.85 -24.35,17.67 -43.78,20.52 9.66,5.63 17.62,11.83 23.88,18.6 6.3,6.77 14.78,18.82 25.43,36.08l27.08 43.31 -53.6 0 -32.15 -48.48c-11.52,-17.21 -19.43,-28.07 -23.72,-32.56 -4.24,-4.45 -8.73,-7.55 -13.49,-9.2 -4.81,-1.66 -12.35,-2.48 -22.69,-2.48l-9.1 0 0 92.72 -44.96 0zm44.96 -128.08l33.19 0c21.5,0 34.88,-0.93 40.26,-2.73 5.32,-1.81 9.56,-4.97 12.56,-9.41 3.05,-4.45 4.55,-10.03 4.55,-16.7 0,-7.49 -2.02,-13.49 -6,-18.14 -3.98,-4.6 -9.61,-7.49 -16.85,-8.68 -3.67,-0.52 -14.57,-0.78 -32.72,-0.78l-34.99 0 0 56.44zm178.99 128.08l0 -222.04 164.36 0 0 37.52 -119.4 0 0 49.31 111.02 0 0 37.53 -111.02 0 0 60.16 123.74 0 0 37.52 -168.7 0zm195.05 -71.95l43.73 -4.34c2.64,14.63 7.91,25.33 15.92,32.2 8.01,6.88 18.81,10.29 32.4,10.29 14.37,0 25.23,-3.05 32.51,-9.15 7.29,-6.1 10.96,-13.23 10.96,-21.4 0,-5.27 -1.55,-9.71 -4.6,-13.44 -3.05,-3.67 -8.42,-6.87 -16.07,-9.56 -5.22,-1.86 -17.11,-5.06 -35.72,-9.71 -23.93,-6 -40.72,-13.34 -50.39,-22.07 -13.59,-12.25 -20.36,-27.19 -20.36,-44.81 0,-11.32 3.2,-21.97 9.56,-31.84 6.41,-9.87 15.61,-17.37 27.65,-22.54 12.04,-5.17 26.51,-7.75 43.57,-7.75 27.76,0 48.69,6.15 62.69,18.5 14.06,12.36 21.4,28.79 22.13,49.41l-44.97 1.55c-1.91,-11.47 -6,-19.69 -12.25,-24.7 -6.25,-5.01 -15.66,-7.55 -28.17,-7.55 -12.92,0 -23.05,2.69 -30.34,8.07 -4.7,3.46 -7.08,8.06 -7.08,13.85 0,5.27 2.22,9.77 6.67,13.49 5.63,4.8 19.33,9.77 41.09,14.93 21.76,5.12 37.83,10.5 48.22,15.97 10.44,5.54 18.61,13.03 24.5,22.59 5.89,9.56 8.84,21.35 8.84,35.35 0,12.72 -3.52,24.66 -10.6,35.77 -7.08,11.11 -17.05,19.38 -29.97,24.76 -12.93,5.42 -29.05,8.11 -48.33,8.11 -28.07,0 -49.62,-6.46 -64.66,-19.43 -15.04,-12.92 -23.98,-31.79 -26.93,-56.55zm218.63 71.95l0 -222.04 164.36 0 0 37.52 -119.4 0 0 49.31 111.02 0 0 37.53 -111.02 0 0 60.16 123.74 0 0 37.52 -168.7 0zm406.86 0l-48.43 0 -19.17 -50.55 -89.06 0 -18.45 50.55 -47.55 0 86.21 -222.04 47.5 0 88.95 222.04zm-82.18 -88.07l-30.86 -82.18 -29.97 82.18 60.83 0zm106.11 88.07l0 -222.04 94.43 0c23.72,0 40.98,2.02 51.73,6 10.81,3.98 19.39,11.06 25.85,21.24 6.46,10.23 9.71,21.86 9.71,34.99 0,16.69 -4.86,30.44 -14.62,41.3 -9.77,10.85 -24.35,17.67 -43.78,20.52 9.66,5.63 17.62,11.83 23.88,18.6 6.3,6.77 14.78,18.82 25.43,36.08l27.08 43.31 -53.6 0 -32.15 -48.48c-11.52,-17.21 -19.43,-28.07 -23.72,-32.56 -4.24,-4.45 -8.73,-7.55 -13.49,-9.2 -4.81,-1.66 -12.35,-2.48 -22.69,-2.48l-9.1 0 0 92.72 -44.96 0zm44.96 -128.08l33.19 0c21.5,0 34.88,-0.93 40.26,-2.73 5.32,-1.81 9.56,-4.97 12.56,-9.41 3.05,-4.45 4.55,-10.03 4.55,-16.7 0,-7.49 -2.02,-13.49 -6,-18.14 -3.98,-4.6 -9.61,-7.49 -16.85,-8.68 -3.67,-0.52 -14.57,-0.78 -32.72,-0.78l-34.99 0 0 56.44zm321.02 46.21l43.41 13.34c-6.66,24.44 -17.78,42.58 -33.28,54.47 -15.51,11.84 -35.15,17.78 -58.97,17.78 -29.52,0 -53.76,-10.08 -72.78,-30.23 -18.96,-20.16 -28.47,-47.71 -28.47,-82.7 0,-36.96 9.56,-65.69 28.63,-86.16 19.07,-20.47 44.19,-30.7 75.3,-30.7 27.19,0 49.26,8.06 66.21,24.14 10.13,9.51 17.68,23.15 22.74,40.98l-44.34 10.55c-2.64,-11.48 -8.12,-20.57 -16.44,-27.24 -8.37,-6.67 -18.5,-9.98 -30.39,-9.98 -16.49,0 -29.87,5.9 -40.11,17.73 -10.28,11.79 -15.4,30.91 -15.4,57.37 0,28.02 5.07,48.02 15.15,59.9 10.13,11.94 23.25,17.89 39.43,17.89 11.94,0 22.23,-3.78 30.81,-11.37 8.57,-7.6 14.78,-19.49 18.5,-35.77zm81.92 81.87l0 -222.04 44.96 0 0 87.45 87.46 0 0 -87.45 44.96 0 0 222.04 -44.96 0 0 -97.06 -87.46 0 0 97.06 -44.96 0zm506.41 -26.93l-25.79 32.82c-12.61,-6.15 -24.76,-14.62 -36.39,-25.43 -8.94,8.07 -18.5,14.01 -28.58,17.83 -10.08,3.83 -22.07,5.74 -36.03,5.74 -27.6,0 -48.37,-7.8 -62.33,-23.36 -10.8,-11.99 -16.18,-25.84 -16.18,-41.5 0,-14.27 4.24,-27.09 12.77,-38.46 8.48,-11.37 21.19,-21.24 38.09,-29.61 -7.59,-9 -13.33,-17.58 -17.16,-25.74 -3.87,-8.17 -5.79,-15.87 -5.79,-23.16 0,-13.43 5.38,-24.86 16.13,-34.21 10.7,-9.36 26.05,-14.06 45.9,-14.06 19.12,0 34.11,4.91 44.91,14.68 10.8,9.82 16.18,21.76 16.18,35.92 0,8.99 -2.64,17.52 -7.96,25.58 -5.32,8.07 -16.02,17.21 -32.15,27.4l30.55 41.09c3.61,-6.41 6.72,-14.84 9.35,-25.17l38.56 8.63c-3.83,13.64 -7.19,23.67 -10.03,29.97 -2.79,6.31 -5.84,11.63 -9.09,15.87 4.75,4.45 10.9,9.3 18.45,14.63 7.54,5.32 13.07,8.84 16.59,10.54zm-115.83 -120.94l11.42 -8.84c8.43,-6.56 12.62,-13.08 12.62,-19.54 0,-5.47 -2.02,-10.13 -6.1,-13.95 -4.04,-3.88 -9.51,-5.79 -16.44,-5.79 -6.72,0 -11.99,1.71 -15.82,5.07 -3.77,3.41 -5.68,7.33 -5.68,11.78 0,5.27 3.2,11.63 9.61,19.12l10.39 12.15zm-16.64 46.31c-9.72,4.96 -17.01,10.96 -21.86,17.93 -4.81,6.98 -7.24,14.11 -7.24,21.35 0,9.2 3,16.75 8.99,22.53 5.95,5.84 13.96,8.74 24.04,8.74 6.61,0 13.02,-1.29 19.12,-3.93 6.15,-2.63 12.82,-6.98 20.05,-13.08l-43.1 -53.54zm388.31 19.69l43.41 13.34c-6.66,24.44 -17.78,42.58 -33.28,54.47 -15.51,11.84 -35.15,17.78 -58.97,17.78 -29.52,0 -53.76,-10.08 -72.78,-30.23 -18.96,-20.16 -28.47,-47.71 -28.47,-82.7 0,-36.96 9.56,-65.69 28.63,-86.16 19.07,-20.47 44.19,-30.7 75.3,-30.7 27.19,0 49.26,8.06 66.21,24.14 10.13,9.51 17.68,23.15 22.74,40.98l-44.34 10.55c-2.64,-11.48 -8.12,-20.57 -16.44,-27.24 -8.37,-6.67 -18.5,-9.98 -30.39,-9.98 -16.49,0 -29.87,5.9 -40.11,17.73 -10.28,11.79 -15.4,30.91 -15.4,57.37 0,28.02 5.07,48.02 15.15,59.9 10.13,11.94 23.25,17.89 39.43,17.89 11.94,0 22.23,-3.78 30.81,-11.37 8.57,-7.6 14.78,-19.49 18.5,-35.77zm72.61 -27.81c0,-22.63 3.42,-41.65 10.19,-57.06 5.01,-11.31 11.94,-21.5 20.67,-30.49 8.74,-8.99 18.3,-15.66 28.69,-20.05 13.85,-5.84 29.82,-8.79 47.91,-8.79 32.77,0 58.92,10.18 78.61,30.49 19.64,20.37 29.46,48.64 29.46,84.87 0,35.92 -9.77,64.04 -29.25,84.3 -19.49,20.31 -45.59,30.44 -78.2,30.44 -33.03,0 -59.34,-10.08 -78.82,-30.29 -19.49,-20.15 -29.26,-47.96 -29.26,-83.42zm46.21 -1.49c0,25.17 5.84,44.24 17.47,57.26 11.63,12.98 26.41,19.49 44.29,19.49 17.94,0 32.62,-6.46 44.14,-19.33 11.48,-12.92 17.21,-32.25 17.21,-58.04 0,-25.49 -5.58,-44.51 -16.79,-57.01 -11.17,-12.56 -26,-18.82 -44.56,-18.82 -18.5,0 -33.44,6.36 -44.75,19.02 -11.32,12.72 -17.01,31.84 -17.01,57.43zm204.31 111.17l0 -222.04 43.52 0 91.38 148.8 0 -148.8 41.55 0 0 222.04 -44.91 0 -89.99 -145.96 0 145.96 -41.55 0zm212.16 -71.95l43.73 -4.34c2.64,14.63 7.91,25.33 15.92,32.2 8.01,6.88 18.81,10.29 32.4,10.29 14.37,0 25.23,-3.05 32.51,-9.15 7.29,-6.1 10.96,-13.23 10.96,-21.4 0,-5.27 -1.55,-9.71 -4.6,-13.44 -3.05,-3.67 -8.42,-6.87 -16.07,-9.56 -5.22,-1.86 -17.11,-5.06 -35.72,-9.71 -23.93,-6 -40.72,-13.34 -50.39,-22.07 -13.59,-12.25 -20.36,-27.19 -20.36,-44.81 0,-11.32 3.2,-21.97 9.56,-31.84 6.41,-9.87 15.61,-17.37 27.65,-22.54 12.04,-5.17 26.51,-7.75 43.57,-7.75 27.76,0 48.69,6.15 62.69,18.5 14.06,12.36 21.4,28.79 22.13,49.41l-44.97 1.55c-1.91,-11.47 -6,-19.69 -12.25,-24.7 -6.25,-5.01 -15.66,-7.55 -28.17,-7.55 -12.92,0 -23.05,2.69 -30.34,8.07 -4.7,3.46 -7.08,8.06 -7.08,13.85 0,5.27 2.22,9.77 6.67,13.49 5.63,4.8 19.33,9.77 41.09,14.93 21.76,5.12 37.83,10.5 48.22,15.97 10.44,5.54 18.61,13.03 24.5,22.59 5.89,9.56 8.84,21.35 8.84,35.35 0,12.72 -3.52,24.66 -10.6,35.77 -7.08,11.11 -17.05,19.38 -29.97,24.76 -12.93,5.42 -29.05,8.11 -48.33,8.11 -28.07,0 -49.62,-6.46 -64.66,-19.43 -15.04,-12.92 -23.98,-31.79 -26.93,-56.55zm218.63 -150.09l44.96 0 0 120.32c0,19.13 0.57,31.48 1.66,37.11 1.91,9.1 6.41,16.44 13.54,21.92 7.18,5.53 16.95,8.27 29.36,8.27 12.56,0 22.07,-2.59 28.47,-7.81 6.41,-5.22 10.24,-11.57 11.53,-19.17 1.29,-7.6 1.96,-20.16 1.96,-37.73l0 -122.91 44.97 0 0 116.76c0,26.67 -1.19,45.53 -3.62,56.54 -2.43,11.01 -6.87,20.31 -13.38,27.91 -6.46,7.6 -15.15,13.59 -26,18.09 -10.91,4.5 -25.07,6.77 -42.59,6.77 -21.14,0 -37.16,-2.43 -48.07,-7.34 -10.9,-4.91 -19.53,-11.27 -25.89,-19.12 -6.36,-7.86 -10.49,-16.02 -12.51,-24.66 -2.94,-12.71 -4.39,-31.52 -4.39,-56.38l0 -118.57zm225.19 222.04l0 -220.18 44.96 0 0 182.66 111.33 0 0 37.52 -156.29 0zm215.12 0l0 -184.52 -65.75 0 0 -37.52 176.14 0 0 37.52 -65.43 0 0 184.52 -44.96 0zm137.95 0l0 -222.04 44.96 0 0 222.04 -44.96 0zm87.71 0l0 -222.04 43.52 0 91.38 148.8 0 -148.8 41.55 0 0 222.04 -44.91 0 -89.99 -145.96 0 145.96 -41.55 0zm327.21 -81.56l0 -37.52 96.45 0 0 88.59c-9.36,9.14 -22.95,17.16 -40.78,24.13 -17.78,6.93 -35.82,10.39 -54.11,10.39 -23.21,0 -43.42,-4.86 -60.68,-14.63 -17.21,-9.76 -30.19,-23.77 -38.87,-41.91 -8.68,-18.14 -13.02,-37.94 -13.02,-59.28 0,-23.16 4.85,-43.73 14.52,-61.77 9.72,-17.98 23.88,-31.84 42.54,-41.45 14.26,-7.39 31.94,-11.06 53.13,-11.06 27.55,0 49.1,5.79 64.6,17.37 15.46,11.63 25.43,27.6 29.88,48.06l-44.66 8.38c-3.1,-10.91 -8.99,-19.54 -17.62,-25.9 -8.58,-6.3 -19.33,-9.46 -32.25,-9.46 -19.54,0 -35.1,6.21 -46.62,18.66 -11.53,12.46 -17.32,30.91 -17.32,55.36 0,26.41 5.84,46.2 17.52,59.38 11.74,13.18 27.03,19.8 46,19.8 9.36,0 18.76,-1.86 28.17,-5.53 9.46,-3.67 17.52,-8.17 24.29,-13.44l0 -28.17 -51.17 0z"/>
  </g>
 </g>
</svg>
