<?xml version="1.0" encoding="UTF-8"?>
<!DOCTYPE svg PUBLIC "-//W3C//DTD SVG 1.1//EN" "http://www.w3.org/Graphics/SVG/1.1/DTD/svg11.dtd">
<!-- Creator: CorelDRAW 2017 -->
<svg xmlns="http://www.w3.org/2000/svg" xml:space="preserve" width="50.7998mm" height="33.8666mm" version="1.1" style="shape-rendering:geometricPrecision; text-rendering:geometricPrecision; image-rendering:optimizeQuality; fill-rule:evenodd; clip-rule:evenodd"
viewBox="0 0 5079.98 3386.66"
 xmlns:xlink="http://www.w3.org/1999/xlink">
 <defs>
  <style type="text/css">
   <![CDATA[
    .fil0 {fill:#F0525B;fill-rule:nonzero}
   ]]>
  </style>
 </defs>
 <g id="Capa_x0020_1">
  <metadata id="CorelCorpID_0Corel-Layer"/>
  <g id="_2192693633744">
   <path class="fil0" d="M1303.93 1485.17c-28.94,-12.89 -60.33,-17.65 -92.98,-17.03 -45.16,-0.22 -82.42,7.83 -112.12,24.22 29.7,-16.39 66.96,-24.43 112.11,-24.2 32.66,-0.63 64.05,4.12 92.99,17.01z"/>
   <path class="fil0" d="M1147.64 678.98c3.57,-0.6 7.21,-0.95 10.81,-1.41 -3.6,0.46 -7.24,0.81 -10.81,1.41z"/>
   <path class="fil0" d="M1303.93 1485.17c9.64,4.3 19.01,9.5 28.07,15.71 -9.06,-6.21 -18.43,-11.41 -28.07,-15.71z"/>
   <path class="fil0" d="M4192.51 42.33c-1103.11,0 -2202.93,0 -3306.6,0 0,12.12 0,22.73 0,33.33 0,1077.42 0.11,2154.84 -0.61,3232.26 -0.02,28.7 7.8,36.43 36.39,36.41 1079.39,-0.7 2158.79,-0.68 3238.18,-0.04 27.25,0.02 34.83,-7.5 34.81,-34.94 -0.68,-1078.41 -0.57,-2156.82 -0.65,-3235.22 0,-10.51 -0.98,-21.02 -1.52,-31.8zm-52.6 3197.12l0 0c0,14.7 0,29.4 0,49.14 -15.67,0 -26.34,0 -37,0 -1041.83,0 -2083.66,-0.13 -3125.49,0.67 -29.97,0.03 -37.96,-7.5 -37.94,-37.71 0.76,-1042.82 0.73,-2085.64 -0.16,-3128.46 -0.03,-30.93 15.03,-29.86 36.37,-29.85 586.71,0.23 1173.42,0.19 1760.13,0.19 455.12,0 910.24,0 1365.36,0.01 38.78,0 38.75,0.07 38.75,38.31 -0.01,1035.9 -0.01,2071.8 -0.02,3107.7z"/>
   <path class="fil0" d="M3349.7 2690.58c67.06,-148.65 135.68,-296.59 202.71,-445.26 7.8,-17.32 12.42,-37.7 12.45,-56.67 0.67,-497.67 0.54,-995.34 0.54,-1493.01 0,-10.59 0,-21.17 0,-33.37 -687.37,0 -1371.27,0 -2055.23,0 0,685.71 0,1368.9 0,2055.57 12.77,0 23.42,0.01 34.06,0 255.27,-0.33 510.53,-0.62 765.8,-1.06 18.78,-0.03 37.75,0.35 56.31,-2 318.35,-40.38 538.55,-210.1 663.71,-504.68 9.27,-21.81 17.59,-44.09 28.12,-65.27 86.63,-174.33 173.84,-348.37 260.22,-522.82 5.71,-11.53 12.11,-28.17 7.95,-38.18 -17.28,-41.53 -38.49,-81.42 -60.61,-126.73 -7.11,14.68 -11.98,24.02 -16.24,33.64 -103.25,233.16 -205.79,466.64 -309.77,699.47 -138.34,309.77 -467.25,484.36 -785.27,418.12 -467.66,-97.41 -720.12,-614.51 -502.02,-1040.34 136.83,-267.14 360.34,-404.86 664.09,-401.33 113,1.32 217.14,37.77 316.47,89.88 8.55,4.48 21.11,1.32 31.96,1.43 0.05,-0.19 0.1,-0.37 0.16,-0.55 0.36,-0.56 0.76,-1.11 1.14,-1.66 3.44,-15.19 6.91,-30.51 11.05,-48.8 -201.71,-107.25 -412.38,-133.81 -631.09,-59.82 -218.25,73.84 -371.89,221.61 -474.32,428.52 -0.56,-9.07 -1.62,-18.13 -1.62,-27.19 -0.08,-265.97 0.38,-531.94 -0.7,-797.9 -0.11,-28.96 8.44,-35.99 36.61,-35.93 422.19,0.88 844.37,0.62 1266.55,0.62 10.71,0 21.42,0 36.24,0 -4.05,11.96 -6.14,20.28 -9.58,27.98 -73.79,165.01 -147.68,329.96 -221.78,494.82 -2.84,6.33 -7.39,11.88 -11.36,17.7 -0.17,0.73 -0.33,1.47 -0.5,2.2 -0.26,-0.01 -0.52,0.01 -0.78,0 -3.11,10.08 -5.31,20.55 -9.59,30.11 -87.98,196.68 -175.05,393.8 -265.38,589.4 -17.44,37.76 -46.17,70.89 -72.81,103.61 -20.37,25.02 -49.9,31.32 -81.03,21.72 -33.01,-10.18 -53.05,-33.15 -60.46,-66.9 -14.57,-66.48 31.31,-134.24 99.62,-147.26 38.62,-7.36 40.92,-10.49 34.07,-50.65 -16.12,1.53 -33,1.17 -48.88,4.98 -70.17,16.82 -123.79,79.58 -129.01,149.24 -6.2,82.78 35.68,152.29 109.05,182.63 50.4,20.84 96.57,15.21 138.75,-19.58 46.93,-38.7 79.4,-87.54 100.81,-144.17 6.28,-16.6 12.92,-33.14 20.52,-49.17 157.92,-333.13 315.71,-666.33 474.6,-999.01 12.75,-26.69 14.82,-48.47 -0.95,-74.1 -13.11,-21.31 -21.7,-45.41 -34.73,-73.55 16.2,0 25.81,0 35.42,0 166.22,0 332.44,0.66 498.65,-0.63 28.57,-0.23 36.38,7.86 36.32,36.39 -0.89,426.43 -0.49,852.86 -1.15,1279.3 -0.03,18.01 -4.56,37.31 -11.9,53.83 -89.45,201.44 -179.84,402.46 -269.92,603.62 -3.85,8.58 -7.13,17.42 -12.28,30.07 34.15,0 63.77,-1.45 93.17,0.47 22.57,1.48 32.88,-7.86 41.84,-27.73zm-1777.9 -446.76l0 0c92.34,183.78 231.5,318.66 416.16,410.12 -138.18,0 -276.36,0 -416.16,0 0,-138.09 0,-274.1 0,-410.12z"/>
   <path class="fil0" d="M2665.12 1257.43l0.31 0.26c-0.16,-0.13 -0.32,-0.27 -0.32,-0.27 -0.06,0.18 -0.11,0.36 -0.16,0.55 0,0 0.01,-0.01 0.02,-0.01 0.05,-0.17 0.1,-0.35 0.15,-0.53z"/>
   <path class="fil0" d="M2665.12 1257.43c-0.05,0.18 -0.1,0.36 -0.15,0.53 0.26,0.01 0.52,-0.01 0.78,0 0,0 -0.16,-0.13 -0.32,-0.27l-0.31 -0.26z"/>
   <path class="fil0" d="M2664.95 1257.97c-3.09,10.08 -5.3,20.55 -9.57,30.1 4.28,-9.56 6.48,-20.03 9.59,-30.11 -0.01,0 -0.02,0.01 -0.02,0.01z"/>
   <path class="fil0" d="M2534.56 1332.99c-4.08,-4.48 -5.15,-6.37 -6.77,-7.29 -4.29,-2.42 -8.67,-4.79 -13.26,-6.53 -109.51,-41.65 -222.28,-56.65 -337.69,-33.93 -340.92,67.13 -559.73,379.91 -508.8,726.31 49.24,334.97 357.99,578.4 693.9,532.87 211.8,-28.71 373.41,-137.51 470.69,-326.01 138.64,-268.64 267.13,-542.51 399.69,-814.28 3.71,-7.6 8.55,-18.56 5.76,-24.78 -19.53,-43.5 -40.93,-86.17 -63.56,-132.87 -5.05,9.82 -7.48,14.09 -9.5,18.56 -148.6,327.54 -297.12,655.13 -445.92,982.59 -6.06,13.33 -12.73,27.34 -22.48,37.91 -141.62,153.48 -316.76,219.66 -521.81,178.94 -404.7,-80.37 -595.27,-547.17 -363,-888.84 126.99,-186.81 307.62,-273.75 535.23,-248.03 55.19,6.23 108.89,25.52 166.92,39.7 5.32,-8.86 12.77,-21.27 20.6,-34.32z"/>
   <path class="fil0" d="M2428.46 1441.38c-67.5,-19.58 -134.41,-25.14 -201.3,-13.85 -317.73,53.63 -495.64,383.04 -362.91,677.25 80.36,178.13 223.72,276.26 418.87,281.74 185.08,5.2 334.17,-75.74 419.03,-241.15 156.05,-304.16 302.02,-613.49 451.86,-920.82 3.52,-7.22 6.66,-18.02 3.81,-24.39 -19.14,-42.74 -39.95,-84.74 -62.06,-130.81 -4.94,10.24 -7.61,15.44 -10,20.76 -165.68,367.57 -331.27,735.18 -497.31,1102.59 -6.33,14.01 -14.58,29.04 -26.12,38.5 -105.57,86.5 -225.88,120.83 -360.32,92.12 -218.36,-46.63 -358.33,-243.52 -340.56,-475.28 19.5,-254.42 275.85,-441.29 523.37,-380.46 24.63,6.05 37.55,1.2 43.64,-26.2z"/>
   <path class="fil0" d="M2210.16 1607.66c35.91,-10.25 75.99,-5.66 114.1,-8.75 6.3,-0.52 12.22,-5.66 18.31,-8.67 -5,-4.46 -9.61,-12.16 -15.08,-12.82 -19.51,-2.37 -39.54,-4.75 -58.97,-2.86 -214.26,20.79 -351.27,224.78 -290.39,431.42 37.53,127.41 150.6,221.53 281.8,234.58 129.66,12.9 260.45,-55.06 315.19,-169.09 165.54,-344.83 329.42,-690.45 493.55,-1035.95 3.84,-8.1 6.89,-20.18 3.65,-27.44 -18.75,-42.02 -39.49,-83.14 -61.51,-128.58 -7.11,14.66 -12.4,25.02 -17.22,35.59 -170.3,373.17 -340.41,746.43 -510.9,1119.51 -52.32,114.48 -169.84,164.13 -288.65,123.08 -142.99,-49.41 -228.35,-184.16 -200.59,-326.11 23.36,-119.43 102.81,-191.39 216.71,-223.91z"/>
   <path class="fil0" d="M3403.21 1794.05c3.87,-8.62 4.99,-21.82 1.17,-29.96 -17.57,-37.42 -37.36,-73.79 -58.83,-115.35 -5.93,11 -10,17.73 -13.31,24.82 -97.4,208.56 -196.37,416.41 -291.54,625.99 -72.91,160.58 -180.78,291.33 -320.41,397.29 -6.65,5.05 -12.89,10.64 -25.39,21 74.43,0 141.29,-0.72 208.1,0.44 19.98,0.35 34.35,-5.64 45.05,-21.82 50.63,-76.56 110.67,-148.59 150.07,-230.55 106.53,-221.63 204.4,-447.43 305.09,-671.86z"/>
   <path class="fil0" d="M3176.55 2694.97c102.1,-229.11 205.01,-457.85 307.48,-686.79 3.47,-7.76 8.26,-18.15 5.77,-24.83 -15.91,-42.79 -33.7,-84.89 -52.75,-131.88 -7.45,14.6 -12.11,23.22 -16.32,32.06 -59.84,125.74 -119.38,251.63 -179.47,377.26 -65.61,137.16 -125.72,277.25 -212.81,403.09 -11.08,16 -21.72,32.3 -36.24,53.94 54.43,0 101.82,-0.8 149.15,0.4 18.66,0.47 27.63,-6.28 35.19,-23.25z"/>
   <path class="fil0" d="M3734.35 2053.53c-6.14,-4.63 -12.1,-9.72 -17.87,-15.3 5.77,5.58 11.73,10.67 17.87,15.3z"/>
   <path class="fil0" d="M3734.35 2053.53c39.94,30.12 87.56,41.01 139.39,40.86 56.25,1.24 106.7,-12.82 148.42,-48.34 -41.72,35.52 -92.18,49.58 -148.44,48.32 -51.81,0.16 -99.43,-10.72 -139.37,-40.84z"/>
   <path class="fil0" d="M3564.06 2714.82c0,-119.96 0,-236.88 0,-361.61 -61.29,124.12 -119.2,241.41 -178.56,361.61 62.88,0 120.47,0 178.56,0z"/>
   <path class="fil0" d="M1565.83 2817.22c-6.91,0.02 -15.08,-2.19 -20.43,0.73 -7.67,4.19 -18.89,12.09 -18.95,18.5 -1.12,122.36 -0.83,244.74 -0.83,372.16 22.6,0 41.13,0.02 59.67,0 69.41,-0.09 105.17,-25.64 127.72,-91.83 18.61,-54.62 19.95,-111.03 10.53,-166.88 -16.76,-99.4 -58.34,-132.92 -157.71,-132.68zm118.5 290.61l0 0c-19.58,49.95 -65.48,73.53 -117.12,60.91 -5.81,-1.42 -13.49,-11.53 -13.54,-17.67 -0.86,-96.56 -0.61,-193.13 -0.61,-290.66 81.68,-15.58 121.47,8.72 138.91,84.48 12.58,54.59 13.19,109.81 -7.64,162.94z"/>
   <path class="fil0" d="M1158.45 677.57c2.98,-0.37 5.92,-0.87 8.92,-1.15 -3,0.28 -5.94,0.78 -8.92,1.15z"/>
   <path class="fil0" d="M1072.96 704.52c23.6,-13 48.63,-21.19 74.68,-25.54 -26.05,4.35 -51.08,12.54 -74.68,25.54z"/>
   <path class="fil0" d="M3018.23 2817.18c-3.93,0.29 -7.95,0.47 -11.84,0 -20.81,-2.49 -27.02,6.77 -26.82,27.18 0.89,89.9 0.38,179.81 0.37,269.72 0,30.42 0,60.84 0,90.9 26.56,2.49 27.17,2.5 27.43,-17.64 0.48,-36.55 1.62,-73.19 -0.33,-109.64 -1.36,-25.42 6.02,-34.5 32.72,-34.85 19.34,-0.26 42.39,-5.97 57.05,-17.68 33.69,-26.92 41.9,-106.24 22.69,-156.09 -18.61,-48.32 -56.93,-55.26 -101.27,-51.9zm69.74 163.5l0 0c-10.41,19.32 -54.14,30.97 -71.91,20.33 -4.54,-2.71 -7.99,-11 -8.08,-16.79 -0.69,-40.31 -0.37,-80.63 -0.37,-124.22 32.87,-2.85 63.57,-9.01 80.82,21.58 18,31.93 17.01,66.71 -0.46,99.1z"/>
   <path class="fil0" d="M3041.04 570.93c4.82,-8.74 13.61,-17.39 13.81,-26.22 0.63,-28.17 0.8,-56.35 0.8,-84.53 0,-28.18 -0.16,-56.36 -0.16,-84.54 0,-57.35 0.53,-114.7 -0.59,-172.03 -0.16,-8.2 -8.3,-16.25 -12.75,-24.36 -4.85,7.73 -13.87,15.44 -13.93,23.21 -0.91,114.69 -0.89,229.39 -0.03,344.08 0.06,8.16 8.37,16.26 12.85,24.39z"/>
   <path class="fil0" d="M3055.49 375.64c0,28.18 0.16,56.36 0.16,84.54 0,-28.18 -0.15,-56.36 -0.16,-84.54 0,-57.35 0.53,-114.7 -0.59,-172.03 1.12,57.33 0.59,114.68 0.59,172.03z"/>
   <path class="fil0" d="M3703.78 1762.32c112.58,-0.37 225.16,-0.38 337.73,-0.01 22.3,0.07 28.05,-8.48 19.03,-28.94 -125.71,0 -250.69,0 -375.56,0 -7.5,20.56 -2.03,29.02 18.8,28.95z"/>
   <path class="fil0" d="M2665.75 1257.96c0.17,-0.73 0.33,-1.47 0.5,-2.2 -0.38,0.55 -0.78,1.1 -1.14,1.66 0,0 0.16,0.14 0.32,0.27l0.32 0.27z"/>
   <path class="fil0" d="M2665.75 1257.96l-0.32 -0.27c0.16,0.14 0.32,0.27 0.32,0.27z"/>
   <path class="fil0" d="M3303.32 486.64c20.96,-34.37 28.29,-72.85 28.17,-113.49 0.79,-41.04 -7.78,-79.26 -30.34,-112.62 22.56,33.36 31.13,71.58 30.29,112.62 0.16,40.64 -7.16,79.12 -28.12,113.49z"/>
   <path class="fil0" d="M3955.16 1126.37c6.91,-0.06 14.15,-1.4 20.67,0.21 -6.52,-1.61 -13.76,-0.27 -20.67,-0.24 -15.8,0.03 -31.63,0.72 -47.38,-0.15 15.75,0.87 31.58,0.18 47.38,0.18z"/>
   <g>
    <path class="fil0" d="M2733.35 3206.58l0 -213.88c-0.02,73.1 0,152.11 0,213.88z"/>
    <path class="fil0" d="M2656.13 2819.69l0 36 49.33 0 0 31.47 0 319.42 1.07 0 26.82 0c0,-61.77 -0.02,-140.78 0,-213.88l0 -137.01 46.62 0c0,-13.31 0,-24.52 0,-36 -42.5,0 -82.49,0 -123.84,0z"/>
   </g>
   <polygon class="fil0" points="2978.26,2819.69 3006.16,2819.69 3006.16,3206.58 2978.26,3206.58 "/>
   <g>
    <path class="fil0" d="M2834.06 3206.58c34.7,0 67.9,0 101.09,0 0,-0.16 0,-0.31 0,-0.47l-101.09 0 0 0.47z"/>
    <path class="fil0" d="M2806.16 3206.11l0 0.47 2.9 0c-0.01,-0.16 -0.04,-0.31 -0.05,-0.47l-2.85 0z"/>
    <path class="fil0" d="M2817.07 2819.69l-10.91 0 0 0.07 10.76 0c0.05,-0.03 0.11,-0.04 0.15,-0.07z"/>
    <path class="fil0" d="M2809.01 3206.11c0.01,0.16 0.04,0.31 0.05,0.47 8.47,0 16.73,0 25,0l0 -0.47 -25.05 0z"/>
    <path class="fil0" d="M2834.06 2819.76l0 -0.07 -16.99 0c-0.04,0.03 -0.1,0.04 -0.15,0.07l17.14 0z"/>
    <path class="fil0" d="M2834.06 2856.61l103.88 0 0 -36.85 -103.88 0 -17.14 0 -10.76 0 0 36.85 0 134.73 0 40.1 0 137.09 0 37.58 2.85 0 25.05 0 101.09 0 0.81 0 0 -37.58 -27.63 0 -35.52 0 -23.61 0 -15.14 0 0 -11.33 0 -114.12 0 -11.64 16.29 0 27.1 0c19.02,0.21 38.23,0 58.51,0 0,-13.99 0,-24.43 0,-40.1 0,-0.03 0,-0.05 0,-0.08 -4.7,0 -9.25,0.04 -13.83,0.08l-47.86 0 -40.21 0 0 -41.04 0 -93.69z"/>
   </g>
   <g>
    <path class="fil0" d="M1399.67 2659.22l-208.01 0c71.1,0.02 147.93,0 208.01,0z"/>
    <path class="fil0" d="M1023.41 2736.44l35 0 0 -49.33 30.61 0 310.65 0 0 -1.08 0 -26.81c-60.08,0 -136.91,0.02 -208.01,0l-133.25 0 0 -46.62c-12.94,0 -23.84,0 -35,0 0,42.5 0,82.49 0,123.84z"/>
   </g>
   <g>
    <path class="fil0" d="M1399.18 2567.8c0,-30.75 0,-60.15 0,-89.55 -0.16,0 -0.3,0 -0.46,0l0 89.55 0.46 0z"/>
    <path class="fil0" d="M1398.72 2592.5l0.46 0 0 -2.57c-0.16,0.01 -0.31,0.04 -0.46,0.05l0 2.52z"/>
    <path class="fil0" d="M1022.92 2582.84l0 9.66 0.06 0 0 -9.52c-0.03,-0.05 -0.04,-0.1 -0.06,-0.14z"/>
    <path class="fil0" d="M1398.72 2589.98c0.15,-0.01 0.3,-0.04 0.46,-0.05 0,-7.49 0,-14.82 0,-22.13l-0.46 0 0 22.18z"/>
    <path class="fil0" d="M1022.98 2567.8l-0.06 0 0 15.04c0.02,0.04 0.03,0.09 0.06,0.14l0 -15.18z"/>
    <path class="fil0" d="M1058.82 2567.8l0 -92.02 -35.84 0 0 92.02 0 15.18 0 9.52 35.84 0 131.03 0 39 0 133.32 0 36.55 0 0 -2.52 0 -22.18 0 -89.55 0 -0.72 -36.55 0 0 24.48 0 31.46 0 20.91 0 13.42 -11.02 0 -110.99 0 -11.31 0 0 -14.44 0 -24c0.2,-16.85 0,-33.86 0,-51.83 -13.61,0 -23.76,0 -39,0 -0.03,0 -0.05,0 -0.08,0 0,4.16 0.04,8.2 0.08,12.26l0 42.39 0 35.62 -39.92 0 -91.11 0z"/>
   </g>
   <g>
    <path class="fil0" d="M3187.77 3206.58c34.71,0 67.91,0 101.1,0 0,-0.16 0,-0.31 0,-0.47l-101.1 0 0 0.47z"/>
    <path class="fil0" d="M3159.88 3206.11l0 0.47 2.9 0c-0.01,-0.16 -0.04,-0.31 -0.05,-0.47l-2.85 0z"/>
    <path class="fil0" d="M3170.79 2819.69l-10.91 0 0 0.07 10.76 0c0.04,-0.03 0.11,-0.04 0.15,-0.07z"/>
    <path class="fil0" d="M3162.73 3206.11c0.01,0.16 0.04,0.31 0.05,0.47 8.47,0 16.73,0 24.99,0l0 -0.47 -25.04 0z"/>
    <path class="fil0" d="M3187.77 2819.76l0 -0.07 -16.98 0c-0.04,0.03 -0.11,0.04 -0.15,0.07l17.13 0z"/>
    <path class="fil0" d="M3187.77 2856.61l103.89 0 0 -36.85 -103.89 0 -17.13 0 -10.76 0 0 36.85 0 134.73 0 40.1 0 137.09 0 37.58 2.85 0 25.04 0 101.1 0 0.81 0 0 -37.58 -27.63 0 -35.52 0 -23.61 0 -15.15 0 0 -11.33 0 -114.12 0 -11.64 16.3 0 27.09 0c19.03,0.21 38.24,0 58.52,0 0,-13.99 0,-24.43 0,-40.1 0,-0.03 0,-0.05 0,-0.08 -4.7,0 -9.25,0.04 -13.83,0.08l-47.86 0 -40.22 0 0 -41.04 0 -93.69z"/>
   </g>
   <g>
    <path class="fil0" d="M2065.96 3206.58c34.7,0 67.9,0 101.09,0 0,-0.16 0,-0.31 0,-0.47l-101.09 0 0 0.47z"/>
    <path class="fil0" d="M2038.06 3206.11l0 0.47 2.9 0c-0.01,-0.16 -0.04,-0.31 -0.05,-0.47l-2.85 0z"/>
    <path class="fil0" d="M2048.97 2819.69l-10.91 0 0 0.07 10.76 0c0.05,-0.03 0.11,-0.04 0.15,-0.07z"/>
    <path class="fil0" d="M2040.91 3206.11c0.01,0.16 0.04,0.31 0.05,0.47 8.47,0 16.73,0 25,0l0 -0.47 -25.05 0z"/>
    <path class="fil0" d="M2065.96 2819.76l0 -0.07 -16.99 0c-0.04,0.03 -0.1,0.04 -0.15,0.07l17.14 0z"/>
    <path class="fil0" d="M2065.96 2856.61l103.88 0 0 -36.85 -103.88 0 -17.14 0 -10.76 0 0 36.85 0 134.73 0 40.1 0 137.09 0 37.58 2.85 0 25.05 0 101.09 0 0.81 0 0 -37.58 -27.63 0 -35.52 0 -23.61 0 -15.14 0 0 -11.33 0 -114.12 0 -11.64 16.29 0 27.09 0c19.03,0.21 38.24,0 58.52,0 0,-13.99 0,-24.43 0,-40.1 0,-0.03 0,-0.05 0,-0.08 -4.7,0 -9.25,0.04 -13.83,0.08l-47.86 0 -40.21 0 0 -41.04 0 -93.69z"/>
   </g>
   <g>
    <path class="fil0" d="M2099.66 572.64c36.56,0 71.52,0 106.49,0 0,-0.17 0,-0.32 0,-0.48l-106.49 0 0 0.48z"/>
    <path class="fil0" d="M2070.28 572.16l0 0.48 3.05 0c-0.01,-0.16 -0.04,-0.32 -0.05,-0.48l-3 0z"/>
    <path class="fil0" d="M2081.77 179.29l-11.49 0 0 0.06 11.33 0c0.05,-0.02 0.11,-0.04 0.16,-0.06z"/>
    <path class="fil0" d="M2073.28 572.16c0.01,0.16 0.04,0.32 0.05,0.48 8.92,0 17.63,0 26.33,0l0 -0.48 -26.38 0z"/>
    <path class="fil0" d="M2099.66 179.35l0 -0.06 -17.89 0c-0.05,0.02 -0.11,0.04 -0.16,0.06l18.05 0z"/>
    <path class="fil0" d="M2099.66 216.82l109.42 0 0 -37.47 -109.42 0 -18.05 0 -11.33 0 0 37.47 0 136.98 0 40.77 0 139.38 0 38.21 3 0 26.38 0 106.49 0 0.85 0 0 -38.21 -29.11 0 -37.41 0 -24.87 0 -15.95 0 0 -11.52 0 -116.03 0 -11.83 17.16 0 28.54 0c20.04,0.21 40.28,0 61.64,0 0,-14.22 0,-24.84 0,-40.77 0,-0.03 0,-0.05 0,-0.08 -4.95,0 -9.75,0.04 -14.58,0.08l-50.4 0 -42.36 0 0 -41.73 0 -95.25z"/>
   </g>
   <path class="fil0" d="M4064.83 1307.64l-37.35 0 -136.52 0 -40.64 0 -138.92 0 -38.07 0 -0.48 0 0 3.23c0,9.46 0,18.69 0,27.92 0,38.75 0,75.82 0,112.89 0.16,0 0.31,0 0.48,0l0 0.9 38.07 0 0 -30.86 0 -39.66 0 -26.37 0 -16.9 11.49 0 115.64 0 11.79 0 0 18.19 0 30.26c-0.21,21.24 0,42.69 0,65.34 14.17,0 24.76,0 40.64,0 0.03,0 0.05,0 0.08,0 0,-5.25 -0.05,-10.33 -0.08,-15.45l0 -53.44 0 -44.9 41.59 0 94.93 0 0 116 37.35 0 0 -116 0.06 0 0 -18.97 0 -12.18 -0.06 0z"/>
   <path class="fil0" d="M4064.83 2359.72l-37.35 0 -136.52 0 -40.64 0 -138.92 0 -38.07 0 -0.48 0 0 3.24c0,9.45 0,18.68 0,27.91 0,38.76 0,75.82 0,112.89 0.16,0 0.31,0 0.48,0l0 0.9 38.07 0 0 -30.85 0 -39.67 0 -26.36 0 -16.91 11.49 0 115.64 0 11.79 0 0 18.2 0 30.25c-0.21,21.25 0,42.7 0,65.34 14.17,0 24.76,0 40.64,0 0.03,0 0.05,0 0.08,0 0,-5.24 -0.05,-10.33 -0.08,-15.45l0 -53.44 0 -44.9 41.59 0 94.93 0 0 116 37.35 0 0 -116 0.06 0 0 -18.96 0 -12.19 -0.06 0z"/>
   <g>
    <path class="fil0" d="M1805.49 572.64c36.56,0 71.52,0 106.48,0 0,-0.17 0,-0.32 0,-0.48l-106.48 0 0 0.48z"/>
    <path class="fil0" d="M1776.11 572.16l0 0.48 3.05 0c-0.01,-0.16 -0.04,-0.32 -0.05,-0.48l-3 0z"/>
    <path class="fil0" d="M1787.6 179.29l-11.49 0 0 0.06 11.32 0c0.06,-0.02 0.12,-0.04 0.17,-0.06z"/>
    <path class="fil0" d="M1779.11 572.16c0.01,0.16 0.04,0.32 0.05,0.48 8.92,0 17.63,0 26.33,0l0 -0.48 -26.38 0z"/>
    <path class="fil0" d="M1805.49 179.35l0 -0.06 -17.89 0c-0.05,0.02 -0.11,0.04 -0.17,0.06l18.06 0z"/>
    <path class="fil0" d="M1805.49 216.82l109.42 0 0 -37.47 -109.42 0 -18.06 0 -11.32 0 0 37.47 0 136.98 0 40.77 0 139.38 0 38.21 3 0 26.38 0 106.48 0 0.86 0 0 -38.21 -29.11 0 -37.41 0 -24.87 0 -15.95 0 0 -11.52 0 -116.03 0 -11.83 17.16 0 28.54 0c20.04,0.21 40.27,0 61.64,0 0,-14.22 0,-24.84 0,-40.77 0,-0.03 0,-0.05 0,-0.08 -4.95,0 -9.75,0.04 -14.58,0.08l-50.41 0 -42.35 0 0 -41.73 0 -95.25z"/>
   </g>
   <g>
    <path class="fil0" d="M1787.71 3206.58c34.71,0 67.91,0 101.1,0 0,-0.16 0,-0.31 0,-0.47l-101.1 0 0 0.47z"/>
    <path class="fil0" d="M1759.82 3206.11l0 0.47 2.9 0c-0.01,-0.16 -0.04,-0.31 -0.05,-0.47l-2.85 0z"/>
    <path class="fil0" d="M1770.73 2819.69l-10.91 0 0 0.07 10.75 0c0.05,-0.03 0.12,-0.04 0.16,-0.07z"/>
    <path class="fil0" d="M1762.67 3206.11c0.01,0.16 0.04,0.31 0.05,0.47 8.46,0 16.73,0 24.99,0l0 -0.47 -25.04 0z"/>
    <path class="fil0" d="M1787.71 2819.76l0 -0.07 -16.98 0c-0.04,0.03 -0.11,0.04 -0.16,0.07l17.14 0z"/>
    <path class="fil0" d="M1787.71 2856.61l103.89 0 0 -36.85 -103.89 0 -17.14 0 -10.75 0 0 36.85 0 134.73 0 40.1 0 137.09 0 37.58 2.85 0 25.04 0 101.1 0 0.81 0 0 -37.58 -27.64 0 -35.52 0 -23.6 0 -15.15 0 0 -11.33 0 -114.12 0 -11.64 16.3 0 27.09 0c19.03,0.21 38.24,0 58.52,0 0,-13.99 0,-24.43 0,-40.1 0,-0.03 0,-0.05 0,-0.08 -4.7,0 -9.25,0.04 -13.84,0.08l-47.85 0 -40.22 0 0 -41.04 0 -93.69z"/>
   </g>
   <path class="fil0" d="M2408.88 2918.46l39.16 0c0,0 -26.79,-117.24 -120.58,-117.24 -93.79,0 -142.23,136.82 -128.83,242.98 13.4,106.15 75.03,170.05 123.57,171.08 48.55,1.03 92.86,-23.7 119.66,-107.18l-36.07 0c0,0 -24.74,61.83 -79.36,63.9 -54.62,2.06 -101,-87.61 -95.85,-170.06 5.15,-82.45 49.47,-154.6 96.88,-153.57 47.41,1.03 82.45,58.75 81.42,70.09z"/>
   <path class="fil0" d="M1123.75 947.99l0 -33.11c0,0 -111.57,22.65 -111.57,101.95 0,79.3 130.2,120.26 231.23,108.93 101.03,-11.33 161.84,-63.44 162.82,-104.48 0.98,-41.05 -22.56,-78.52 -102.01,-101.18l0 30.5c0,0 58.85,20.92 60.81,67.1 1.97,46.19 -83.37,85.4 -161.83,81.04 -78.47,-4.35 -147.13,-41.82 -146.15,-81.91 0.98,-40.08 55.91,-69.71 66.7,-68.84z"/>
   <path class="fil0" d="M3533.48 2918.46l39.17 0c0,0 -26.8,-117.24 -120.59,-117.24 -93.79,0 -142.23,136.82 -128.83,242.98 13.4,106.15 75.03,170.05 123.57,171.08 48.55,1.03 92.86,-23.7 119.66,-107.18l-36.07 0c0,0 -24.74,61.83 -79.36,63.9 -54.62,2.06 -101,-87.61 -95.85,-170.06 5.15,-82.45 49.47,-154.6 96.88,-153.57 47.41,1.03 82.45,58.75 81.42,70.09z"/>
   <path class="fil0" d="M1123.89 2274.15l-0.24 -33.58c0,0 -111.93,23.78 -111.36,104.19 0.58,80.4 131.7,121 233.12,108.78 101.42,-12.21 162.14,-65.49 162.82,-107.11 0.69,-41.63 -23.23,-79.45 -103.22,-101.86l0.22 30.93c0,0 59.28,20.78 61.59,67.6 2.3,46.82 -83.14,87.19 -162.01,83.34 -78.87,-3.85 -148.13,-41.35 -147.43,-82.01 0.69,-40.65 55.66,-71.09 66.51,-70.28z"/>
   <path class="fil0" d="M1405.9 790.9c0.09,-1.43 0.36,-2.83 0.36,-4.28 0,-0.26 -0.06,-0.51 -0.06,-0.76 0.01,-3.65 -0.29,-7.29 -0.91,-10.92 -0.11,-0.67 -0.33,-1.33 -0.46,-2 -0.48,-2.37 -1.03,-4.74 -1.79,-7.09 -16.25,-54.58 -95.46,-94.87 -193.81,-94.87 -85.16,0 -155.9,30.22 -183.96,73.73 -1.35,2.01 -2.59,4.04 -3.73,6.1 -0.32,0.59 -0.66,1.18 -0.96,1.79 -5.5,10.51 -8.31,21.47 -8.28,32.53 -0.01,0.5 -0.12,0.98 -0.12,1.49 0,64.84 86.54,115.63 197.05,115.63 106,0 189.75,-46.79 196.38,-107.86 0.16,-1.16 0.2,-2.32 0.29,-3.49zm-337.99 -44.68l0 0c28.51,-24.75 81.74,-41.85 141.32,-41.85 55.19,0 105.04,14.66 134.75,36.51 30.9,28.64 30.54,63.94 -0.98,92.13 -29.81,21.48 -79.15,35.86 -133.77,35.86 -63.13,0 -119.1,-19.21 -146.11,-46.38 -19.2,-22.68 -16.97,-51.99 4.79,-76.27z"/>
   <path class="fil0" d="M1405.9 1560.84c0.09,-1.42 0.36,-2.8 0.36,-4.24 0,-0.25 -0.06,-0.49 -0.06,-0.74 0.01,-3.61 -0.29,-7.2 -0.91,-10.77 -0.11,-0.67 -0.33,-1.32 -0.46,-1.98 -0.48,-2.35 -1.03,-4.68 -1.79,-7 -16.25,-53.87 -95.46,-93.63 -193.81,-93.63 -85.16,0 -155.9,29.82 -183.96,72.77 -1.35,1.98 -2.59,3.99 -3.73,6.01 -0.32,0.59 -0.66,1.17 -0.96,1.77 -5.5,10.37 -8.31,21.2 -8.28,32.11 -0.01,0.49 -0.12,0.97 -0.12,1.46 0,64.01 86.54,114.13 197.05,114.13 106,0 189.75,-46.18 196.38,-106.45 0.16,-1.15 0.2,-2.29 0.29,-3.44zm-337.99 -44.1l0 0c28.51,-24.43 81.74,-41.31 141.32,-41.31 55.19,0 105.04,14.47 134.75,36.03 30.9,28.27 30.54,63.11 -0.98,90.93 -29.81,21.2 -79.15,35.39 -133.77,35.39 -63.13,0 -119.1,-18.95 -146.11,-45.76 -19.2,-22.4 -16.97,-51.32 4.79,-75.28z"/>
   <path class="fil0" d="M1406.55 1909.4c0.08,-1.43 0.35,-2.83 0.35,-4.28 0,-0.26 -0.06,-0.51 -0.06,-0.76 0.01,-3.65 -0.29,-7.29 -0.91,-10.91 -0.11,-0.68 -0.32,-1.33 -0.45,-2.01 -0.49,-2.37 -1.04,-4.74 -1.8,-7.09 -16.25,-54.58 -95.46,-94.87 -193.81,-94.87 -85.16,0 -155.9,30.22 -183.96,73.73 -1.35,2.01 -2.59,4.04 -3.73,6.1 -0.32,0.59 -0.65,1.18 -0.96,1.79 -5.5,10.51 -8.31,21.47 -8.28,32.53 -0.01,0.5 -0.12,0.98 -0.12,1.49 0,64.84 86.54,115.63 197.05,115.63 106,0 189.75,-46.79 196.39,-107.86 0.16,-1.16 0.19,-2.32 0.29,-3.49zm-338 -44.68l0 0c28.51,-24.75 81.75,-41.85 141.32,-41.85 55.19,0 105.05,14.66 134.75,36.51 30.91,28.64 30.54,63.94 -0.98,92.13 -29.81,21.48 -79.15,35.86 -133.77,35.86 -63.13,0 -119.1,-19.21 -146.1,-46.38 -19.21,-22.68 -16.97,-51.99 4.78,-76.27z"/>
   <path class="fil0" d="M3360.37 374.5c0,-0.48 -0.05,-0.95 -0.05,-1.43 0.28,-51.2 -9.62,-96.88 -36.29,-138 -1.64,-2.61 -3.28,-5.2 -5,-7.68 -0.23,-0.32 -0.41,-0.66 -0.65,-0.99 -0.38,-0.54 -0.81,-0.98 -1.2,-1.51 -18.85,-26.13 -42.77,-44.14 -69.65,-50.82 -0.05,-0.02 -0.11,-0.03 -0.17,-0.04 -3.86,-0.96 -7.75,-1.73 -11.72,-2.21 -1.97,-0.25 -3.93,-0.3 -5.9,-0.43 -1.86,-0.11 -3.68,-0.41 -5.57,-0.41 -0.38,0 -0.76,0.08 -1.15,0.09 -3.32,0.02 -6.61,0.34 -9.9,0.72 -1.17,0.13 -2.37,0.15 -3.53,0.33 -2.58,0.4 -5.12,1.08 -7.68,1.7 -61.56,14.57 -108.1,88.53 -113.35,182.89 -0.89,12.22 -0.87,24.44 0.04,36.66 4.16,70.63 31.45,129.79 70.85,160.95 27.21,22.61 60.41,29.03 91.88,19.79 0.68,-0.2 1.34,-0.45 2.01,-0.66 3.72,-1.18 7.41,-2.54 11.07,-4.16 0.63,-0.28 1.26,-0.6 1.89,-0.9 19.28,-8.99 37.43,-23.99 52.4,-45.38 31.27,-44.68 42.07,-95.02 41.67,-145.42 0.01,-0.79 -0.03,-1.55 -0.02,-2.35 0,-0.25 0.02,-0.49 0.02,-0.74zm-184.02 145.7l0 0c-29.02,-29.51 -49.05,-84.35 -49.05,-145.7 0,-55.18 16.23,-105.06 40.6,-136.04 31.35,-32.26 69.7,-36.02 103.17,-10.64 29.53,29.27 49.98,84.67 49.98,146.68 0,67.7 -24.36,127.52 -58.31,154.06 -27.79,15.49 -59.86,12.66 -86.39,-8.36z"/>
   <path class="fil0" d="M4071.22 1961.63c0.56,-4.49 0.88,-8.99 0.91,-13.51 0.01,-0.6 0.12,-1.18 0.12,-1.78 0,-0.26 -0.05,-0.51 -0.05,-0.78 -0.06,-4.26 -0.33,-8.51 -0.85,-12.75 -0.28,-2.33 -0.75,-4.6 -1.17,-6.89 -0.36,-2 -0.74,-3.98 -1.21,-5.96 -0.57,-2.38 -1.19,-4.74 -1.91,-7.07 -0.66,-2.2 -1.45,-4.36 -2.25,-6.53 -0.71,-1.89 -1.33,-3.81 -2.13,-5.67 -1.7,-3.97 -3.63,-7.86 -5.77,-11.68 -0.71,-1.26 -1.54,-2.46 -2.29,-3.7 -1.54,-2.53 -3.14,-5.04 -4.89,-7.49 -1.66,-2.35 -3.44,-4.63 -5.26,-6.91 -0.41,-0.49 -0.81,-0.99 -1.23,-1.48 -33.99,-41.33 -94.92,-68.87 -166.52,-70.77 -2.21,-0.07 -4.41,-0.22 -6.62,-0.24 -0.42,0 -0.82,-0.04 -1.23,-0.04 -3.64,0 -7.17,0.25 -10.75,0.38 -3.47,0.12 -6.94,0.12 -10.4,0.38 -7.28,0.52 -14.41,1.35 -21.42,2.39 -0.58,0.09 -1.14,0.22 -1.72,0.32 -48.28,7.52 -89.54,27.18 -117.98,54.53 -0.12,0.11 -0.26,0.21 -0.38,0.32 -0.52,0.48 -0.96,1.01 -1.47,1.49 -2.03,2.02 -4.1,4 -5.99,6.1 -10.58,11.44 -18.6,24.06 -24.14,37.31 -0.08,0.2 -0.16,0.41 -0.24,0.61 -1.79,4.34 -3.32,8.73 -4.56,13.18 -0.1,0.39 -0.23,0.76 -0.34,1.15 -2.48,9.27 -3.76,18.72 -3.87,28.21 -0.01,0.54 -0.11,1.05 -0.11,1.59 0,0.79 0.14,1.55 0.15,2.34 0.08,3.34 0.31,6.68 0.68,10.01 0.16,1.53 0.3,3.06 0.52,4.57 0.58,3.81 1.35,7.59 2.32,11.36 0.41,1.6 0.9,3.17 1.37,4.76 0.99,3.26 2.08,6.5 3.36,9.71 0.67,1.66 1.43,3.28 2.17,4.91 1.2,2.65 2.48,5.28 3.89,7.88 0.86,1.58 1.74,3.16 2.67,4.71 1.51,2.53 3.16,5.01 4.88,7.47 1.08,1.57 2.12,3.15 3.28,4.68 1.24,1.63 2.63,3.2 3.96,4.8 3.8,4.59 7.91,9.01 12.35,13.25 0.49,0.47 0.95,0.98 1.44,1.44 0.14,0.13 0.28,0.24 0.41,0.37 1.6,1.47 3.22,2.93 4.9,4.35 4.24,3.73 8.54,7.31 12.97,10.58 40.82,30.12 89.51,41 142.48,40.84 57.51,1.26 109.09,-12.8 151.74,-48.32 6.1,-5.07 12.01,-10.59 17.73,-16.55 18.73,-19.54 29.4,-43.33 32.45,-67.8 0,-0.02 0,-0.05 0,-0.07zm-202.35 89.95l0 0c-65.69,0 -123.88,-24.99 -151.48,-60.21 -17.68,-30.94 -15.96,-67.02 5.62,-96.71 29.43,-31.68 84.37,-53.57 145.86,-53.57 61.86,0 117.13,22.14 146.42,54.13 22.04,30.76 22.77,67.73 1.94,100.13 -28.76,33.13 -85.14,56.23 -148.36,56.23z"/>
   <polygon class="fil0" points="3060.66,571.29 3022.53,571.29 3022.53,179.25 3060.66,179.25 "/>
   <polygon class="fil0" points="4064.89,1724.19 4064.89,1762.32 3672.85,1762.32 3672.85,1724.19 "/>
   <g>
    <path class="fil0" d="M2523.78 178.81c-36.4,0.6 -72.81,0.19 -112.72,0.19 0,0.09 0,0.16 0,0.25 39.75,0 78.43,0 118.83,0 -1.86,-0.31 -3.87,-0.48 -6.11,-0.44z"/>
    <path class="fil0" d="M2411.06 179.25c0,14.94 0,25.96 0,36.47l52.78 0 0 355.57 1.16 0 28.69 0 0 -355.57 49.88 0c0,-13.48 0,-24.84 0,-36.47l-132.51 0z"/>
   </g>
   <path class="fil0" d="M1711.97 245.25c-12.4,-23.41 -36.64,-48.54 -60.67,-55.97 -38.22,-11.83 -63.32,-10.03 -123.62,-10.03l-0.15 0 0 392.04 30.31 0 0 -0.54c18.39,0.73 36.31,1.4 54,-0.83 47.52,-5.98 87.72,-35.41 104.15,-70.54 39.45,-84.39 39.85,-171.31 -4.02,-254.13zm-15.89 213.45l0 0c-0.35,0.88 -0.66,1.84 -1.01,2.69 -0.08,0.18 -0.15,0.36 -0.22,0.54 -22.02,52.53 -61.5,68.17 -92.45,71.68 -25.07,2.85 -44.56,0 -44.56,0l0 -2.25 0 -19.86 0 -283.19 0 -8.37 0 -3.58c0,0 36.21,-5.67 73.49,5.7 20.32,6.2 40.9,18.61 56.16,41.97 12.57,19.24 21.45,46 23.53,82.92 0.48,8.69 0.7,17.79 0.39,27.65 -0.59,18.7 -2.49,35.23 -5.41,49.89 -2.56,12.84 -5.94,24.14 -9.92,34.21z"/>
   <path class="fil0" d="M2963.64 245.25c-12.4,-23.41 -36.64,-48.54 -60.67,-55.97 -38.22,-11.83 -63.32,-10.03 -123.62,-10.03l-0.15 0 0 392.04 30.31 0 0 -0.54c18.4,0.73 36.32,1.4 54,-0.83 47.52,-5.98 87.72,-35.41 104.15,-70.54 39.46,-84.39 39.85,-171.31 -4.02,-254.13zm-15.89 213.45l0 0c-0.35,0.88 -0.65,1.84 -1.01,2.69 -0.07,0.18 -0.15,0.36 -0.22,0.54 -22.02,52.53 -61.5,68.17 -92.45,71.68 -25.07,2.85 -44.56,0 -44.56,0l0 -2.25 0 -19.86 0 -283.19 0 -8.37 0 -3.58c0,0 36.22,-5.67 73.49,5.7 20.32,6.2 40.9,18.61 56.16,41.97 12.57,19.24 21.45,46 23.53,82.92 0.49,8.69 0.7,17.79 0.39,27.65 -0.59,18.7 -2.49,35.23 -5.41,49.89 -2.56,12.84 -5.94,24.14 -9.92,34.21z"/>
   <path class="fil0" d="M3498.34 283.84l33.24 0c0,0 3.09,-112.1 -69.57,-112.85 -72.66,-0.76 -79.62,106.84 -77.3,118.12 2.32,11.29 0.77,59.44 51.79,86.53 51.02,27.08 72.66,48.15 65.7,100.82 -6.95,52.66 -33.23,53.42 -40.19,54.92 -6.96,1.51 -50.25,-0.75 -51.79,-75.99l-32.47 0c0,0 -3.09,121.89 80.39,122.64 83.49,0.75 98.94,-140.7 64.93,-193.37 -34.01,-52.66 -112.08,-39.12 -105.12,-115.86 6.96,-76.75 89.63,-54.91 80.39,15.04z"/>
   <path class="fil0" d="M2359.21 283.84l33.24 0c0,0 3.09,-112.1 -69.57,-112.85 -72.66,-0.76 -79.62,106.84 -77.3,118.12 2.32,11.29 0.77,59.44 51.79,86.53 51.02,27.08 72.66,48.15 65.7,100.82 -6.95,52.66 -33.24,53.42 -40.19,54.92 -6.96,1.51 -50.25,-0.75 -51.79,-75.99l-32.47 0c0,0 -3.09,121.89 80.39,122.64 83.48,0.75 98.94,-140.7 64.93,-193.37 -34.01,-52.66 -112.08,-39.12 -105.12,-115.86 6.95,-76.75 89.63,-54.91 80.39,15.04z"/>
   <path class="fil0" d="M2699.54 179.29l0 282.02c0,2.33 -0.44,4.57 -0.42,6.89 0.15,15.61 -12.53,69.81 -52.41,70.49 -41.71,0.71 -47.05,-63.33 -48.07,-76.06 -0.11,-1.45 -0.16,-2.83 -0.16,-4.29l0 -279.05 -35.88 0 0 284.86c0,0 3.66,115.22 86.41,115.21 84.71,-0.01 86.41,-115.21 86.41,-115.21l0 -284.86 -35.88 0z"/>
   <path class="fil0" d="M4064.89 1012.08l-282.02 0c-2.33,0 -4.57,-0.47 -6.89,-0.44 -15.61,0.16 -66,-14.81 -66.68,-57.08 -0.71,-44.22 59.52,-48.35 72.25,-49.43 1.45,-0.12 2.83,-0.17 4.28,-0.17l279.06 0 0 -38.03 -284.86 0c0,0 -115.22,3.88 -115.21,91.59 0,89.79 115.21,91.59 115.21,91.59l284.86 0 0 -38.03z"/>
   <path class="fil0" d="M3962.37 788.78l0 33.23c0,0 113.38,3.1 114.15,-69.56 0.76,-72.66 -108.07,-79.62 -119.48,-77.3 -11.42,2.32 -60.12,0.77 -87.52,51.79 -27.39,51.01 -48.7,72.66 -101.97,65.7 -53.27,-6.96 -54.03,-33.24 -55.55,-40.19 -1.52,-6.96 0.76,-50.25 76.86,-51.79l0 -32.47c0,0 -123.28,-3.09 -124.04,80.39 -0.76,83.48 142.3,98.94 195.57,64.93 53.27,-34.01 39.57,-112.08 117.2,-105.12 77.62,6.95 55.53,89.62 -15.22,80.39z"/>
   <path class="fil0" d="M3962.37 2668.2l0 33.24c0,0 113.38,3.09 114.15,-69.57 0.76,-72.66 -108.07,-79.62 -119.48,-77.3 -11.42,2.32 -60.12,0.77 -87.52,51.79 -27.39,51.02 -48.7,72.66 -101.97,65.7 -53.27,-6.95 -54.03,-33.23 -55.55,-40.19 -1.52,-6.96 0.76,-50.24 76.86,-51.79l0 -32.47c0,0 -123.28,-3.09 -124.04,80.39 -0.76,83.49 142.3,98.95 195.57,64.94 53.27,-34.02 39.57,-112.09 117.2,-105.13 77.62,6.96 55.53,89.63 -15.22,80.39z"/>
   <polygon class="fil0" points="1400.16,1153.74 1400.16,1178.96 1022.92,1178.96 1022.92,1153.74 "/>
   <polygon class="fil0" points="1022.92,2047.47 1022.92,2073.41 1329.59,2073.41 1022.92,2186.17 1022.92,2212.11 1400.16,2212.11 1400.16,2186.17 1097.79,2186.17 1400.16,2081.39 1400.16,2073.41 1400.16,2047.47 "/>
   <polygon class="fil0" points="1358.69,1663.28 1358.69,1741.61 1022.92,1741.61 1022.92,1768.4 1358.69,1768.4 1400.16,1768.4 1400.16,1741.61 1400.16,1663.28 "/>
   <path class="fil0" d="M4064.9 1503.32l-392.59 0 0 37.62 348.55 0c3.61,24.05 9.14,102.66 -70.77,114.59 -94.5,14.11 -86.69,-88.36 -86.69,-88.36l-191.09 83.9 0 40.37 150.48 -66.35c0,0 23.16,81.56 147.21,66.35 131.21,-16.09 94.9,-188.12 94.9,-188.12z"/>
   <path class="fil0" d="M4066.19 2128.07l-392.59 0 0 37.61 348.55 0c3.61,24.05 9.14,102.67 -70.77,114.6 -94.5,14.1 -86.69,-88.36 -86.69,-88.36l-191.09 83.9 0 40.37 150.48 -66.36c0,0 23.16,81.57 147.21,66.36 131.21,-16.09 94.9,-188.12 94.9,-188.12z"/>
   <path class="fil0" d="M4064.18 1096.96l-39.7 0 -351.09 0 0 39.16 158.56 0c-0.39,26.41 -16.08,141.51 127.35,141.59 148.86,0.08 104.88,-180.75 104.88,-180.75zm-111.64 143.26l0 0c-67.09,3.38 -76.92,-45.43 -74.83,-104.1l146.77 0c0,0 9.72,99.97 -71.94,104.1z"/>
   <path class="fil0" d="M1409.68 1314.5c12.63,-113.11 -192.47,-108.82 -192.47,-108.82l0 136.54 40.14 0 0 -106.77c0,0 119.08,10.71 112.19,77 -6.9,66.29 -98.73,91.98 -164.43,87.73 -64.74,-4.19 -155.15,-26.01 -152.06,-83.19 3.09,-57.18 67.42,-69.22 67.42,-69.22l0 -36.96c0,0 -111.93,20.28 -108.07,106.06 4.62,102.87 188.34,111.58 188.34,111.58 0,0 194.67,13.7 208.94,-113.95z"/>
   <g>
    <path class="fil0" d="M2516.54 3046.43c30.98,0 56.74,0 87.08,0 0,-0.01 -0.01,-0.02 -0.01,-0.02l-87.07 0c0,0 0,0.01 0,0.02z"/>
    <path class="fil0" d="M2536.56 2844.21l-0.29 1.18c0.1,-0.39 0.2,-0.78 0.3,-1.17l-0.01 -0.01z"/>
    <path class="fil0" d="M2490.63 3145.05c-2.36,9.02 -4.55,18.08 -6.54,27.18l6.54 -27.18z"/>
    <path class="fil0" d="M2670.97 3205.85l-37.85 -156.24 -0.78 -3.2 -29.59 -122.12c-6.83,-26.93 -13.54,-53.19 -20.08,-78.54 -2.24,-8.71 -4.52,-17.56 -6.71,-25.99l-33.2 0c-2.02,7.94 -4.12,16.27 -6.19,24.46 -0.1,0.39 -0.2,0.78 -0.3,1.17l-87.62 361.19 27.21 0 14.77 -61.53 14.07 -58.54 110.51 0 28.87 120.07 27.08 0 -0.19 -0.73zm-154.43 -159.42l0 0c0,-0.01 0,-0.02 0,-0.02 13.17,-57.88 25.83,-113.55 38.5,-169.21 2.94,0.13 5.89,0.26 8.84,0.4 12.96,55.03 25.91,110.07 39.73,168.81 0,0 0.01,0.01 0.01,0.02 -30.34,0 -56.1,0 -87.08,0z"/>
   </g>
  </g>
 </g>
</svg>
