<?xml version="1.0" encoding="UTF-8"?>
<!DOCTYPE svg PUBLIC "-//W3C//DTD SVG 1.1//EN" "http://www.w3.org/Graphics/SVG/1.1/DTD/svg11.dtd">
<!-- Creator: CorelDRAW 2017 -->
<svg xmlns="http://www.w3.org/2000/svg" xml:space="preserve" width="50.7998mm" height="33.8666mm" version="1.1" style="shape-rendering:geometricPrecision; text-rendering:geometricPrecision; image-rendering:optimizeQuality; fill-rule:evenodd; clip-rule:evenodd"
viewBox="0 0 5079.98 3386.66"
 xmlns:xlink="http://www.w3.org/1999/xlink">
 <defs>
  <style type="text/css">
   <![CDATA[
    .fil0 {fill:#FEFEFE}
    .fil3 {fill:#00305C}
    .fil2 {fill:#A8B50A}
    .fil1 {fill:#8F8F8C}
   ]]>
  </style>
 </defs>
 <g id="Capa_x0020_1">
  <metadata id="CorelCorpID_0Corel-Layer"/>
  <g id="_1231853229392">
   <polygon class="fil0" points="28.31,2323.88 5050.31,2323.88 5050.31,1062.78 28.31,1062.78 "/>
   <path class="fil1" d="M5050.32 1062.78l-5022.01 0 0 1261.1 5022.01 0 0 -1261.1zm29.67 -29.68l0 1320.46 -5080 0 0 -1320.46 5080 0z"/>
   <polygon class="fil0" points="28.31,2323.88 5050.31,2323.88 5050.31,1062.78 28.31,1062.78 "/>
   <polygon class="fil2" points="104.49,2247.7 1124.12,2247.7 1124.12,1138.97 104.49,1138.97 "/>
   <path class="fil3" d="M1200.31 1138.97l3773.82 0 0 1108.73 -3773.82 0 0 -1108.73zm3643.45 218.12c0,-77.22 -66.06,-88.66 -105.48,-88.66l-56.39 0 0 176.37 61.88 0c49.67,0 99.99,-27.25 99.99,-87.71zm-132.05 61.02l0 -123.22 30.25 0c42.7,0 70.32,23.61 70.32,60.12 0,41.21 -25.29,63.1 -73.22,63.1l-27.35 0zm-590.06 -61.02c0,-77.22 -66.06,-88.66 -105.34,-88.66l-56.29 0 0 176.37 61.76 0c49.65,0 99.87,-27.25 99.87,-87.71zm-131.93 61.02l0 -123.22 30.14 0c42.93,0 70.57,23.61 70.57,60.12 0,41.21 -25.4,63.1 -73.42,63.1l-27.29 0zm-289.38 -149.68l0 176.37 29.75 0 0 -176.37 -29.75 0zm-217.17 125.01c0,-33.92 -25.22,-41.22 -49.47,-48.47 -18.17,-5.28 -37.1,-10.86 -37.1,-29.58 0,-25.9 40.42,-34.03 63.57,-15.35l20.07 -22.03c-12.93,-9.58 -29.5,-14.4 -49.11,-14.4 -31.71,0 -65.82,17.34 -65.82,55.22 0,31.75 25.25,39.68 49.77,47.47 18.85,5.9 38.28,12.14 38.28,31.07 0,16.78 -17.28,25.59 -34.47,25.59 -13.38,0 -26.65,-5.61 -36.15,-14.95l-21.08 23.11c15.1,12.36 33.16,18.33 54.87,18.33 32.2,0 66.64,-14.8 66.64,-56.01zm-347.54 51.36l35.67 0 -46.78 -77.93 8.29 -1.45c22.41,-4.08 35.82,-21.14 35.82,-45.79 0,-34.45 -21.32,-51.2 -65.02,-51.2l-66.93 0 0 176.37 29.75 0 0 -75.17 29.83 0 39.37 75.17zm-69.2 -152.97l32.92 0c25.17,0 37.84,9.19 37.84,27.61 0,26.67 -27.28,26.67 -40.44,26.67l-30.32 0 0 -54.28zm-254.09 76.51l0 -26.67 -81.55 0 0 -46.78 86.35 0 0 -26.46 -116.09 0 0 176.37 120.91 0 0 -26.69 -91.17 0 0 -49.77 81.55 0zm-348.51 -99.91l-47.3 123.15 -8.12 0 -1.85 -3.83 -45.06 -119.32 -34.69 0 70.63 176.37 25.29 0 72.68 -176.37 -31.58 0zm-375.48 0l0 176.37 29.68 0 0 -176.37 -29.68 0zm-344.52 45.23l80.16 131.14 45.18 0 0 -176.37 -29.83 0 0 130.64 -9.13 0 -2.17 -2.85 -78.22 -127.79 -47.17 0 0 176.37 29.65 0 0 -133.91 9.21 0 2.32 2.77zm-266.27 -45.23l-29.68 0 0 107.94c0,26.56 -18.84,46.59 -43.73,46.59 -24.88,0 -43.69,-20.03 -43.69,-46.59l0 -107.94 -29.78 0 0 109.58c0,44.77 27.48,71.44 73.47,71.44 46.14,0 73.41,-26.67 73.41,-71.44l0 -109.58zm2956.21 136.44l16.08 39.93 33.98 0 -76.5 -176.37 -26.65 0 -76.23 176.37 32.69 0 15.71 -39.93 80.92 0zm-41.12 -103.58l0 0 31.68 80.19 -62.97 0 31.29 -80.19zm-2947.78 255.03c-64.48,18.23 -111.43,72.54 -111.43,141.95 0,71.26 49.5,126.63 116.37,143.4 24.38,6 47.96,4.93 72.98,4.93 32.37,0 71.85,0.09 72.87,0.09l0 -68.68c-0.74,-0.05 -40.08,-0.16 -72.18,-0.21 -27.75,-0.02 -53.28,2.4 -78.61,-11.61 -24.4,-13.53 -40.6,-37.56 -40.6,-67.92 0,-30.55 16.45,-54.63 41.1,-68.05 25.31,-13.89 49.65,-11.33 77.81,-11.45 32.19,0 71.61,0 72.48,-0.18l0 -68.73c-0.74,0.13 -40.08,0.13 -72.29,0.13 -26.92,0 -52.23,-1.03 -78.5,6.33zm452.27 -6.46c0,0.95 -0.12,89.19 -0.12,132.42 0,19.95 0,37.17 -7.89,56.2 -11.42,26.53 -33.5,44.65 -66.68,44.65 -33,0 -55.16,-18.12 -66.41,-44.65 -7.95,-18.98 -7.95,-35.9 -7.95,-55.88 -0.2,-43.25 -0.27,-131.66 -0.27,-132.74l-70.6 0c0,0.72 0,60.62 0.24,105.34 0,31.77 -1.86,64.25 7.71,95 3.56,11.99 8.66,23.35 14.88,33.91l0 0.15 0.17 0.08c24.53,41.64 67.31,69.12 122.23,69.12 73.08,0 124.77,-48.47 140.51,-114.23 4.67,-19.18 4.67,-37 4.67,-56.52 0.1,-44.22 0.14,-131.67 0.14,-132.85l-70.63 0zm309.94 -0.65l-69.85 0 -130.17 297.28 72.9 0 92.41 -209.88 89.43 209.88 76.36 0 -131.08 -297.28zm430.98 0l-48.6 0c-0.21,0.93 -0.21,88.69 -0.32,131.91 0,20.03 0,37.19 -7.96,56.2 -11.33,26.53 -33.51,44.78 -66.64,44.78 -32.95,0 -55.03,-18.25 -66.45,-44.95 -7.98,-18.84 -7.84,-35.82 -7.98,-55.76 -0.08,-43.29 -0.08,-131.15 -0.12,-132.18l-70.57 0c0,0.65 0,60.17 0.04,104.85 0,31.71 -1.8,64.25 7.68,94.89 18.54,60.2 68.7,103.35 137.4,103.35 73.12,0 124.77,-48.53 140.59,-114.32 4.52,-19.11 4.52,-36.96 4.67,-56.32 0,-44.3 0,-131.31 0,-132.45l-21.74 0zm386.51 0.17l-49.85 0c-0.08,16.8 -0.08,64.53 -0.08,114.95 -28.16,0 -122.3,0 -152.58,-0.19 0,-50.67 0,-98.24 0.04,-114.76l-70.43 0c-0.13,44.81 -0.25,295.58 -0.32,296.73l70.71 0c0,-0.43 0,-52.31 0,-112.88 30.28,0 124.48,0 152.58,0 -0.1,60.57 -0.1,112.3 -0.1,112.88l70.48 0c0,-1.04 0.05,-252.85 0.22,-296.73l-20.67 0zm92.98 2.56l0 66.48c15.61,0 58.33,0 97.67,0 0,58.88 -0.09,226.58 -0.09,227.69l70.58 0c0,-0.87 0,-169.26 0,-227.69 50.32,0.11 100.95,0.11 101.48,0.11l0 -68.89c-0.94,0 -224.31,-0.13 -269.64,-0.26l0 2.56zm347.4 56.15c0,67.75 -0.23,216.96 -0.23,216.96l0 21.44c0,0.11 0,0 0,0l21.83 0c0,0 0,0.11 0,0l42.03 0c66.8,0.11 182.76,0 183.63,0l0 -64.29c-0.67,0 -127.34,0.1 -176.92,0 0,-12.43 0.16,-34.19 0.16,-48.97 38.36,0.09 132.74,0.09 133.44,0.09l0 -63.17c-0.57,-0.12 -95.28,-0.12 -133.44,-0.2 0,-17.61 0,-43.21 0,-55.74 57.84,0.08 173.84,0 174.68,0l0 -62.36c-0.25,0 -188.02,-0.46 -245.41,0l0.23 56.24zm500.35 53.31l-105.56 -112.12 -60.88 0 0 297.32 66.15 0 0 -183.16 100.29 99.06 102.66 -102.58 0 186.68 66.72 0 0 -297.32 -59.46 0 -109.92 112.12zm806.45 -112.36c-26.98,0 -52.44,-1.11 -78.54,6.27 -64.48,18.38 -111.4,72.92 -111.4,142.77 0,71.52 49.37,127.22 116.41,143.96 24.41,6.2 47.78,4.94 72.82,5.02 32.26,0.08 71.97,0.13 72.72,0.13l0 -69.13c-0.75,0 -39.96,0 -72.01,-0.05 -27.87,-0.05 -53.26,2.3 -78.54,-11.77 -24.29,-13.48 -40.57,-37.61 -40.57,-68.16 0,-30.7 16.28,-54.91 40.96,-68.42 25.44,-14.05 49.59,-11.42 77.81,-11.55 32.27,0 71.6,-0.17 72.35,-0.17l0 -68.98c-0.55,0.08 -39.96,0.08 -72.01,0.08zm-250.04 149.23c0,-9.43 -1.06,-18.63 -2.66,-27.49l0.2 -0.05c-5.39,-29.95 -20,-58.81 -43.71,-81.85 -21.95,-21.62 -48.89,-35.33 -77.3,-41.4 -1.15,-0.33 -2.17,-0.56 -3.24,-0.93l-0.24 0c-2.86,-0.53 -5.5,-0.78 -8.37,-1.23 -7.54,-1.03 -15.21,-1.8 -23.09,-1.8 -87.24,0 -158.22,69.44 -158.22,154.75 0,85.43 70.98,154.9 158.22,154.9 5.02,0 10.19,-0.41 15.15,-0.81 1.49,-0.16 2.7,-0.39 3.95,-0.43 3.42,-0.39 6.86,-0.9 10.12,-1.44 2.48,-0.59 5.01,-1.16 7.4,-1.72 2.03,-0.53 4.05,-0.85 5.97,-1.36 3.29,-0.92 6.6,-1.96 9.64,-3.04 1.08,-0.32 2.16,-0.64 3.13,-1.05 3.77,-1.3 7.56,-2.91 11.16,-4.57 0.25,-0.1 0.43,-0.1 0.6,-0.17 16.45,-7.5 31.73,-17.64 45.12,-30.88 27.07,-26.33 42.32,-59.96 45.7,-94.55l-0.43 0.02c0.43,-4.94 0.9,-9.88 0.9,-14.9zm-83.91 43.95l0 0c-3.59,5.52 -7.59,10.79 -12.52,15.58 -6.18,6.05 -13.41,10.75 -20.84,14.58l-0.05 -0.09c-5.57,2.91 -11.7,5.28 -18,6.99 -0.7,0.19 -1.33,0.46 -1.85,0.56 -2.41,0.68 -4.89,0.96 -7.58,1.53 -3.59,0.4 -7.14,0.83 -10.7,0.98 -0.88,0 -1.46,0.03 -2.14,0.03 -21.85,-0.03 -43.9,-8.17 -60.49,-24.58 -33.55,-32.81 -33.55,-86.29 0,-119.03 16.7,-16.39 38.66,-24.56 60.74,-24.56 0,0 0,0 0.06,0 4.63,0 9.1,0.49 13.86,1.25 2.35,0.49 4.84,0.94 7.25,1.6 1.77,0.46 3.49,0.88 5.21,1.47 33.94,11.29 58.72,42.71 58.72,79.74 0,15.86 -4.46,30.62 -12.38,43.32l0.71 0.63zm-1571.88 336.89l0 0 -19.07 -45.73 -0.43 0 -19.19 45.73 38.69 0zm-24.83 -63.25l12.44 0 43.83 99.85 -16.12 0 -10.39 -24.74 -48.55 0 -10.11 24.74 -16.06 0 44.96 -99.85zm-140.07 0l13.74 0 0 99.85 -13.74 0 0 -99.85zm-177.19 0l35.58 0c43.14,0 53.62,31.41 53.62,49.94 0,25.6 -19.53,49.91 -55.75,49.91l-33.45 0 0 -99.85zm13.78 87.11l17.48 0c23.24,0 43.21,-12.52 43.21,-37.17 0,-12.64 -6.79,-37.15 -39.99,-37.15l-20.7 0 0 74.32zm-153.72 -43.06l17.98 0c11.18,0 21.94,-2.55 21.94,-16.11 0,-13.51 -10.76,-16.09 -21.94,-16.09l-17.98 0 0 32.2zm-13.89 -44.05l35.9 0c26.12,0 32.71,15.52 32.71,27.94 0,12.58 -9.66,24.69 -25.1,26.35l29.02 45.56 -17.29 0 -26.04 -43.9 -15.31 0 0 43.9 -13.89 0 0 -99.85zm-112.68 63.25l0 0 -19.05 -45.73 -0.38 0 -19.2 45.73 38.63 0zm-24.91 -63.25l12.63 0 43.64 99.85 -16.19 0 -10.23 -24.74 -48.54 0 -10.18 24.74 -16 0 44.87 -99.85zm-189.59 0l0 61.26c0,12.33 6.46,28.45 25.68,28.45 19.3,0 25.7,-16.12 25.7,-28.45l0 -61.26 13.8 0 0 63.25c0,23.25 -17.17,39.13 -39.5,39.13 -22.26,0 -39.46,-15.88 -39.46,-39.13l0 -63.25 13.78 0zm-105.08 44.05l0 49.26c-10.07,5.78 -26.44,9.07 -38.82,9.07 -34.59,0 -54.6,-24.16 -54.6,-52.44 0,-29.51 22.04,-52.5 53.26,-52.5 18.75,0 30.09,4.93 37.97,12.95l-9.74 10.36c-8.45,-7.86 -18.01,-10.57 -28.23,-10.57 -23.49,0 -38.48,17.98 -38.48,39.76 0,22.49 17.07,39.77 39.56,39.77 9.71,0 18.88,-1.92 25.18,-5.31l0 -27.72 -22.7 0 0 -12.63 36.6 0zm-269.85 -44.05l18.12 0 56.3 82.06 0.24 0 0 -82.06 13.89 0 0 99.85 -17.7 0 -56.64 -82.05 -0.45 0 0 82.05 -13.76 0 0 -99.85zm-115.7 63.25l0 0 -18.99 -45.73 -0.15 0 -19.52 45.73 38.66 0zm-24.73 -63.25l12.46 0 43.84 99.85 -16.13 0 -10.33 -24.74 -48.59 0 -9.98 24.74 -16.29 0 45.02 -99.85zm-194.02 0l15.95 0 30.05 81.18 0.21 0 31.18 -81.18 15.08 0 -40.25 99.85 -12.91 0 -39.31 -99.85zm1761.68 57.24l-38.75 -57.24 17.79 0 27.77 43.9 28.7 -43.9 16.89 0 -38.7 57.24 0 42.61 -13.7 0 0 -42.61zm1717.29 6.01l0 0 -19.13 -45.73 -0.09 0 -19.51 45.73 38.73 0zm-24.79 -63.25l12.51 0 43.63 99.85 -15.97 0 -10.33 -24.74 -48.58 0 -10.03 24.74 -16.34 0 45.11 -99.85zm-134.21 0l13.8 0 0 99.85 -13.8 0 0 -99.85zm-95.55 21.68c-5.73,-7.46 -15.29,-11.5 -24.7,-11.5 -22.84,0 -37.98,17.98 -37.98,40.62 0,21.03 14.13,38.91 37.98,38.91 11.62,0 20.65,-5.06 26.77,-13.44l11.59 8.69c-2.93,4.01 -15.29,17.42 -38.6,17.42 -32.42,0 -52.45,-26.51 -52.45,-51.58 0,-31.04 21.56,-53.36 53.17,-53.36 13.37,0 27.46,4.93 35.63,15.55l-11.41 8.69zm-250.84 -21.68l18.03 0 56.29 82.06 0.31 0 0 -82.06 13.68 0 0 99.85 -17.39 0 -56.9 -82.05 -0.27 0 0 82.05 -13.75 0 0 -99.85zm-159.16 0l66.03 0 0 12.79 -52.23 0 0 29.7 48.53 0 0 12.66 -48.53 0 0 31.96 54.72 0 0 12.74 -68.52 0 0 -99.85zm-145.62 0l13.68 0 0 87.11 46.94 0 0 12.74 -60.62 0 0 -99.85zm-159.12 0l65.91 0 0 12.79 -52.12 0 0 29.7 48.57 0 0 12.66 -48.57 0 0 31.96 54.64 0 0 12.74 -68.43 0 0 -99.85zm-98.48 21.68c-5.77,-7.46 -15.17,-11.5 -24.55,-11.5 -22.95,0 -38.09,17.98 -38.09,40.55 0,21.1 14.21,38.98 38.09,38.98 11.58,0 20.55,-5.06 26.57,-13.44l11.67 8.69c-2.93,4.01 -15.21,17.42 -38.61,17.42 -32.45,0 -52.44,-26.51 -52.44,-51.65 0,-30.97 21.83,-53.29 53.15,-53.29 13.4,0 27.61,4.93 35.88,15.55l-11.67 8.69zm-211.71 25.74l-34.29 -47.42 17.67 0 26.62 38.41 26.18 -38.41 17.3 0 -34.01 47.31 37.47 52.54 -18.16 0 -29.28 -43.29 -29.38 43.29 -17.22 0 37.1 -52.43zm-182.75 -47.42l66.04 0 0 12.79 -52.1 0 0 29.7 48.46 0 0 12.66 -48.46 0 0 31.96 54.47 0 0 12.74 -68.41 0 0 -99.85zm359.97 -502.62l0 13.74 -246.16 0 246.16 -13.74z"/>
   <path class="fil0" d="M860.51 1592.82l-655.51 573.86 39.45 -0.07 634.13 -553.23 93.86 106.82 -30.44 28.59 49.09 56.91 -39.73 36.42 16.22 17.47 62.75 -54.73 -46.65 -55.17 29.33 -27.36 -0.21 -0.23 -128.02 -145.62 -2.44 -2.68 -21.86 18.99 0.03 0.03zm-525.33 573.79l560.7 -492.38 -18.97 -20.28 -3.29 2.86 -582.15 510.25 43.71 -0.45zm173.7 0l412.31 -358.77 13.31 12.41 18.21 -17.42 -30.12 -33.46 -1.84 1.56 -452.67 395.75 40.8 -0.07zm-85.58 0.45l481.29 -422.97 -18.41 -20.39 -15.42 13.55 -488.57 429.43 41.11 0.38zm408.17 -0.61l-143.2 -124.32 -20.97 18.18 21.84 18.91 101.87 87.46 40.46 -0.23zm91.57 0l-189.74 -163.62 -20.84 18.14 29.74 25.64 140.39 120.07 40.45 -0.23zm-315.46 -591.9l-409.29 -354.95 5.97 26.33 8.75 32.11 482.52 421.42 27.62 -24.32 -115.57 -100.59zm18.48 110.47l-391.61 -340.27 5.64 24.28 8.79 32.68 392.63 344.19 26.88 -23.67 -42.33 -37.21zm-52.46 48.81l-310.59 -271.8 5.76 25.03 8.77 32.38 308.9 274.5 27.76 -24.35 -40.6 -35.76zm-44.3 55.6l-231.66 -204.02 5.92 25.35 8.88 32.28 220.22 197.12 27.22 -23.59 -30.58 -27.14zm-43.56 55.22l-160.57 -141.93 5.27 23.02 8.41 29.67 142.27 129.96 25.36 -22.19 -20.74 -18.53zm217.71 322.03l40.63 -0.23 -99.13 -86.55 -21.01 18.6 14.69 12.64 64.82 55.54zm249.96 -869.25l13.38 -57.67 -348.6 303.75 3.23 2.91 23.81 19.21 308.18 -268.2zm-28.57 110.65l12.3 -52.97 -267.82 233.41 3.18 2.6 22.35 18.03 229.99 -201.07zm-20.25 100.93l12.21 -52.69 -199.77 177.14 3.07 2.6 22.19 18.06 162.3 -145.11z"/>
  </g>
 </g>
</svg>
